G04 ================== begin FILE IDENTIFICATION RECORD ==================*
G04 Layout Name:  E:/gerber/BD9G341EFJ-E2EVK-101_BRD_REV00_2014-11-05.brd*
G04 Film Name:    L2_GND*
G04 File Format:  Gerber RS274X*
G04 File Origin:  Cadence Allegro 16.5-S049*
G04 Origin Date:  Wed Nov 05 15:46:37 2014*
G04 *
G04 Layer:  BOARD GEOMETRY/LOGO*
G04 Layer:  BOARD GEOMETRY/OUTLINE*
G04 Layer:  DRAWING FORMAT/L2_GND*
G04 Layer:  ETCH/L2_GND*
G04 Layer:  PIN/L2_GND*
G04 Layer:  VIA CLASS/L2_GND*
G04 *
G04 Offset:    (0.000 0.000)*
G04 Mirror:    No*
G04 Mode:      Positive*
G04 Rotation:  0*
G04 FullContactRelief:  No*
G04 UndefLineWidth:     6.000*
G04 ================== end FILE IDENTIFICATION RECORD ====================*
%FSLAX55Y55*MOIN*%
%IR0*IPPOS*OFA0.00000B0.00000*MIA0B0*SFA1.00000B1.00000*%
%ADD12C,.04*%
%ADD13C,.06*%
%ADD10C,.024*%
%ADD11C,.093*%
%ADD14C,.007098*%
%ADD15C,.006*%
%ADD18C,.120004*%
%ADD21C,.113004*%
%ADD19C,.270004*%
%ADD20C,.173004*%
%ADD22C,.040004*%
%ADD17C,.080004*%
%ADD16C,.056004*%
G75*
%LPD*%
G75*
G36*
G01X273000Y2500D02*
X2500D01*
Y273000D01*
X273000D01*
Y2500D01*
G37*
%LPC*%
G75*
G54D18*
X88000Y156500D03*
X55000Y161500D03*
G54D21*
X258055Y161531D03*
G54D19*
X17500Y17531D03*
Y258090D03*
X258055D03*
Y17531D03*
G54D20*
X15000Y161531D03*
G54D22*
X88500Y175000D03*
X132150Y184350D03*
G54D17*
X60000Y195000D03*
X70000D03*
G54D16*
X117500Y151000D03*
X150500Y159500D03*
X211000Y147500D03*
X235500Y151000D03*
%LPD*%
G75*
G54D10*
X4000Y24000D03*
Y34000D03*
Y44000D03*
Y54000D03*
Y64000D03*
Y74000D03*
Y84000D03*
Y94000D03*
Y104000D03*
Y114000D03*
Y124000D03*
Y134000D03*
Y144000D03*
Y154000D03*
Y164000D03*
Y174000D03*
Y184000D03*
Y194000D03*
Y204000D03*
Y214000D03*
Y224000D03*
Y234000D03*
Y244000D03*
Y264000D03*
X24000Y4000D03*
X34000D03*
Y14000D03*
Y24000D03*
Y44000D03*
X14000Y34000D03*
X24000D03*
X34000D03*
X14000Y44000D03*
X24000D03*
X14000Y54000D03*
X24000D03*
X14000Y64000D03*
X24000D03*
X14000Y74000D03*
X24000D03*
X14000Y84000D03*
X24000D03*
X14000Y94000D03*
X24000D03*
X34000D03*
X24000Y104000D03*
X34000D03*
X24000Y114000D03*
X34000D03*
X24000Y124000D03*
X34000D03*
X14000Y134000D03*
X24000D03*
X14000Y144000D03*
X24000D03*
X14000Y194000D03*
X24000D03*
X34000D03*
X14000Y204000D03*
X24000D03*
X34000D03*
X14000Y214000D03*
X24000D03*
X34000D03*
X14000Y224000D03*
X24000D03*
X34000D03*
X14000Y234000D03*
X24000D03*
X34000D03*
X14000Y244000D03*
X24000D03*
X34000D03*
Y254000D03*
Y271500D03*
Y264000D03*
X44000Y4000D03*
X54000D03*
Y14000D03*
X44000Y24000D03*
X54000Y44000D03*
X44000D03*
X54000Y34000D03*
X44000D03*
X54000Y94000D03*
X44000D03*
Y104000D03*
X54000D03*
X44000Y114000D03*
X54000D03*
X44000Y124000D03*
X54000Y187500D03*
X44000D03*
Y194000D03*
X54000D03*
X44000Y214000D03*
X54000D03*
X44000Y204000D03*
X54000D03*
X44000Y224000D03*
X54000D03*
X44000Y234000D03*
X54000D03*
X44000Y244000D03*
X54000D03*
X44000Y254000D03*
X54000D03*
X44000Y271500D03*
X54000D03*
X44000Y264000D03*
X54000D03*
X64000Y4000D03*
X74000D03*
X64500Y24000D03*
X74500D03*
X54500D03*
X64000Y14000D03*
X74000D03*
X64000Y44000D03*
X74000D03*
X64000Y34000D03*
X74000D03*
X64000Y94000D03*
X74000D03*
X67000Y110500D03*
X62000D03*
X72000D03*
X64000Y104000D03*
X74000D03*
X58500Y134000D03*
X67000Y125500D03*
Y130500D03*
X62000Y125500D03*
Y130500D03*
X67000Y120500D03*
Y115500D03*
X62000Y120500D03*
Y115500D03*
X72000Y125500D03*
Y130500D03*
Y120500D03*
Y115500D03*
X58500Y138500D03*
Y143500D03*
X66000Y176000D03*
X71000D03*
X62000D03*
X71000Y184500D03*
X66000D03*
X62000D03*
Y188500D03*
X66000D03*
X71000D03*
X64000Y214000D03*
X74000D03*
X64000Y204000D03*
X74000D03*
X64000Y224000D03*
X74000D03*
X64000Y234000D03*
X74000D03*
X64000Y244000D03*
X74000D03*
X64000Y254000D03*
X74000D03*
Y271500D03*
X64000D03*
Y264000D03*
X74000D03*
X84000Y4000D03*
X94000D03*
X84000Y24000D03*
X94000D03*
X84000Y14000D03*
X94000D03*
X84000Y44000D03*
X94000D03*
X84000Y34000D03*
X94000D03*
Y84000D03*
Y74000D03*
X77000Y110500D03*
X82000D03*
X87000D03*
X92000D03*
X84000Y94000D03*
X94000D03*
X84000Y104000D03*
X94000D03*
X82000Y130500D03*
Y125500D03*
X77000Y130500D03*
Y125500D03*
Y115500D03*
Y120500D03*
X82000Y115500D03*
Y120500D03*
X87000Y115500D03*
Y120500D03*
X92000D03*
Y115500D03*
X87000Y125500D03*
Y130500D03*
X92000Y125500D03*
Y130500D03*
X84500Y144000D03*
X92000Y144500D03*
X86500Y140000D03*
X92000Y135500D03*
X91500Y140000D03*
X80000Y172500D03*
X83500Y170000D03*
X76000Y176000D03*
X80000Y177500D03*
X83500Y180000D03*
X75000Y184500D03*
Y188500D03*
X80000Y183000D03*
X83500Y175000D03*
X75500Y180000D03*
X84000Y214000D03*
X94000D03*
X84000Y204000D03*
X94000D03*
X84000Y224000D03*
X94000D03*
X84000Y234000D03*
X94000D03*
X84000Y244000D03*
X94000D03*
X84000Y254000D03*
X94000D03*
Y271500D03*
X84000D03*
Y264000D03*
X94000D03*
X104000Y4000D03*
X114000D03*
X104000Y24000D03*
Y14000D03*
X114000D03*
Y24000D03*
X104000Y44000D03*
X114000D03*
X104000Y34000D03*
X114000D03*
X104000Y74000D03*
X114000D03*
X104000Y84000D03*
X114000D03*
X107000Y110500D03*
X112000D03*
X97000D03*
X102000D03*
X104000Y94000D03*
X114000D03*
X104000Y104000D03*
X114000D03*
X107000Y115500D03*
X112000D03*
X107000Y120500D03*
X112000D03*
X97000D03*
Y115500D03*
X102000D03*
Y120500D03*
X97000Y125500D03*
Y130500D03*
X112000Y125500D03*
X107000D03*
X102000D03*
X107000Y130500D03*
X102000D03*
X103500Y148000D03*
X96500Y144500D03*
X97000Y135500D03*
X96500Y140000D03*
X112000Y135500D03*
X107000D03*
X102000D03*
X112000Y140000D03*
X107000D03*
X102000D03*
X111500Y144500D03*
X102000D03*
X111500Y148500D03*
X107000D03*
X102000Y155000D03*
X107000D03*
X112000D03*
Y171000D03*
Y167000D03*
Y163000D03*
Y159000D03*
X107000D03*
Y163000D03*
Y167000D03*
Y171000D03*
X102000Y159000D03*
Y163000D03*
Y167000D03*
Y171000D03*
X112000Y191500D03*
X107000D03*
X102500D03*
X112000Y187500D03*
X107000D03*
X102500D03*
X112000Y183500D03*
X107000D03*
X102500D03*
X112000Y179500D03*
X107000D03*
X102500D03*
X112000Y175500D03*
X107000D03*
X102500D03*
X114000Y214000D03*
X104000D03*
X102000Y205000D03*
X112000D03*
Y195500D03*
X107000D03*
X102500D03*
X104000Y224000D03*
X114000D03*
X104000Y234000D03*
X114000D03*
X104000Y244000D03*
X114000D03*
X104000Y254000D03*
X114000D03*
Y271500D03*
X104000D03*
Y264000D03*
X114000D03*
X124000Y4000D03*
X134000D03*
X124000Y14000D03*
X134000D03*
X124000Y24000D03*
X134000D03*
X124000Y44000D03*
X134000D03*
X124000Y34000D03*
X134000D03*
X124000Y74000D03*
X134000D03*
X124000Y84000D03*
X134000D03*
X133000Y109000D03*
X127500Y110500D03*
X133000Y113500D03*
X122000Y110500D03*
X117000D03*
X124000Y94000D03*
X134000D03*
X124000Y104000D03*
X134000D03*
X133000Y118000D03*
Y122500D03*
X131500Y127500D03*
X127000D03*
X131500Y131000D03*
X127000D03*
X122000Y125500D03*
Y130500D03*
Y120500D03*
Y115500D03*
X117000Y125500D03*
Y130500D03*
Y120500D03*
Y115500D03*
Y135500D03*
X131500Y191500D03*
X131000Y188000D03*
X127000Y191500D03*
Y187500D03*
X122000Y191500D03*
X117000D03*
X122000Y187500D03*
X117000D03*
X122000Y183500D03*
X117000D03*
X122000Y179500D03*
X117000D03*
X122000Y175500D03*
X117000D03*
X130500Y214000D03*
X124000D03*
X131500Y195500D03*
X127000D03*
X122000Y205000D03*
X131000D03*
X122000Y195500D03*
X117000D03*
X130500Y224000D03*
X124000D03*
Y234000D03*
X134000D03*
X124000Y244000D03*
X134000D03*
X124000Y254000D03*
X134000D03*
Y271500D03*
X124000D03*
Y264000D03*
X134000D03*
X144000Y4000D03*
X154000D03*
X144000Y14000D03*
X154000D03*
X144000Y24000D03*
X154000D03*
X144000Y44000D03*
X154000D03*
X144000Y34000D03*
X154000D03*
X144000Y74000D03*
X154000D03*
X144000Y84000D03*
X154000D03*
X141000Y109000D03*
X137000D03*
X147500Y111000D03*
X141000Y113500D03*
X137000D03*
X144000Y94000D03*
X154000D03*
X144000Y104000D03*
X154000D03*
X153500Y133000D03*
X141000Y118000D03*
X137000D03*
X141000Y122500D03*
X137000D03*
X147000Y127500D03*
X142000D03*
X137000D03*
X147000Y131000D03*
X142000D03*
X137000D03*
X154000Y114000D03*
Y164500D03*
X145000Y164000D03*
Y174000D03*
X154000D03*
X145000Y184000D03*
X154000D03*
X144000Y194000D03*
X154000D03*
X144000Y214000D03*
X138000Y204000D03*
X144000D03*
X154000D03*
Y214000D03*
X144000Y224000D03*
X154000D03*
X144000Y234000D03*
X154000D03*
X144000Y244000D03*
X154000D03*
X144000Y254000D03*
X154000D03*
Y271500D03*
X144000D03*
Y264000D03*
X154000D03*
X164000Y4000D03*
X174000D03*
X164000Y14000D03*
X174000D03*
X164000Y24000D03*
X174000D03*
X164000Y44000D03*
Y34000D03*
X174000D03*
Y44000D03*
X164000Y74000D03*
X174000D03*
X164000Y84000D03*
X174000D03*
X164000Y94000D03*
X174000D03*
X164000Y104000D03*
X174000D03*
X164000Y114000D03*
X174000D03*
X164000Y124000D03*
X174000D03*
Y176500D03*
X164000D03*
Y184000D03*
X174000D03*
X164000Y194000D03*
X174000D03*
X164000Y204000D03*
X174000D03*
X164000Y214000D03*
X174000D03*
X164000Y224000D03*
Y234000D03*
X174000Y224000D03*
Y234000D03*
X164000Y244000D03*
X174000D03*
X164000Y254000D03*
X174000D03*
Y271500D03*
X164000D03*
Y264000D03*
X174000D03*
X184000Y4000D03*
X194000D03*
X184000Y14000D03*
X194000D03*
X184000Y24000D03*
X194000D03*
Y44000D03*
Y34000D03*
X184000D03*
Y44000D03*
X194000Y64000D03*
Y54000D03*
X184000D03*
Y64000D03*
X194000Y84000D03*
Y74000D03*
X184000D03*
Y84000D03*
Y94000D03*
X194000D03*
X184000Y104000D03*
X194000D03*
X184000Y114000D03*
X194000D03*
X184000Y124000D03*
X194000D03*
Y176500D03*
X184000D03*
Y184000D03*
X194000D03*
X184000Y194000D03*
X194000D03*
X184000Y204000D03*
X194000D03*
X184000Y214000D03*
X194000D03*
X184000Y224000D03*
X194000D03*
X184000Y234000D03*
X194000D03*
X184000Y244000D03*
X194000D03*
X184000Y254000D03*
X194000D03*
Y271500D03*
X184000D03*
Y264000D03*
X194000D03*
X204000Y4000D03*
X214000D03*
X204000Y14000D03*
X214000D03*
X204000Y24000D03*
X214000D03*
Y104000D03*
X204000Y94000D03*
X214000D03*
X204000Y104000D03*
X207000Y128500D03*
X212500Y125000D03*
X215000Y129000D03*
X211000Y132000D03*
X207000Y133500D03*
X215000D03*
X204000Y114000D03*
X214000D03*
X204000Y124000D03*
X207000Y137500D03*
X215000D03*
X205000Y166000D03*
X204000Y176500D03*
X214000D03*
X204000Y184000D03*
X214000D03*
X204000Y194000D03*
X214000D03*
X204000Y204000D03*
X214000D03*
X204000Y214000D03*
X214000D03*
X204000Y224000D03*
X214000D03*
X204000Y234000D03*
X214000D03*
X204000Y244000D03*
X214000D03*
X204000Y254000D03*
X214000D03*
Y271500D03*
X204000D03*
Y264000D03*
X214000D03*
X224000Y4000D03*
X234000D03*
X224000Y14000D03*
Y24000D03*
X234000D03*
X224000Y94000D03*
X234000D03*
X224000Y104000D03*
X234000D03*
X222500Y120000D03*
X217500D03*
X234000D03*
X229500Y125000D03*
X226500Y133500D03*
Y129500D03*
X224000Y114000D03*
X234000D03*
X220500Y125000D03*
X226500Y137500D03*
X224000Y184000D03*
X234000D03*
X224000Y194000D03*
X234000D03*
X224000Y204000D03*
X234000D03*
X224000Y214000D03*
X234000D03*
X224000Y224000D03*
X234000D03*
X224000Y234000D03*
X234000D03*
X224000Y244000D03*
X234000D03*
X224000Y254000D03*
X234000Y271500D03*
X224000D03*
Y264000D03*
X234000D03*
X244000Y4000D03*
Y24000D03*
Y94000D03*
X254000D03*
X244000Y104000D03*
Y120000D03*
Y114000D03*
X243000Y133500D03*
Y125000D03*
Y129500D03*
X254000Y134000D03*
X243000Y137500D03*
X244000Y184000D03*
X254000D03*
X244000Y194000D03*
X254000Y204000D03*
X244000Y214000D03*
X254000D03*
X244000Y224000D03*
X254000D03*
X244000Y234000D03*
X254000D03*
X244000Y244000D03*
X254000D03*
X244000Y254000D03*
Y271500D03*
Y264000D03*
X271500Y4000D03*
X264000D03*
X271500Y25000D03*
Y44000D03*
Y34000D03*
X264000D03*
Y44000D03*
X271500Y64000D03*
Y54000D03*
X264000D03*
Y64000D03*
X271500Y84000D03*
Y74000D03*
X264000D03*
Y84000D03*
X271500Y104000D03*
Y94000D03*
X264000D03*
X271500Y124000D03*
Y134000D03*
Y114000D03*
X264000Y134000D03*
X271500Y154000D03*
Y144000D03*
Y164000D03*
Y174000D03*
Y184000D03*
Y194000D03*
X264000Y184000D03*
Y194000D03*
X271500Y204000D03*
Y214000D03*
X264000Y204000D03*
Y214000D03*
X271500Y234000D03*
Y224000D03*
X264000D03*
Y234000D03*
X271500Y252500D03*
Y244000D03*
X264000D03*
X271000Y271500D03*
G54D11*
X15000Y114531D03*
X258055D03*
G54D12*
X34500Y188000D03*
X54500Y125500D03*
X87000Y135500D03*
X112000Y130500D03*
X107000Y144500D03*
X154000Y124000D03*
X150000Y178500D03*
Y199000D03*
X210000Y109000D03*
Y119500D03*
X209500Y171000D03*
X229000Y109000D03*
Y119500D03*
X235500Y124500D03*
X229500Y178000D03*
G54D13*
X80000Y195000D03*
G54D14*
G01X-55500Y-110879D02*
Y-109459D01*
G01X-49360Y-110059D02*
X-55500D01*
G01Y-110759D02*
X-51840D01*
G01X-51050Y-116069D02*
X-55500Y-110879D01*
G01X-51600Y-111449D02*
X-55010D01*
G01X-57620Y-105039D02*
Y-116069D01*
G01X-60930Y-110759D02*
X-57620D01*
G01Y-110059D02*
X-60930D01*
G01X-57620Y-111449D02*
X-60930D01*
G01Y-112139D02*
X-57620D01*
G01Y-112839D02*
X-60930D01*
G01X-57620Y-114229D02*
X-60930D01*
G01Y-113529D02*
X-57620D01*
G01X-60930Y-114919D02*
X-57620D01*
G01Y-115619D02*
X-60930D01*
G01Y-116069D02*
Y-103319D01*
G01X-48840Y-109659D02*
X-49200Y-109969D01*
G01D02*
X-49800Y-110309D01*
G01D02*
X-50460Y-110549D01*
G01D02*
X-51140Y-110669D01*
G01X-47800Y-115619D02*
X-51440D01*
G01X-51140Y-110669D02*
X-51840Y-110679D01*
G01D02*
Y-111189D01*
G01D02*
X-47390Y-116069D01*
G01X-52030Y-114919D02*
X-48440D01*
G01X-53220Y-113529D02*
X-49700D01*
G01X-49070Y-114229D02*
X-52630D01*
G01X-50330Y-112839D02*
X-53820D01*
G01X-54410Y-112139D02*
X-50970D01*
G01X-54670Y-120579D02*
X-54860Y-120639D01*
G01X-54610Y-123849D02*
X-54790Y-123809D01*
G01X-54860Y-120639D02*
X-55040Y-120729D01*
G01D02*
X-55190Y-120859D01*
G01D02*
X-55320Y-121009D01*
G01D02*
X-55410Y-121189D01*
G01D02*
X-55470Y-121379D01*
G01D02*
X-55490Y-121579D01*
G01X-55500Y-122809D02*
Y-122219D01*
G01D02*
X-52660D01*
G01X-55500Y-121579D02*
Y-122219D01*
G01X-54790Y-123809D02*
X-54960Y-123729D01*
G01D02*
X-55110Y-123619D01*
G01D02*
X-55240Y-123489D01*
G01D02*
X-55350Y-123339D01*
G01D02*
X-55430Y-123169D01*
G01D02*
X-55470Y-122989D01*
G01D02*
X-55490Y-122809D01*
G01X-58260Y-122229D02*
X-58110Y-122269D01*
G01D02*
X-57980Y-122339D01*
G01D02*
X-57850Y-122439D01*
G01D02*
X-57750Y-122569D01*
G01D02*
X-57680Y-122699D01*
G01D02*
X-57640Y-122849D01*
G01D02*
X-57620Y-123009D01*
G01D02*
X-57640Y-123179D01*
G01D02*
X-57690Y-123339D01*
G01D02*
X-57760Y-123489D01*
G01D02*
X-57870Y-123619D01*
G01D02*
X-58000Y-123729D01*
G01D02*
X-58150Y-123799D01*
G01D02*
X-58310Y-123849D01*
G01X-58420Y-122209D02*
X-58260Y-122229D01*
G01X-58310Y-123849D02*
X-58480Y-123869D01*
G01X-60040Y-122219D02*
X-58420D01*
G01X-57620Y-116069D02*
X-60930D01*
G01X-57620Y-120559D02*
X-60170D01*
G01D02*
X-60340Y-120579D01*
G01D02*
X-60500Y-120639D01*
G01D02*
X-60640Y-120729D01*
G01D02*
X-60760Y-120849D01*
G01X-60780Y-121809D02*
X-60670Y-121949D01*
G01D02*
X-60530Y-122059D01*
G01D02*
X-60380Y-122139D01*
G01D02*
X-60210Y-122189D01*
G01D02*
X-60040Y-122209D01*
G01X-58480Y-123869D02*
X-60930D01*
G01X-60760Y-120849D02*
X-60850Y-120989D01*
G01D02*
X-60910Y-121149D01*
G01X-60930Y-121319D02*
X-60910Y-121489D01*
G01D02*
X-60860Y-121659D01*
G01X-60910Y-121149D02*
X-60930Y-121319D01*
G01X-60860Y-121659D02*
X-60780Y-121809D01*
G01X-46800Y-120559D02*
X-48210Y-123869D01*
G01D02*
X-49750Y-120559D01*
G01D02*
X-50300D01*
G01D02*
Y-123869D01*
G01X-47390Y-116069D02*
X-51050D01*
G01X-52660Y-120559D02*
X-54470D01*
G01D02*
X-54670Y-120579D01*
G01X-52660Y-123869D02*
X-54430D01*
G01D02*
X-54610Y-123849D01*
G01X-55500Y-109459D02*
X-53720D01*
G01X-56440Y-102849D02*
X-53410D01*
G01X-54000Y-104259D02*
X-56850D01*
G01D02*
X-57050Y-104289D01*
G01D02*
X-57230Y-104369D01*
G01D02*
X-57400Y-104489D01*
G01D02*
X-57520Y-104649D01*
G01D02*
X-57600Y-104839D01*
G01D02*
X-57620Y-105039D01*
G01X-58690Y-102989D02*
X-56440Y-102849D01*
G01X-59590Y-103119D02*
X-51020D01*
G01X-60930Y-103819D02*
X-49310D01*
G01X-57410Y-104509D02*
X-60930D01*
G01Y-105199D02*
X-57620D01*
G01X-60930Y-106589D02*
X-57620D01*
G01Y-105899D02*
X-60930D01*
G01X-57620Y-107289D02*
X-60930D01*
G01Y-107979D02*
X-57620D01*
G01Y-108669D02*
X-60930D01*
G01Y-109369D02*
X-57620D01*
G01X-60930Y-103319D02*
X-58690Y-102989D01*
G01X-48650Y-104499D02*
X-48430Y-104809D01*
G01D02*
X-48280Y-105159D01*
G01D02*
X-48190Y-105539D01*
G01D02*
X-48170Y-105919D01*
G01D02*
Y-107919D01*
G01D02*
X-48210Y-108399D01*
G01D02*
X-48330Y-108859D01*
G01D02*
X-48550Y-109279D01*
G01D02*
X-48840Y-109659D01*
G01X-49550Y-103619D02*
X-49060Y-104019D01*
G01D02*
X-48650Y-104499D01*
G01X-50100Y-103319D02*
X-49550Y-103619D01*
G01X-51240Y-106269D02*
X-51300Y-105829D01*
G01D02*
X-51450Y-105419D01*
G01X-48170Y-105899D02*
X-51290D01*
G01X-51240Y-106589D02*
X-48170D01*
G01X-51240Y-107369D02*
Y-106269D01*
G01X-48170Y-107289D02*
X-51240D01*
G01X-51410Y-108229D02*
X-51290Y-107809D01*
G01D02*
X-51240Y-107369D01*
G01X-51340Y-107979D02*
X-48180D01*
G01X-51740Y-102969D02*
X-50100Y-103319D01*
G01X-51450Y-105419D02*
X-51680Y-105049D01*
G01D02*
X-51990Y-104739D01*
G01X-51580Y-105199D02*
X-48270D01*
G01X-52060Y-108999D02*
X-51600Y-108629D01*
G01D02*
X-51410Y-108229D01*
G01X-48280Y-108669D02*
X-51650D01*
G01X-51990Y-104739D02*
X-52630Y-104449D01*
G01X-48640Y-104509D02*
X-52500D01*
G01X-53140Y-109419D02*
X-52580Y-109269D01*
G01D02*
X-52060Y-108999D01*
G01X-52950Y-109369D02*
X-48610D01*
G01X-53410Y-102849D02*
X-51740Y-102969D01*
G01X-52630Y-104449D02*
X-53310Y-104289D01*
G01D02*
X-54000Y-104259D01*
G01X-53720Y-109459D02*
X-53140Y-109419D01*
G01X-32160Y-113199D02*
X-32110Y-112649D01*
G01D02*
Y-106509D01*
G01X-32340Y-113719D02*
X-32160Y-113199D01*
G01X-32630Y-114189D02*
X-32340Y-113719D01*
G01X-33480Y-115019D02*
X-33020Y-114579D01*
G01D02*
X-32630Y-114189D01*
G01X-34010Y-115369D02*
X-33480Y-115019D01*
G01X-35180Y-110759D02*
X-32110D01*
G01Y-110059D02*
X-35180D01*
G01X-32110Y-111449D02*
X-35180D01*
G01Y-106509D02*
Y-112179D01*
G01Y-112139D02*
X-32110D01*
G01X-35180Y-112179D02*
X-35240Y-112759D01*
G01X-32130Y-112839D02*
X-35270D01*
G01X-34590Y-115639D02*
X-34010Y-115369D01*
G01X-35240Y-112759D02*
X-35430Y-113319D01*
G01D02*
X-35730Y-113829D01*
G01X-35560Y-113529D02*
X-32280D01*
G01X-35460Y-115899D02*
X-34590Y-115639D01*
G01X-35730Y-113829D02*
X-36200Y-114199D01*
G01X-32670Y-114229D02*
X-36260D01*
G01X-36200Y-114199D02*
X-36730Y-114459D01*
G01D02*
X-37300Y-114619D01*
G01D02*
X-37900Y-114659D01*
G01D02*
X-39510D01*
G01D02*
X-39990Y-114609D01*
G01X-40460Y-114459D02*
X-40880Y-114229D01*
G01X-39990Y-114609D02*
X-40460Y-114459D01*
G01X-42030Y-112179D02*
Y-108989D01*
G01X-41850Y-113139D02*
X-42000Y-112669D01*
G01D02*
X-42030Y-112179D01*
G01X-40880Y-114229D02*
X-41240Y-113909D01*
G01D02*
X-41590Y-113559D01*
G01D02*
X-41850Y-113139D01*
G01X-42750Y-115639D02*
X-42070Y-115839D01*
G01X-42810Y-115619D02*
X-34540D01*
G01X-43400Y-115349D02*
X-42750Y-115639D01*
G01X-40870Y-114229D02*
X-44750D01*
G01X-44390Y-114679D02*
X-44000Y-114969D01*
G01D02*
X-43400Y-115349D01*
G01X-44070Y-114919D02*
X-33380D01*
G01X-42030Y-110059D02*
X-45100D01*
G01Y-110759D02*
X-42030D01*
G01Y-111449D02*
X-45100D01*
G01Y-112139D02*
X-42030D01*
G01X-45100Y-108989D02*
Y-112919D01*
G01D02*
X-45070Y-113409D01*
G01X-41940Y-112839D02*
X-45100D01*
G01X-45070Y-113409D02*
X-44930Y-113879D01*
G01D02*
X-44700Y-114309D01*
G01D02*
X-44390Y-114679D01*
G01X-45030Y-113529D02*
X-41610D01*
G01X-25470Y-110759D02*
X-28800D01*
G01Y-110059D02*
X-15100D01*
G01X-28800Y-111449D02*
X-25500D01*
G01Y-112139D02*
X-28800D01*
G01Y-112839D02*
X-25500D01*
G01Y-113529D02*
X-28800D01*
G01Y-114229D02*
X-25500D01*
G01Y-114919D02*
X-28800D01*
G01Y-115619D02*
X-25500D01*
G01X-28800Y-103319D02*
Y-116069D01*
G01X-27700Y-123869D02*
X-29980Y-120559D01*
G01D02*
X-30460D01*
G01D02*
Y-123869D01*
G01X-33120Y-121019D02*
X-33280Y-120859D01*
G01D02*
X-33470Y-120729D01*
G01X-32820Y-121859D02*
X-32840Y-121629D01*
G01D02*
X-32900Y-121419D01*
G01D02*
X-32990Y-121209D01*
G01D02*
X-33120Y-121019D01*
G01X-32820Y-122549D02*
Y-121859D01*
G01X-32840Y-122759D02*
X-32820Y-122549D01*
G01X-33360Y-123619D02*
X-33210Y-123479D01*
G01D02*
X-33070Y-123329D01*
G01D02*
X-32960Y-123149D01*
G01D02*
X-32880Y-122959D01*
G01D02*
X-32840Y-122759D01*
G01X-33470Y-120729D02*
X-33680Y-120639D01*
G01D02*
X-33890Y-120579D01*
G01D02*
X-34120Y-120559D01*
G01X-34140Y-123869D02*
X-33930Y-123849D01*
G01D02*
X-33730Y-123809D01*
G01D02*
X-33540Y-123729D01*
G01D02*
X-33360Y-123619D01*
G01X-34120Y-120559D02*
X-34860D01*
G01D02*
X-35080Y-120579D01*
G01X-35280Y-123789D02*
X-35060Y-123849D01*
G01D02*
X-34840Y-123869D01*
G01D02*
X-34140D01*
G01X-35080Y-120579D02*
X-35290Y-120639D01*
G01D02*
X-35490Y-120729D01*
G01D02*
X-35680Y-120859D01*
G01D02*
X-35830Y-121009D01*
G01D02*
X-35960Y-121189D01*
G01D02*
X-36050Y-121399D01*
G01D02*
X-36110Y-121609D01*
G01D02*
X-36130Y-121829D01*
G01D02*
Y-122579D01*
G01D02*
X-36110Y-122799D01*
G01D02*
X-36050Y-123019D01*
G01D02*
X-35960Y-123219D01*
G01D02*
X-35830Y-123409D01*
G01D02*
X-35670Y-123569D01*
G01D02*
X-35490Y-123699D01*
G01D02*
X-35280Y-123789D01*
G01X-36360Y-116039D02*
X-35460Y-115899D01*
G01X-37270Y-116069D02*
X-36360Y-116039D01*
G01X-40020Y-116069D02*
X-37270D01*
G01X-40210Y-120579D02*
X-40000Y-120559D01*
G01D02*
X-38250D01*
G01Y-123869D02*
X-40000D01*
G01D02*
X-40190Y-123849D01*
G01D02*
X-40370Y-123799D01*
G01X-41050Y-116009D02*
X-40020Y-116069D01*
G01X-40420Y-120639D02*
X-40210Y-120579D01*
G01X-40770Y-120879D02*
X-40610Y-120739D01*
G01D02*
X-40420Y-120639D01*
G01X-41090Y-121649D02*
X-41070Y-121439D01*
G01D02*
X-41010Y-121229D01*
G01D02*
X-40910Y-121039D01*
G01D02*
X-40770Y-120879D01*
G01X-41090Y-122779D02*
Y-121649D01*
G01X-40370Y-123799D02*
X-40550Y-123719D01*
G01D02*
X-40700Y-123609D01*
G01D02*
X-40830Y-123479D01*
G01D02*
X-40940Y-123319D01*
G01D02*
X-41020Y-123149D01*
G01D02*
X-41070Y-122969D01*
G01D02*
X-41090Y-122779D01*
G01X-42070Y-115839D02*
X-41050Y-116009D01*
G01X-43690Y-120559D02*
Y-123869D01*
G01X-46280D02*
Y-120559D01*
G01D02*
X-46800D01*
G01X-28800Y-116069D02*
X-25500D01*
G01X-32320Y-105349D02*
X-32600Y-104829D01*
G01X-32110Y-106509D02*
X-32160Y-105919D01*
G01D02*
X-32320Y-105349D01*
G01X-32600Y-104829D02*
X-32980Y-104379D01*
G01D02*
X-33500Y-103939D01*
G01D02*
X-34080Y-103589D01*
G01D02*
X-34710Y-103319D01*
G01X-35220Y-106059D02*
X-35180Y-106509D01*
G01Y-106589D02*
X-32110D01*
G01X-32160Y-105899D02*
X-35270D01*
G01X-32110Y-107289D02*
X-35180D01*
G01Y-107979D02*
X-32110D01*
G01Y-108669D02*
X-35180D01*
G01Y-109369D02*
X-32110D01*
G01X-34710Y-103319D02*
X-35520Y-103039D01*
G01X-35930Y-104969D02*
X-35600Y-105269D01*
G01D02*
X-35360Y-105639D01*
G01D02*
X-35220Y-106059D01*
G01X-35680Y-105199D02*
X-32400D01*
G01X-35520Y-103039D02*
X-36370Y-102879D01*
G01X-36840Y-104419D02*
X-36360Y-104649D01*
G01D02*
X-35930Y-104969D01*
G01X-32870Y-104509D02*
X-36650D01*
G01X-36370Y-102879D02*
X-37230Y-102849D01*
G01X-37900Y-104259D02*
X-37360Y-104289D01*
G01D02*
X-36840Y-104419D01*
G01X-39350Y-104259D02*
X-37900D01*
G01X-37230Y-102849D02*
X-40340D01*
G01X-39920Y-104299D02*
X-39350Y-104259D01*
G01X-40340Y-102849D02*
X-41140Y-102879D01*
G01X-40970Y-104719D02*
X-40470Y-104449D01*
G01D02*
X-39920Y-104299D01*
G01X-41140Y-102879D02*
X-41940Y-103019D01*
G01X-41400Y-105089D02*
X-40970Y-104719D01*
G01X-41670Y-105399D02*
X-41400Y-105089D01*
G01X-42030Y-106549D02*
X-41990Y-106139D01*
G01D02*
X-41870Y-105749D01*
G01D02*
X-41670Y-105399D01*
G01X-42030Y-108989D02*
Y-106549D01*
G01X-35280Y-103119D02*
X-42230D01*
G01X-41940Y-103019D02*
X-42700Y-103279D01*
G01D02*
X-43410Y-103669D01*
G01X-43590Y-103819D02*
X-33710D01*
G01X-43410Y-103669D02*
X-44040Y-104179D01*
G01D02*
X-44410Y-104489D01*
G01X-40570Y-104509D02*
X-44420D01*
G01X-44410Y-104489D02*
X-44700Y-104869D01*
G01X-44930Y-105289D02*
X-45060Y-105749D01*
G01X-44700Y-104869D02*
X-44930Y-105289D01*
G01X-44880Y-105199D02*
X-41500D01*
G01X-45060Y-105749D02*
X-45100Y-106229D01*
G01X-41920Y-105899D02*
X-45070D01*
G01X-45100Y-106589D02*
X-42030D01*
G01Y-107289D02*
X-45100D01*
G01Y-107979D02*
X-42030D01*
G01X-45100Y-106229D02*
Y-108989D01*
G01D02*
X-42030D01*
G01D02*
X-45100D01*
G01X-42030Y-108669D02*
X-45100D01*
G01Y-109369D02*
X-42030D01*
G01X-28800Y-103819D02*
X-25500D01*
G01Y-103319D02*
X-28800D01*
G01X-25500Y-104509D02*
X-28800D01*
G01Y-105199D02*
X-25500D01*
G01Y-105899D02*
X-28800D01*
G01Y-106589D02*
X-25500D01*
G01Y-107289D02*
X-28800D01*
G01Y-107979D02*
X-25440D01*
G01X-28800Y-108669D02*
X-15100D01*
G01Y-109369D02*
X-28800D01*
G01X-8490Y-116069D02*
Y-105329D01*
G01X-11560Y-110759D02*
X-8490D01*
G01Y-110059D02*
X-11560D01*
G01X-8490Y-111449D02*
X-11560D01*
G01Y-112139D02*
X-8490D01*
G01Y-112839D02*
X-11560D01*
G01X-8490Y-114229D02*
X-11560D01*
G01Y-113529D02*
X-8490D01*
G01X-11560Y-114919D02*
X-8490D01*
G01Y-115619D02*
X-11560D01*
G01Y-103319D02*
Y-116069D01*
G01X-15100D02*
Y-103319D01*
G01X-19030Y-110199D02*
X-18820Y-110279D01*
G01D02*
X-18650Y-110409D01*
G01D02*
X-18520Y-110579D01*
G01D02*
X-18440Y-110779D01*
G01X-15100Y-110759D02*
X-18450D01*
G01X-18440Y-110779D02*
X-18410Y-110999D01*
G01Y-111449D02*
X-15100D01*
G01Y-112139D02*
X-18410D01*
G01Y-112839D02*
X-15100D01*
G01X-18410Y-114229D02*
X-15100D01*
G01Y-113529D02*
X-18410D01*
G01X-15100Y-114919D02*
X-18410D01*
G01Y-115619D02*
X-15100D01*
G01X-18410Y-110999D02*
Y-116069D01*
G01X-19240Y-110169D02*
X-19030Y-110199D01*
G01X-24920Y-110189D02*
X-24720Y-110169D01*
G01D02*
X-19240D01*
G01X-25110Y-110269D02*
X-24920Y-110189D01*
G01X-25470Y-110749D02*
X-25390Y-110559D01*
G01D02*
X-25270Y-110399D01*
G01D02*
X-25110Y-110269D01*
G01X-25500Y-110949D02*
X-25470Y-110749D01*
G01X-25500Y-116069D02*
Y-110949D01*
G01X-6600Y-120559D02*
X-8020D01*
G01D02*
Y-123869D01*
G01X-9430Y-120559D02*
X-8020D01*
G01X-11560Y-116069D02*
X-8490D01*
G01X-13120Y-120559D02*
X-11320D01*
G01Y-123869D02*
X-13090D01*
G01X-13790Y-120799D02*
X-13640Y-120699D01*
G01D02*
X-13480Y-120619D01*
G01D02*
X-13300Y-120579D01*
G01D02*
X-13120Y-120559D01*
G01X-13090Y-123869D02*
X-13280Y-123849D01*
G01D02*
X-13460Y-123809D01*
G01D02*
X-13630Y-123729D01*
G01D02*
X-13780Y-123619D01*
G01X-14100Y-121239D02*
X-14020Y-121079D01*
G01D02*
X-13920Y-120929D01*
G01D02*
X-13790Y-120799D01*
G01X-14160Y-121599D02*
X-14140Y-121419D01*
G01D02*
X-14100Y-121239D01*
G01X-14160Y-122799D02*
Y-121599D01*
G01X-13780Y-123619D02*
X-13910Y-123489D01*
G01D02*
X-14020Y-123329D01*
G01D02*
X-14100Y-123169D01*
G01D02*
X-14140Y-122989D01*
G01D02*
X-14160Y-122799D01*
G01X-16280Y-120559D02*
Y-122559D01*
G01X-16290D02*
X-16310Y-122789D01*
G01D02*
X-16370Y-123009D01*
G01D02*
X-16470Y-123209D01*
G01D02*
X-16600Y-123399D01*
G01D02*
X-16760Y-123559D01*
G01D02*
X-16940Y-123689D01*
G01D02*
X-17150Y-123789D01*
G01D02*
X-17370Y-123849D01*
G01D02*
X-17600Y-123869D01*
G01D02*
X-18120D01*
G01X-18410Y-116069D02*
X-15100D01*
G01X-18120Y-123869D02*
X-18340Y-123849D01*
G01D02*
X-18540Y-123799D01*
G01D02*
X-18740Y-123699D01*
G01D02*
X-18920Y-123579D01*
G01X-19350Y-122629D02*
Y-120559D01*
G01X-18920Y-123579D02*
X-19070Y-123429D01*
G01D02*
X-19190Y-123249D01*
G01D02*
X-19290Y-123049D01*
G01D02*
X-19340Y-122849D01*
G01D02*
X-19360Y-122629D01*
G01X-22360Y-120729D02*
X-22180Y-120859D01*
G01D02*
X-22020Y-121019D01*
G01D02*
X-21890Y-121199D01*
G01D02*
X-21800Y-121409D01*
G01D02*
X-21740Y-121629D01*
G01D02*
X-21720Y-121849D01*
G01D02*
Y-122559D01*
G01D02*
X-21740Y-122759D01*
G01D02*
X-21780Y-122959D01*
G01D02*
X-21860Y-123149D01*
G01D02*
X-21970Y-123329D01*
G01D02*
X-22100Y-123489D01*
G01D02*
X-22260Y-123619D01*
G01X-23010Y-120559D02*
X-22790Y-120579D01*
G01D02*
X-22570Y-120639D01*
G01D02*
X-22360Y-120729D01*
G01X-22260Y-123619D02*
X-22440Y-123729D01*
G01D02*
X-22630Y-123809D01*
G01D02*
X-22830Y-123849D01*
G01D02*
X-23030Y-123869D01*
G01X-24790Y-120559D02*
X-23010D01*
G01X-23030Y-123869D02*
X-24790D01*
G01D02*
Y-120559D01*
G01X-27150D02*
Y-123869D01*
G01D02*
X-27700D01*
G01X-7880Y-104529D02*
X-7660Y-104499D01*
G01D02*
X-6220D01*
G01X-5650Y-102849D02*
X-8620Y-102939D01*
G01X-8250Y-104739D02*
X-8070Y-104609D01*
G01D02*
X-7880Y-104529D01*
G01X-8490Y-105329D02*
X-8460Y-105109D01*
G01D02*
X-8380Y-104909D01*
G01D02*
X-8250Y-104739D01*
G01X-10010Y-103119D02*
X1140D01*
G01X-11560Y-103819D02*
X2720D01*
G01X-8620Y-102939D02*
X-11560Y-103319D01*
G01X-7740Y-104509D02*
X-11560D01*
G01Y-105199D02*
X-8470D01*
G01X-11560Y-106589D02*
X-8490D01*
G01Y-105899D02*
X-11560D01*
G01X-8490Y-107289D02*
X-11560D01*
G01Y-107979D02*
X-8490D01*
G01Y-108669D02*
X-11560D01*
G01Y-109369D02*
X-8490D01*
G01X-15100Y-103319D02*
X-18410D01*
G01Y-103819D02*
X-15100D01*
G01Y-104509D02*
X-18410D01*
G01Y-105199D02*
X-15100D01*
G01X-18410Y-106589D02*
X-15100D01*
G01Y-105899D02*
X-18410D01*
G01X-15100Y-107289D02*
X-18410D01*
G01Y-103319D02*
Y-107729D01*
G01D02*
X-18440Y-107929D01*
G01D02*
X-18520Y-108119D01*
G01X-18460Y-107979D02*
X-15100D01*
G01X-18520Y-108119D02*
X-18640Y-108289D01*
G01D02*
X-18800Y-108409D01*
G01D02*
X-18990Y-108489D01*
G01D02*
X-19190Y-108509D01*
G01D02*
X-24690D01*
G01D02*
X-24900Y-108489D01*
G01D02*
X-25090Y-108409D01*
G01D02*
X-25260Y-108279D01*
G01D02*
X-25390Y-108109D01*
G01D02*
X-25470Y-107919D01*
G01D02*
X-25500Y-107709D01*
G01D02*
Y-103319D01*
G01X-2110Y-110059D02*
X-5420D01*
G01Y-110759D02*
X-2110D01*
G01Y-111449D02*
X-5420D01*
G01Y-112139D02*
X-2110D01*
G01Y-112839D02*
X-5420D01*
G01Y-113529D02*
X-2110D01*
G01Y-114229D02*
X-5420D01*
G01Y-114919D02*
X-2110D01*
G01Y-115619D02*
X-5420D01*
G01Y-105299D02*
Y-116069D01*
G01X4030D02*
Y-106109D01*
G01Y-110059D02*
X960D01*
G01Y-110759D02*
X4030D01*
G01Y-111449D02*
X960D01*
G01Y-112139D02*
X4030D01*
G01Y-112839D02*
X960D01*
G01Y-113529D02*
X4030D01*
G01Y-114229D02*
X960D01*
G01Y-114919D02*
X4030D01*
G01Y-115619D02*
X960D01*
G01Y-105759D02*
Y-116069D01*
G01X-2110D02*
Y-105309D01*
G01X-4180Y-121019D02*
X-4310Y-121199D01*
G01D02*
X-4400Y-121409D01*
G01D02*
X-4460Y-121629D01*
G01D02*
X-4480Y-121849D01*
G01X-4470D02*
Y-122559D01*
G01D02*
X-4450Y-122759D01*
G01D02*
X-4410Y-122959D01*
G01D02*
X-4330Y-123149D01*
G01D02*
X-4220Y-123329D01*
G01X-5420Y-116069D02*
X-2110D01*
G01X3970Y-121049D02*
X4010Y-121199D01*
G01D02*
X4030Y-121359D01*
G01D02*
X4010Y-121529D01*
G01X3230Y-120559D02*
X3390Y-120579D01*
G01D02*
X3540Y-120619D01*
G01D02*
X3670Y-120689D01*
G01D02*
X3800Y-120789D01*
G01D02*
X3900Y-120919D01*
G01D02*
X3970Y-121049D01*
G01X4010Y-121529D02*
X3960Y-121689D01*
G01D02*
X3890Y-121839D01*
G01D02*
X3780Y-121969D01*
G01D02*
X3650Y-122079D01*
G01D02*
X3500Y-122149D01*
G01D02*
X3340Y-122199D01*
G01D02*
X3170Y-122219D01*
G01D02*
X2890D01*
G01X3790Y-123869D02*
X2890Y-122219D01*
G01X960Y-116069D02*
X4030D01*
G01X960Y-120559D02*
X3230D01*
G01X2890Y-122219D02*
X960D01*
G01Y-120559D02*
Y-122219D01*
G01D02*
Y-123869D01*
G01X-1170Y-121839D02*
X-1190Y-121619D01*
G01X-1170Y-122569D02*
Y-121839D01*
G01X-1190Y-122799D02*
X-1170Y-122569D01*
G01X-1190Y-121619D02*
X-1250Y-121399D01*
G01D02*
X-1340Y-121199D01*
G01D02*
X-1470Y-121019D01*
G01D02*
X-1630Y-120859D01*
G01D02*
X-1810Y-120729D01*
G01X-1820Y-123699D02*
X-1630Y-123569D01*
G01D02*
X-1470Y-123409D01*
G01D02*
X-1340Y-123219D01*
G01D02*
X-1250Y-123009D01*
G01D02*
X-1190Y-122799D01*
G01X-1810Y-120729D02*
X-2010Y-120639D01*
G01D02*
X-2230Y-120579D01*
G01D02*
X-2450Y-120559D01*
G01X-2470Y-123869D02*
X-2240Y-123849D01*
G01D02*
X-2030Y-123789D01*
G01D02*
X-1820Y-123699D01*
G01X-2450Y-120559D02*
X-3190D01*
G01D02*
X-3410Y-120579D01*
G01D02*
X-3630Y-120639D01*
G01X-3560Y-123809D02*
X-3360Y-123849D01*
G01D02*
X-3160Y-123869D01*
G01D02*
X-2470D01*
G01X-3630Y-120639D02*
X-3830Y-120729D01*
G01D02*
X-4020Y-120859D01*
G01D02*
X-4180Y-121019D01*
G01X-4220Y-123329D02*
X-4090Y-123489D01*
G01D02*
X-3930Y-123619D01*
G01D02*
X-3750Y-123729D01*
G01D02*
X-3560Y-123809D01*
G01X-5440Y-105089D02*
X-5420Y-105299D01*
G01X-5430Y-105199D02*
X-2100D01*
G01X-2110Y-105899D02*
X-5420D01*
G01Y-106589D02*
X-2110D01*
G01Y-107289D02*
X-5420D01*
G01Y-107979D02*
X-2110D01*
G01Y-108669D02*
X-5420D01*
G01Y-109369D02*
X-2110D01*
G01X-1320Y-102849D02*
X-5650D01*
G01X-6220Y-104499D02*
X-6010Y-104529D01*
G01D02*
X-5820Y-104609D01*
G01D02*
X-5650Y-104729D01*
G01D02*
X-5530Y-104899D01*
G01D02*
X-5440Y-105089D01*
G01X-1380Y-104509D02*
X-6140D01*
G01X4030Y-106109D02*
X3980Y-105559D01*
G01D02*
X3820Y-105029D01*
G01D02*
X3540Y-104549D01*
G01D02*
X3160Y-104139D01*
G01D02*
X2510Y-103659D01*
G01D02*
X1780Y-103299D01*
G01D02*
X1000Y-103079D01*
G01X670Y-104939D02*
X830Y-105179D01*
G01D02*
X930Y-105459D01*
G01X840Y-105199D02*
X3870D01*
G01X930Y-105459D02*
X960Y-105759D01*
G01X4010Y-105899D02*
X960D01*
G01Y-106589D02*
X4030D01*
G01Y-107289D02*
X960D01*
G01Y-107979D02*
X4030D01*
G01Y-108669D02*
X960D01*
G01Y-109369D02*
X4030D01*
G01X1000Y-103079D02*
X-160Y-102909D01*
G01X-30Y-104569D02*
X450Y-104739D01*
G01D02*
X670Y-104939D01*
G01X-540Y-104499D02*
X-30Y-104569D01*
G01X3500Y-104509D02*
X-460D01*
G01X-160Y-102909D02*
X-1320Y-102849D01*
G01X-1870Y-104739D02*
X-1700Y-104609D01*
G01D02*
X-1510Y-104529D01*
G01D02*
X-1300Y-104499D01*
G01D02*
X-540D01*
G01X-2000Y-104899D02*
X-1870Y-104739D01*
G01X-2110Y-105309D02*
X-2080Y-105099D01*
G01D02*
X-2000Y-104899D01*
G54D15*
G01X-107000Y-146969D02*
Y-71969D01*
X438000D01*
Y-146969D01*
X-107000D01*
G01X-55145Y-110879D02*
G03I-355J0D01*
G01Y-110059D02*
G03I-355J0D01*
G01Y-110759D02*
G03I-355J0D01*
G01X-54655Y-111449D02*
G03I-355J0D01*
G01X-57265Y-110059D02*
G03I-355J0D01*
G01Y-110759D02*
G03I-355J0D01*
G01Y-111449D02*
G03I-355J0D01*
G01Y-112139D02*
G03I-355J0D01*
G01Y-113529D02*
G03I-355J0D01*
G01Y-112839D02*
G03I-355J0D01*
G01Y-114229D02*
G03I-355J0D01*
G01Y-114919D02*
G03I-355J0D01*
G01Y-115619D02*
G03I-355J0D01*
G01X-60575Y-110759D02*
G03I-355J0D01*
G01Y-110059D02*
G03I-355J0D01*
G01Y-111449D02*
G03I-355J0D01*
G01Y-112139D02*
G03I-355J0D01*
G01Y-112839D02*
G03I-355J0D01*
G01Y-114229D02*
G03I-355J0D01*
G01Y-113529D02*
G03I-355J0D01*
G01Y-114919D02*
G03I-355J0D01*
G01Y-115619D02*
G03I-355J0D01*
G01X-48085Y-114919D02*
G03I-355J0D01*
G01X-48845Y-109969D02*
G03I-355J0D01*
G01X-49445Y-110309D02*
G03I-355J0D01*
G01X-49005Y-110059D02*
G03I-355J0D01*
G01X-49345Y-113529D02*
G03I-355J0D01*
G01X-48715Y-114229D02*
G03I-355J0D01*
G01X-50105Y-110549D02*
G03I-355J0D01*
G01X-49975Y-112839D02*
G03I-355J0D01*
G01X-50785Y-110669D02*
G03I-355J0D01*
G01X-50615Y-112139D02*
G03I-355J0D01*
G01X-51085Y-115619D02*
G03I-355J0D01*
G01X-51485Y-110679D02*
G03I-355J0D01*
G01Y-110759D02*
G03I-355J0D01*
G01Y-111189D02*
G03I-355J0D01*
G01X-51245Y-111449D02*
G03I-355J0D01*
G01X-51675Y-114919D02*
G03I-355J0D01*
G01X-52865Y-113529D02*
G03I-355J0D01*
G01X-52275Y-114229D02*
G03I-355J0D01*
G01X-53465Y-112839D02*
G03I-355J0D01*
G01X-54055Y-112139D02*
G03I-355J0D01*
G01X-54505Y-120639D02*
G03I-355J0D01*
G01X-54605Y-123729D02*
G03I-355J0D01*
G01X-54685Y-120729D02*
G03I-355J0D01*
G01X-54835Y-120859D02*
G03I-355J0D01*
G01X-54965Y-121009D02*
G03I-355J0D01*
G01X-55055Y-121189D02*
G03I-355J0D01*
G01X-55115Y-121379D02*
G03I-355J0D01*
G01X-55135Y-121579D02*
G03I-355J0D01*
G01X-55145D02*
G03I-355J0D01*
G01X-55135Y-122809D02*
G03I-355J0D01*
G01X-55145D02*
G03I-355J0D01*
G01Y-122219D02*
G03I-355J0D01*
G01D02*
G03I-355J0D01*
G01X-54755Y-123619D02*
G03I-355J0D01*
G01X-54885Y-123489D02*
G03I-355J0D01*
G01X-54995Y-123339D02*
G03I-355J0D01*
G01X-55075Y-123169D02*
G03I-355J0D01*
G01X-55115Y-122989D02*
G03I-355J0D01*
G01X-57265Y-116069D02*
G03I-355J0D01*
G01Y-120559D02*
G03I-355J0D01*
G01X-57905Y-122229D02*
G03I-355J0D01*
G01X-57755Y-122269D02*
G03I-355J0D01*
G01X-57625Y-122339D02*
G03I-355J0D01*
G01X-57495Y-122439D02*
G03I-355J0D01*
G01X-57395Y-122569D02*
G03I-355J0D01*
G01X-57325Y-122699D02*
G03I-355J0D01*
G01X-57285Y-122849D02*
G03I-355J0D01*
G01X-57265Y-123009D02*
G03I-355J0D01*
G01X-57285Y-123179D02*
G03I-355J0D01*
G01X-57335Y-123339D02*
G03I-355J0D01*
G01X-57405Y-123489D02*
G03I-355J0D01*
G01X-57515Y-123619D02*
G03I-355J0D01*
G01X-57645Y-123729D02*
G03I-355J0D01*
G01X-57795Y-123799D02*
G03I-355J0D01*
G01X-57955Y-123849D02*
G03I-355J0D01*
G01X-58065Y-122219D02*
G03I-355J0D01*
G01Y-122209D02*
G03I-355J0D01*
G01X-58125Y-123869D02*
G03I-355J0D01*
G01X-59685Y-122209D02*
G03I-355J0D01*
G01Y-122219D02*
G03I-355J0D01*
G01X-60575Y-116069D02*
G03I-355J0D01*
G01X-59815Y-120559D02*
G03I-355J0D01*
G01X-59985Y-120579D02*
G03I-355J0D01*
G01X-60145Y-120639D02*
G03I-355J0D01*
G01X-60285Y-120729D02*
G03I-355J0D01*
G01X-60405Y-120849D02*
G03I-355J0D01*
G01X-60495Y-120989D02*
G03I-355J0D01*
G01X-60555Y-121149D02*
G03I-355J0D01*
G01X-60575Y-121319D02*
G03I-355J0D01*
G01X-60555Y-121489D02*
G03I-355J0D01*
G01X-60505Y-121659D02*
G03I-355J0D01*
G01X-60425Y-121809D02*
G03I-355J0D01*
G01X-60315Y-121949D02*
G03I-355J0D01*
G01X-60175Y-122059D02*
G03I-355J0D01*
G01X-60025Y-122139D02*
G03I-355J0D01*
G01X-59855Y-122189D02*
G03I-355J0D01*
G01X-60575Y-123869D02*
G03I-355J0D01*
G01X-47855D02*
G03I-355J0D01*
G01X-49395Y-120559D02*
G03I-355J0D01*
G01X-49945D02*
G03I-355J0D01*
G01Y-123869D02*
G03I-355J0D01*
G01X-50695Y-116069D02*
G03I-355J0D01*
G01X-52305Y-120559D02*
G03I-355J0D01*
G01Y-122219D02*
G03I-355J0D01*
G01Y-123869D02*
G03I-355J0D01*
G01X-54115Y-120559D02*
G03I-355J0D01*
G01X-54315Y-120579D02*
G03I-355J0D01*
G01X-54075Y-123869D02*
G03I-355J0D01*
G01X-54255Y-123849D02*
G03I-355J0D01*
G01X-54435Y-123809D02*
G03I-355J0D01*
G01X-55145Y-109459D02*
G03I-355J0D01*
G01X-56085Y-102849D02*
G03I-355J0D01*
G01X-56495Y-104259D02*
G03I-355J0D01*
G01X-56695Y-104289D02*
G03I-355J0D01*
G01X-56875Y-104369D02*
G03I-355J0D01*
G01X-57045Y-104489D02*
G03I-355J0D01*
G01X-57165Y-104649D02*
G03I-355J0D01*
G01X-57055Y-104509D02*
G03I-355J0D01*
G01X-57245Y-104839D02*
G03I-355J0D01*
G01X-57265Y-105039D02*
G03I-355J0D01*
G01Y-105899D02*
G03I-355J0D01*
G01Y-105199D02*
G03I-355J0D01*
G01Y-106589D02*
G03I-355J0D01*
G01Y-107289D02*
G03I-355J0D01*
G01Y-107979D02*
G03I-355J0D01*
G01Y-108669D02*
G03I-355J0D01*
G01Y-109369D02*
G03I-355J0D01*
G01X-58335Y-102989D02*
G03I-355J0D01*
G01X-59235Y-103119D02*
G03I-355J0D01*
G01X-60575Y-103319D02*
G03I-355J0D01*
G01D02*
G03I-355J0D01*
G01Y-103819D02*
G03I-355J0D01*
G01Y-104509D02*
G03I-355J0D01*
G01Y-105199D02*
G03I-355J0D01*
G01Y-106589D02*
G03I-355J0D01*
G01Y-105899D02*
G03I-355J0D01*
G01Y-107289D02*
G03I-355J0D01*
G01Y-107979D02*
G03I-355J0D01*
G01Y-108669D02*
G03I-355J0D01*
G01Y-109369D02*
G03I-355J0D01*
G01X-48295Y-104499D02*
G03I-355J0D01*
G01X-48075Y-104809D02*
G03I-355J0D01*
G01X-48285Y-104509D02*
G03I-355J0D01*
G01X-47925Y-105159D02*
G03I-355J0D01*
G01X-47835Y-105539D02*
G03I-355J0D01*
G01X-47815Y-105919D02*
G03I-355J0D01*
G01X-47915Y-105199D02*
G03I-355J0D01*
G01X-47815Y-105899D02*
G03I-355J0D01*
G01Y-106589D02*
G03I-355J0D01*
G01Y-107289D02*
G03I-355J0D01*
G01Y-107919D02*
G03I-355J0D01*
G01X-47855Y-108399D02*
G03I-355J0D01*
G01X-47825Y-107979D02*
G03I-355J0D01*
G01X-47975Y-108859D02*
G03I-355J0D01*
G01X-47925Y-108669D02*
G03I-355J0D01*
G01X-48195Y-109279D02*
G03I-355J0D01*
G01X-48485Y-109659D02*
G03I-355J0D01*
G01X-48255Y-109369D02*
G03I-355J0D01*
G01X-49195Y-103619D02*
G03I-355J0D01*
G01X-48705Y-104019D02*
G03I-355J0D01*
G01X-48955Y-103819D02*
G03I-355J0D01*
G01X-49745Y-103319D02*
G03I-355J0D01*
G01X-50665Y-103119D02*
G03I-355J0D01*
G01X-51095Y-105419D02*
G03I-355J0D01*
G01X-50885Y-106269D02*
G03I-355J0D01*
G01X-50945Y-105829D02*
G03I-355J0D01*
G01X-50935Y-105899D02*
G03I-355J0D01*
G01X-50885Y-106589D02*
G03I-355J0D01*
G01Y-107369D02*
G03I-355J0D01*
G01Y-107289D02*
G03I-355J0D01*
G01X-51055Y-108229D02*
G03I-355J0D01*
G01X-50935Y-107809D02*
G03I-355J0D01*
G01X-50985Y-107979D02*
G03I-355J0D01*
G01X-51385Y-102969D02*
G03I-355J0D01*
G01X-51635Y-104739D02*
G03I-355J0D01*
G01X-51225Y-105199D02*
G03I-355J0D01*
G01X-51325Y-105049D02*
G03I-355J0D01*
G01X-51705Y-108999D02*
G03I-355J0D01*
G01X-51245Y-108629D02*
G03I-355J0D01*
G01X-51295Y-108669D02*
G03I-355J0D01*
G01X-52275Y-104449D02*
G03I-355J0D01*
G01X-52145Y-104509D02*
G03I-355J0D01*
G01X-52785Y-109419D02*
G03I-355J0D01*
G01X-52225Y-109269D02*
G03I-355J0D01*
G01X-52595Y-109369D02*
G03I-355J0D01*
G01X-53055Y-102849D02*
G03I-355J0D01*
G01X-52955Y-104289D02*
G03I-355J0D01*
G01X-53645Y-104259D02*
G03I-355J0D01*
G01X-53365Y-109459D02*
G03I-355J0D01*
G01X-31755Y-110059D02*
G03I-355J0D01*
G01Y-110759D02*
G03I-355J0D01*
G01Y-111449D02*
G03I-355J0D01*
G01Y-112649D02*
G03I-355J0D01*
G01Y-112139D02*
G03I-355J0D01*
G01X-31805Y-113199D02*
G03I-355J0D01*
G01X-31775Y-112839D02*
G03I-355J0D01*
G01X-32275Y-114189D02*
G03I-355J0D01*
G01X-31985Y-113719D02*
G03I-355J0D01*
G01X-32315Y-114229D02*
G03I-355J0D01*
G01X-31925Y-113529D02*
G03I-355J0D01*
G01X-33125Y-115019D02*
G03I-355J0D01*
G01X-32665Y-114579D02*
G03I-355J0D01*
G01X-33025Y-114919D02*
G03I-355J0D01*
G01X-33655Y-115369D02*
G03I-355J0D01*
G01X-34825Y-110759D02*
G03I-355J0D01*
G01Y-110059D02*
G03I-355J0D01*
G01Y-111449D02*
G03I-355J0D01*
G01Y-112179D02*
G03I-355J0D01*
G01Y-112139D02*
G03I-355J0D01*
G01X-34885Y-112759D02*
G03I-355J0D01*
G01X-34915Y-112839D02*
G03I-355J0D01*
G01X-34235Y-115639D02*
G03I-355J0D01*
G01X-34185Y-115619D02*
G03I-355J0D01*
G01X-35075Y-113319D02*
G03I-355J0D01*
G01X-35375Y-113829D02*
G03I-355J0D01*
G01X-35845Y-114199D02*
G03I-355J0D01*
G01X-35205Y-113529D02*
G03I-355J0D01*
G01X-35905Y-114229D02*
G03I-355J0D01*
G01X-36375Y-114459D02*
G03I-355J0D01*
G01X-36945Y-114619D02*
G03I-355J0D01*
G01X-37545Y-114659D02*
G03I-355J0D01*
G01X-39155D02*
G03I-355J0D01*
G01X-39635Y-114609D02*
G03I-355J0D01*
G01X-40105Y-114459D02*
G03I-355J0D01*
G01X-40525Y-114229D02*
G03I-355J0D01*
G01X-40885Y-113909D02*
G03I-355J0D01*
G01X-40515Y-114229D02*
G03I-355J0D01*
G01X-41675Y-110059D02*
G03I-355J0D01*
G01Y-110759D02*
G03I-355J0D01*
G01Y-111449D02*
G03I-355J0D01*
G01Y-112179D02*
G03I-355J0D01*
G01Y-112139D02*
G03I-355J0D01*
G01X-41495Y-113139D02*
G03I-355J0D01*
G01X-41645Y-112669D02*
G03I-355J0D01*
G01X-41585Y-112839D02*
G03I-355J0D01*
G01X-41235Y-113559D02*
G03I-355J0D01*
G01X-41255Y-113529D02*
G03I-355J0D01*
G01X-42395Y-115639D02*
G03I-355J0D01*
G01X-42455Y-115619D02*
G03I-355J0D01*
G01X-43045Y-115349D02*
G03I-355J0D01*
G01X-44345Y-114309D02*
G03I-355J0D01*
G01X-44395Y-114229D02*
G03I-355J0D01*
G01X-44035Y-114679D02*
G03I-355J0D01*
G01X-43645Y-114969D02*
G03I-355J0D01*
G01X-43715Y-114919D02*
G03I-355J0D01*
G01X-44745Y-110059D02*
G03I-355J0D01*
G01Y-110759D02*
G03I-355J0D01*
G01Y-111449D02*
G03I-355J0D01*
G01Y-112139D02*
G03I-355J0D01*
G01Y-112919D02*
G03I-355J0D01*
G01X-44715Y-113409D02*
G03I-355J0D01*
G01X-44745Y-112839D02*
G03I-355J0D01*
G01X-44575Y-113879D02*
G03I-355J0D01*
G01X-44675Y-113529D02*
G03I-355J0D01*
G01X-47445Y-115619D02*
G03I-355J0D01*
G01X-28445Y-110059D02*
G03I-355J0D01*
G01Y-110759D02*
G03I-355J0D01*
G01Y-111449D02*
G03I-355J0D01*
G01Y-112139D02*
G03I-355J0D01*
G01Y-112839D02*
G03I-355J0D01*
G01Y-113529D02*
G03I-355J0D01*
G01Y-114229D02*
G03I-355J0D01*
G01Y-114919D02*
G03I-355J0D01*
G01Y-115619D02*
G03I-355J0D01*
G01X-29625Y-120559D02*
G03I-355J0D01*
G01X-30105D02*
G03I-355J0D01*
G01Y-123869D02*
G03I-355J0D01*
G01X-32765Y-121019D02*
G03I-355J0D01*
G01X-32925Y-120859D02*
G03I-355J0D01*
G01X-33115Y-120729D02*
G03I-355J0D01*
G01X-32465Y-121859D02*
G03I-355J0D01*
G01X-32485Y-121629D02*
G03I-355J0D01*
G01X-32545Y-121419D02*
G03I-355J0D01*
G01X-32635Y-121209D02*
G03I-355J0D01*
G01X-32465Y-122549D02*
G03I-355J0D01*
G01X-32525Y-122959D02*
G03I-355J0D01*
G01X-32485Y-122759D02*
G03I-355J0D01*
G01X-32465Y-122549D02*
G03I-355J0D01*
G01X-33185Y-123729D02*
G03I-355J0D01*
G01X-33005Y-123619D02*
G03I-355J0D01*
G01X-32855Y-123479D02*
G03I-355J0D01*
G01X-32715Y-123329D02*
G03I-355J0D01*
G01X-32605Y-123149D02*
G03I-355J0D01*
G01X-33325Y-120639D02*
G03I-355J0D01*
G01X-33535Y-120579D02*
G03I-355J0D01*
G01X-33765Y-120559D02*
G03I-355J0D01*
G01X-33785Y-123869D02*
G03I-355J0D01*
G01X-33575Y-123849D02*
G03I-355J0D01*
G01X-33375Y-123809D02*
G03I-355J0D01*
G01X-34505Y-120559D02*
G03I-355J0D01*
G01X-34725Y-120579D02*
G03I-355J0D01*
G01X-34935Y-120639D02*
G03I-355J0D01*
G01X-34925Y-123789D02*
G03I-355J0D01*
G01X-34705Y-123849D02*
G03I-355J0D01*
G01X-34485Y-123869D02*
G03I-355J0D01*
G01X-35105Y-115899D02*
G03I-355J0D01*
G01X-35135Y-120729D02*
G03I-355J0D01*
G01X-35325Y-120859D02*
G03I-355J0D01*
G01X-35475Y-121009D02*
G03I-355J0D01*
G01X-35605Y-121189D02*
G03I-355J0D01*
G01X-35695Y-121399D02*
G03I-355J0D01*
G01X-35755Y-121609D02*
G03I-355J0D01*
G01X-35775Y-121829D02*
G03I-355J0D01*
G01Y-122579D02*
G03I-355J0D01*
G01X-35755Y-122799D02*
G03I-355J0D01*
G01X-35695Y-123019D02*
G03I-355J0D01*
G01X-35605Y-123219D02*
G03I-355J0D01*
G01X-35475Y-123409D02*
G03I-355J0D01*
G01X-35315Y-123569D02*
G03I-355J0D01*
G01X-35135Y-123699D02*
G03I-355J0D01*
G01X-36005Y-116039D02*
G03I-355J0D01*
G01X-36915Y-116069D02*
G03I-355J0D01*
G01X-37895Y-120559D02*
G03I-355J0D01*
G01Y-123869D02*
G03I-355J0D01*
G01X-39665Y-116069D02*
G03I-355J0D01*
G01X-40065Y-120639D02*
G03I-355J0D01*
G01X-39855Y-120579D02*
G03I-355J0D01*
G01X-39645Y-120559D02*
G03I-355J0D01*
G01Y-123869D02*
G03I-355J0D01*
G01X-39835Y-123849D02*
G03I-355J0D01*
G01X-40015Y-123799D02*
G03I-355J0D01*
G01X-40695Y-116009D02*
G03I-355J0D01*
G01X-40555Y-121039D02*
G03I-355J0D01*
G01X-40415Y-120879D02*
G03I-355J0D01*
G01X-40255Y-120739D02*
G03I-355J0D01*
G01X-40735Y-121649D02*
G03I-355J0D01*
G01X-40715Y-121439D02*
G03I-355J0D01*
G01X-40655Y-121229D02*
G03I-355J0D01*
G01X-40735Y-122779D02*
G03I-355J0D01*
G01X-40195Y-123719D02*
G03I-355J0D01*
G01X-40345Y-123609D02*
G03I-355J0D01*
G01X-40475Y-123479D02*
G03I-355J0D01*
G01X-40585Y-123319D02*
G03I-355J0D01*
G01X-40665Y-123149D02*
G03I-355J0D01*
G01X-40715Y-122969D02*
G03I-355J0D01*
G01X-41715Y-115839D02*
G03I-355J0D01*
G01X-43335Y-120559D02*
G03I-355J0D01*
G01Y-123869D02*
G03I-355J0D01*
G01X-45925Y-120559D02*
G03I-355J0D01*
G01Y-123869D02*
G03I-355J0D01*
G01X-46445Y-120559D02*
G03I-355J0D01*
G01X-47035Y-116069D02*
G03I-355J0D01*
G01X-28445D02*
G03I-355J0D01*
G01X-32245Y-104829D02*
G03I-355J0D01*
G01X-31965Y-105349D02*
G03I-355J0D01*
G01X-32045Y-105199D02*
G03I-355J0D01*
G01X-31755Y-106509D02*
G03I-355J0D01*
G01X-31805Y-105919D02*
G03I-355J0D01*
G01X-31755Y-106589D02*
G03I-355J0D01*
G01X-31805Y-105899D02*
G03I-355J0D01*
G01X-31755Y-107289D02*
G03I-355J0D01*
G01Y-107979D02*
G03I-355J0D01*
G01Y-108669D02*
G03I-355J0D01*
G01Y-109369D02*
G03I-355J0D01*
G01X-33145Y-103939D02*
G03I-355J0D01*
G01X-32625Y-104379D02*
G03I-355J0D01*
G01X-32515Y-104509D02*
G03I-355J0D01*
G01X-33725Y-103589D02*
G03I-355J0D01*
G01X-33355Y-103819D02*
G03I-355J0D01*
G01X-34925Y-103119D02*
G03I-355J0D01*
G01X-34355Y-103319D02*
G03I-355J0D01*
G01X-35005Y-105639D02*
G03I-355J0D01*
G01X-34865Y-106059D02*
G03I-355J0D01*
G01X-34825Y-106509D02*
G03I-355J0D01*
G01Y-106589D02*
G03I-355J0D01*
G01X-34915Y-105899D02*
G03I-355J0D01*
G01X-34825Y-107289D02*
G03I-355J0D01*
G01Y-107979D02*
G03I-355J0D01*
G01Y-108669D02*
G03I-355J0D01*
G01Y-109369D02*
G03I-355J0D01*
G01X-35165Y-103039D02*
G03I-355J0D01*
G01X-35575Y-104969D02*
G03I-355J0D01*
G01X-35245Y-105269D02*
G03I-355J0D01*
G01X-35325Y-105199D02*
G03I-355J0D01*
G01X-36015Y-102879D02*
G03I-355J0D01*
G01X-36485Y-104419D02*
G03I-355J0D01*
G01X-36005Y-104649D02*
G03I-355J0D01*
G01X-36295Y-104509D02*
G03I-355J0D01*
G01X-36875Y-102849D02*
G03I-355J0D01*
G01X-37545Y-104259D02*
G03I-355J0D01*
G01X-37005Y-104289D02*
G03I-355J0D01*
G01X-38995Y-104259D02*
G03I-355J0D01*
G01X-39985Y-102849D02*
G03I-355J0D01*
G01X-40115Y-104449D02*
G03I-355J0D01*
G01X-39565Y-104299D02*
G03I-355J0D01*
G01X-40785Y-102879D02*
G03I-355J0D01*
G01X-40615Y-104719D02*
G03I-355J0D01*
G01X-40215Y-104509D02*
G03I-355J0D01*
G01X-41585Y-103019D02*
G03I-355J0D01*
G01X-41045Y-105089D02*
G03I-355J0D01*
G01D02*
G03I-355J0D01*
G01X-41145Y-105199D02*
G03I-355J0D01*
G01X-41515Y-105749D02*
G03I-355J0D01*
G01X-41315Y-105399D02*
G03I-355J0D01*
G01X-41675Y-106549D02*
G03I-355J0D01*
G01X-41635Y-106139D02*
G03I-355J0D01*
G01X-41565Y-105899D02*
G03I-355J0D01*
G01X-41675Y-106589D02*
G03I-355J0D01*
G01Y-107289D02*
G03I-355J0D01*
G01Y-107979D02*
G03I-355J0D01*
G01Y-108989D02*
G03I-355J0D01*
G01D02*
G03I-355J0D01*
G01D02*
G03I-355J0D01*
G01Y-108669D02*
G03I-355J0D01*
G01Y-109369D02*
G03I-355J0D01*
G01X-41875Y-103119D02*
G03I-355J0D01*
G01X-42345Y-103279D02*
G03I-355J0D01*
G01X-43055Y-103669D02*
G03I-355J0D01*
G01X-43235Y-103819D02*
G03I-355J0D01*
G01X-43685Y-104179D02*
G03I-355J0D01*
G01X-44055Y-104489D02*
G03I-355J0D01*
G01X-44345Y-104869D02*
G03I-355J0D01*
G01X-44065Y-104509D02*
G03I-355J0D01*
G01X-44575Y-105289D02*
G03I-355J0D01*
G01X-44705Y-105749D02*
G03I-355J0D01*
G01X-44575Y-105289D02*
G03I-355J0D01*
G01X-44525Y-105199D02*
G03I-355J0D01*
G01X-44745Y-106229D02*
G03I-355J0D01*
G01X-44715Y-105899D02*
G03I-355J0D01*
G01X-44745Y-106589D02*
G03I-355J0D01*
G01Y-107289D02*
G03I-355J0D01*
G01Y-107979D02*
G03I-355J0D01*
G01Y-108989D02*
G03I-355J0D01*
G01D02*
G03I-355J0D01*
G01D02*
G03I-355J0D01*
G01Y-108669D02*
G03I-355J0D01*
G01Y-109369D02*
G03I-355J0D01*
G01X-28445Y-103819D02*
G03I-355J0D01*
G01Y-103319D02*
G03I-355J0D01*
G01Y-104509D02*
G03I-355J0D01*
G01Y-105199D02*
G03I-355J0D01*
G01Y-105899D02*
G03I-355J0D01*
G01Y-106589D02*
G03I-355J0D01*
G01Y-107289D02*
G03I-355J0D01*
G01Y-107979D02*
G03I-355J0D01*
G01Y-108669D02*
G03I-355J0D01*
G01Y-109369D02*
G03I-355J0D01*
G01X-8135Y-110759D02*
G03I-355J0D01*
G01Y-110059D02*
G03I-355J0D01*
G01Y-111449D02*
G03I-355J0D01*
G01Y-112139D02*
G03I-355J0D01*
G01Y-112839D02*
G03I-355J0D01*
G01Y-114229D02*
G03I-355J0D01*
G01Y-113529D02*
G03I-355J0D01*
G01Y-114919D02*
G03I-355J0D01*
G01Y-115619D02*
G03I-355J0D01*
G01X-11205Y-110059D02*
G03I-355J0D01*
G01Y-110759D02*
G03I-355J0D01*
G01Y-111449D02*
G03I-355J0D01*
G01Y-112139D02*
G03I-355J0D01*
G01Y-113529D02*
G03I-355J0D01*
G01Y-112839D02*
G03I-355J0D01*
G01Y-114229D02*
G03I-355J0D01*
G01Y-114919D02*
G03I-355J0D01*
G01Y-115619D02*
G03I-355J0D01*
G01X-14745Y-110059D02*
G03I-355J0D01*
G01Y-110759D02*
G03I-355J0D01*
G01Y-111449D02*
G03I-355J0D01*
G01Y-112139D02*
G03I-355J0D01*
G01Y-112839D02*
G03I-355J0D01*
G01Y-114229D02*
G03I-355J0D01*
G01Y-113529D02*
G03I-355J0D01*
G01Y-114919D02*
G03I-355J0D01*
G01Y-115619D02*
G03I-355J0D01*
G01X-18675Y-110199D02*
G03I-355J0D01*
G01X-18465Y-110279D02*
G03I-355J0D01*
G01X-18295Y-110409D02*
G03I-355J0D01*
G01X-18165Y-110579D02*
G03I-355J0D01*
G01X-18085Y-110779D02*
G03I-355J0D01*
G01X-18055Y-110999D02*
G03I-355J0D01*
G01X-18095Y-110759D02*
G03I-355J0D01*
G01X-18055Y-111449D02*
G03I-355J0D01*
G01Y-112139D02*
G03I-355J0D01*
G01Y-113529D02*
G03I-355J0D01*
G01Y-112839D02*
G03I-355J0D01*
G01Y-114229D02*
G03I-355J0D01*
G01Y-114919D02*
G03I-355J0D01*
G01Y-115619D02*
G03I-355J0D01*
G01X-18885Y-110169D02*
G03I-355J0D01*
G01X-24755Y-110269D02*
G03I-355J0D01*
G01X-24565Y-110189D02*
G03I-355J0D01*
G01X-24365Y-110169D02*
G03I-355J0D01*
G01X-25115Y-110749D02*
G03I-355J0D01*
G01X-25035Y-110559D02*
G03I-355J0D01*
G01X-24915Y-110399D02*
G03I-355J0D01*
G01X-25115Y-110759D02*
G03I-355J0D01*
G01X-25145Y-110949D02*
G03I-355J0D01*
G01Y-111449D02*
G03I-355J0D01*
G01Y-112139D02*
G03I-355J0D01*
G01Y-112839D02*
G03I-355J0D01*
G01Y-113529D02*
G03I-355J0D01*
G01Y-114229D02*
G03I-355J0D01*
G01Y-114919D02*
G03I-355J0D01*
G01Y-115619D02*
G03I-355J0D01*
G01X-7665Y-120559D02*
G03I-355J0D01*
G01D02*
G03I-355J0D01*
G01Y-123869D02*
G03I-355J0D01*
G01X-8135Y-116069D02*
G03I-355J0D01*
G01X-9075Y-120559D02*
G03I-355J0D01*
G01X-10965D02*
G03I-355J0D01*
G01Y-123869D02*
G03I-355J0D01*
G01X-11205Y-116069D02*
G03I-355J0D01*
G01X-12765Y-120559D02*
G03I-355J0D01*
G01X-12735Y-123869D02*
G03I-355J0D01*
G01X-13665Y-121079D02*
G03I-355J0D01*
G01X-13565Y-120929D02*
G03I-355J0D01*
G01X-13435Y-120799D02*
G03I-355J0D01*
G01X-13285Y-120699D02*
G03I-355J0D01*
G01X-13125Y-120619D02*
G03I-355J0D01*
G01X-12945Y-120579D02*
G03I-355J0D01*
G01X-12925Y-123849D02*
G03I-355J0D01*
G01X-13105Y-123809D02*
G03I-355J0D01*
G01X-13275Y-123729D02*
G03I-355J0D01*
G01X-13425Y-123619D02*
G03I-355J0D01*
G01X-13555Y-123489D02*
G03I-355J0D01*
G01X-13665Y-123329D02*
G03I-355J0D01*
G01X-13745Y-121239D02*
G03I-355J0D01*
G01X-13805Y-121599D02*
G03I-355J0D01*
G01X-13785Y-121419D02*
G03I-355J0D01*
G01X-13805Y-122799D02*
G03I-355J0D01*
G01X-13745Y-123169D02*
G03I-355J0D01*
G01X-13785Y-122989D02*
G03I-355J0D01*
G01X-14745Y-116069D02*
G03I-355J0D01*
G01X-15925Y-120559D02*
G03I-355J0D01*
G01Y-122559D02*
G03I-355J0D01*
G01X-15935D02*
G03I-355J0D01*
G01X-15955Y-122789D02*
G03I-355J0D01*
G01X-16015Y-123009D02*
G03I-355J0D01*
G01X-16115Y-123209D02*
G03I-355J0D01*
G01X-16245Y-123399D02*
G03I-355J0D01*
G01X-16405Y-123559D02*
G03I-355J0D01*
G01X-16585Y-123689D02*
G03I-355J0D01*
G01X-16795Y-123789D02*
G03I-355J0D01*
G01X-17015Y-123849D02*
G03I-355J0D01*
G01X-17245Y-123869D02*
G03I-355J0D01*
G01X-17765D02*
G03I-355J0D01*
G01X-18055Y-116069D02*
G03I-355J0D01*
G01X-17985Y-123849D02*
G03I-355J0D01*
G01X-18185Y-123799D02*
G03I-355J0D01*
G01X-18385Y-123699D02*
G03I-355J0D01*
G01X-18565Y-123579D02*
G03I-355J0D01*
G01X-18715Y-123429D02*
G03I-355J0D01*
G01X-18995Y-120559D02*
G03I-355J0D01*
G01X-18985Y-122849D02*
G03I-355J0D01*
G01X-19005Y-122629D02*
G03I-355J0D01*
G01X-18995D02*
G03I-355J0D01*
G01X-18835Y-123249D02*
G03I-355J0D01*
G01X-18935Y-123049D02*
G03I-355J0D01*
G01X-22005Y-120729D02*
G03I-355J0D01*
G01X-21825Y-120859D02*
G03I-355J0D01*
G01X-21665Y-121019D02*
G03I-355J0D01*
G01X-21365Y-121849D02*
G03I-355J0D01*
G01X-21535Y-121199D02*
G03I-355J0D01*
G01X-21445Y-121409D02*
G03I-355J0D01*
G01X-21385Y-121629D02*
G03I-355J0D01*
G01X-21365Y-121849D02*
G03I-355J0D01*
G01Y-122559D02*
G03I-355J0D01*
G01X-21385Y-122759D02*
G03I-355J0D01*
G01X-21425Y-122959D02*
G03I-355J0D01*
G01X-21505Y-123149D02*
G03I-355J0D01*
G01X-21615Y-123329D02*
G03I-355J0D01*
G01X-21745Y-123489D02*
G03I-355J0D01*
G01X-21905Y-123619D02*
G03I-355J0D01*
G01X-22085Y-123729D02*
G03I-355J0D01*
G01X-22655Y-120559D02*
G03I-355J0D01*
G01X-22435Y-120579D02*
G03I-355J0D01*
G01X-22215Y-120639D02*
G03I-355J0D01*
G01X-22275Y-123809D02*
G03I-355J0D01*
G01X-22475Y-123849D02*
G03I-355J0D01*
G01X-22675Y-123869D02*
G03I-355J0D01*
G01X-24435Y-120559D02*
G03I-355J0D01*
G01Y-123869D02*
G03I-355J0D01*
G01X-25145Y-116069D02*
G03I-355J0D01*
G01X-26795Y-120559D02*
G03I-355J0D01*
G01Y-123869D02*
G03I-355J0D01*
G01X-27345D02*
G03I-355J0D01*
G01X-7525Y-104529D02*
G03I-355J0D01*
G01X-7305Y-104499D02*
G03I-355J0D01*
G01X-7385Y-104509D02*
G03I-355J0D01*
G01X-8265Y-102939D02*
G03I-355J0D01*
G01X-8025Y-104909D02*
G03I-355J0D01*
G01X-7895Y-104739D02*
G03I-355J0D01*
G01X-7715Y-104609D02*
G03I-355J0D01*
G01X-8135Y-105329D02*
G03I-355J0D01*
G01X-8105Y-105109D02*
G03I-355J0D01*
G01X-8115Y-105199D02*
G03I-355J0D01*
G01X-8135Y-106589D02*
G03I-355J0D01*
G01Y-105899D02*
G03I-355J0D01*
G01Y-107289D02*
G03I-355J0D01*
G01Y-107979D02*
G03I-355J0D01*
G01Y-108669D02*
G03I-355J0D01*
G01Y-109369D02*
G03I-355J0D01*
G01X-9655Y-103119D02*
G03I-355J0D01*
G01X-11205Y-103319D02*
G03I-355J0D01*
G01Y-103819D02*
G03I-355J0D01*
G01Y-104509D02*
G03I-355J0D01*
G01Y-105899D02*
G03I-355J0D01*
G01Y-105199D02*
G03I-355J0D01*
G01Y-106589D02*
G03I-355J0D01*
G01Y-107289D02*
G03I-355J0D01*
G01Y-107979D02*
G03I-355J0D01*
G01Y-108669D02*
G03I-355J0D01*
G01Y-109369D02*
G03I-355J0D01*
G01X-14745Y-103319D02*
G03I-355J0D01*
G01Y-103819D02*
G03I-355J0D01*
G01Y-104509D02*
G03I-355J0D01*
G01Y-105199D02*
G03I-355J0D01*
G01Y-106589D02*
G03I-355J0D01*
G01Y-105899D02*
G03I-355J0D01*
G01Y-107289D02*
G03I-355J0D01*
G01Y-107979D02*
G03I-355J0D01*
G01Y-108669D02*
G03I-355J0D01*
G01Y-109369D02*
G03I-355J0D01*
G01X-18055Y-103319D02*
G03I-355J0D01*
G01Y-103819D02*
G03I-355J0D01*
G01Y-104509D02*
G03I-355J0D01*
G01Y-105199D02*
G03I-355J0D01*
G01Y-106589D02*
G03I-355J0D01*
G01Y-105899D02*
G03I-355J0D01*
G01Y-107289D02*
G03I-355J0D01*
G01Y-107729D02*
G03I-355J0D01*
G01X-18085Y-107929D02*
G03I-355J0D01*
G01X-18165Y-108119D02*
G03I-355J0D01*
G01X-18285Y-108289D02*
G03I-355J0D01*
G01X-18105Y-107979D02*
G03I-355J0D01*
G01X-18445Y-108409D02*
G03I-355J0D01*
G01X-18635Y-108489D02*
G03I-355J0D01*
G01X-18835Y-108509D02*
G03I-355J0D01*
G01X-24335D02*
G03I-355J0D01*
G01X-24545Y-108489D02*
G03I-355J0D01*
G01X-24735Y-108409D02*
G03I-355J0D01*
G01X-25145Y-103819D02*
G03I-355J0D01*
G01Y-103319D02*
G03I-355J0D01*
G01D02*
G03I-355J0D01*
G01Y-104509D02*
G03I-355J0D01*
G01Y-105199D02*
G03I-355J0D01*
G01Y-105899D02*
G03I-355J0D01*
G01Y-106589D02*
G03I-355J0D01*
G01Y-107289D02*
G03I-355J0D01*
G01X-24905Y-108279D02*
G03I-355J0D01*
G01X-25035Y-108109D02*
G03I-355J0D01*
G01X-25115Y-107919D02*
G03I-355J0D01*
G01X-25145Y-107709D02*
G03I-355J0D01*
G01X-25085Y-107979D02*
G03I-355J0D01*
G01X-5065Y-110059D02*
G03I-355J0D01*
G01Y-110759D02*
G03I-355J0D01*
G01Y-111449D02*
G03I-355J0D01*
G01Y-112139D02*
G03I-355J0D01*
G01Y-112839D02*
G03I-355J0D01*
G01Y-113529D02*
G03I-355J0D01*
G01Y-114229D02*
G03I-355J0D01*
G01Y-114919D02*
G03I-355J0D01*
G01Y-115619D02*
G03I-355J0D01*
G01X4385Y-110059D02*
G03I-355J0D01*
G01Y-110759D02*
G03I-355J0D01*
G01Y-111449D02*
G03I-355J0D01*
G01Y-112139D02*
G03I-355J0D01*
G01Y-112839D02*
G03I-355J0D01*
G01Y-113529D02*
G03I-355J0D01*
G01Y-114229D02*
G03I-355J0D01*
G01Y-114919D02*
G03I-355J0D01*
G01Y-115619D02*
G03I-355J0D01*
G01X1315Y-110059D02*
G03I-355J0D01*
G01Y-110759D02*
G03I-355J0D01*
G01Y-111449D02*
G03I-355J0D01*
G01Y-112139D02*
G03I-355J0D01*
G01Y-112839D02*
G03I-355J0D01*
G01Y-113529D02*
G03I-355J0D01*
G01Y-114229D02*
G03I-355J0D01*
G01Y-114919D02*
G03I-355J0D01*
G01Y-115619D02*
G03I-355J0D01*
G01X-1755Y-110059D02*
G03I-355J0D01*
G01Y-110759D02*
G03I-355J0D01*
G01Y-111449D02*
G03I-355J0D01*
G01Y-112139D02*
G03I-355J0D01*
G01Y-112839D02*
G03I-355J0D01*
G01Y-113529D02*
G03I-355J0D01*
G01Y-114229D02*
G03I-355J0D01*
G01Y-114919D02*
G03I-355J0D01*
G01Y-115619D02*
G03I-355J0D01*
G01X-4045Y-121409D02*
G03I-355J0D01*
G01X-4105Y-121629D02*
G03I-355J0D01*
G01X-4125Y-121849D02*
G03I-355J0D01*
G01X-4115D02*
G03I-355J0D01*
G01Y-122559D02*
G03I-355J0D01*
G01X-4095Y-122759D02*
G03I-355J0D01*
G01X-4055Y-122959D02*
G03I-355J0D01*
G01X-5065Y-116069D02*
G03I-355J0D01*
G01X-6245Y-120559D02*
G03I-355J0D01*
G01X4385Y-116069D02*
G03I-355J0D01*
G01X4255Y-120919D02*
G03I-355J0D01*
G01X4325Y-121049D02*
G03I-355J0D01*
G01X4365Y-121199D02*
G03I-355J0D01*
G01X4385Y-121359D02*
G03I-355J0D01*
G01X4365Y-121529D02*
G03I-355J0D01*
G01X4315Y-121689D02*
G03I-355J0D01*
G01X4245Y-121839D02*
G03I-355J0D01*
G01X3585Y-120559D02*
G03I-355J0D01*
G01X3745Y-120579D02*
G03I-355J0D01*
G01X3895Y-120619D02*
G03I-355J0D01*
G01X4025Y-120689D02*
G03I-355J0D01*
G01X4155Y-120789D02*
G03I-355J0D01*
G01X4135Y-121969D02*
G03I-355J0D01*
G01X4005Y-122079D02*
G03I-355J0D01*
G01X3855Y-122149D02*
G03I-355J0D01*
G01X3695Y-122199D02*
G03I-355J0D01*
G01X3525Y-122219D02*
G03I-355J0D01*
G01X4145Y-123869D02*
G03I-355J0D01*
G01X3245Y-122219D02*
G03I-355J0D01*
G01D02*
G03I-355J0D01*
G01X1315Y-116069D02*
G03I-355J0D01*
G01Y-120559D02*
G03I-355J0D01*
G01D02*
G03I-355J0D01*
G01Y-122219D02*
G03I-355J0D01*
G01D02*
G03I-355J0D01*
G01Y-123869D02*
G03I-355J0D01*
G01X-815Y-121839D02*
G03I-355J0D01*
G01X-835Y-121619D02*
G03I-355J0D01*
G01X-815Y-122569D02*
G03I-355J0D01*
G01X-835Y-122799D02*
G03I-355J0D01*
G01X-815Y-122569D02*
G03I-355J0D01*
G01X-895Y-121399D02*
G03I-355J0D01*
G01X-985Y-121199D02*
G03I-355J0D01*
G01X-1115Y-121019D02*
G03I-355J0D01*
G01X-1275Y-120859D02*
G03I-355J0D01*
G01X-1455Y-120729D02*
G03I-355J0D01*
G01X-1655Y-120639D02*
G03I-355J0D01*
G01X-895Y-123009D02*
G03I-355J0D01*
G01X-1675Y-123789D02*
G03I-355J0D01*
G01X-1465Y-123699D02*
G03I-355J0D01*
G01X-1275Y-123569D02*
G03I-355J0D01*
G01X-1115Y-123409D02*
G03I-355J0D01*
G01X-985Y-123219D02*
G03I-355J0D01*
G01X-1755Y-116069D02*
G03I-355J0D01*
G01X-1875Y-120579D02*
G03I-355J0D01*
G01X-2095Y-120559D02*
G03I-355J0D01*
G01X-2115Y-123869D02*
G03I-355J0D01*
G01X-1885Y-123849D02*
G03I-355J0D01*
G01X-2835Y-120559D02*
G03I-355J0D01*
G01X-3055Y-120579D02*
G03I-355J0D01*
G01X-3275Y-120639D02*
G03I-355J0D01*
G01X-3395Y-123729D02*
G03I-355J0D01*
G01X-3205Y-123809D02*
G03I-355J0D01*
G01X-3005Y-123849D02*
G03I-355J0D01*
G01X-2805Y-123869D02*
G03I-355J0D01*
G01X-3475Y-120729D02*
G03I-355J0D01*
G01X-3665Y-120859D02*
G03I-355J0D01*
G01X-3825Y-121019D02*
G03I-355J0D01*
G01X-3955Y-121199D02*
G03I-355J0D01*
G01X-3975Y-123149D02*
G03I-355J0D01*
G01X-3865Y-123329D02*
G03I-355J0D01*
G01X-3735Y-123489D02*
G03I-355J0D01*
G01X-3575Y-123619D02*
G03I-355J0D01*
G01X-5085Y-105089D02*
G03I-355J0D01*
G01X-5065Y-105299D02*
G03I-355J0D01*
G01X-5075Y-105199D02*
G03I-355J0D01*
G01X-5065Y-105899D02*
G03I-355J0D01*
G01Y-106589D02*
G03I-355J0D01*
G01Y-107289D02*
G03I-355J0D01*
G01Y-107979D02*
G03I-355J0D01*
G01Y-108669D02*
G03I-355J0D01*
G01Y-109369D02*
G03I-355J0D01*
G01X-5295Y-102849D02*
G03I-355J0D01*
G01X-5865Y-104499D02*
G03I-355J0D01*
G01X-5655Y-104529D02*
G03I-355J0D01*
G01X-5465Y-104609D02*
G03I-355J0D01*
G01X-5295Y-104729D02*
G03I-355J0D01*
G01X-5175Y-104899D02*
G03I-355J0D01*
G01X-5785Y-104509D02*
G03I-355J0D01*
G01X4335Y-105559D02*
G03I-355J0D01*
G01X4385Y-106109D02*
G03I-355J0D01*
G01X4365Y-105899D02*
G03I-355J0D01*
G01X4385Y-106589D02*
G03I-355J0D01*
G01Y-107289D02*
G03I-355J0D01*
G01Y-107979D02*
G03I-355J0D01*
G01Y-108669D02*
G03I-355J0D01*
G01Y-109369D02*
G03I-355J0D01*
G01X4175Y-105029D02*
G03I-355J0D01*
G01X3895Y-104549D02*
G03I-355J0D01*
G01X3515Y-104139D02*
G03I-355J0D01*
G01X3855Y-104509D02*
G03I-355J0D01*
G01X4225Y-105199D02*
G03I-355J0D01*
G01X3075Y-103819D02*
G03I-355J0D01*
G01X2865Y-103659D02*
G03I-355J0D01*
G01D02*
G03I-355J0D01*
G01X2135Y-103299D02*
G03I-355J0D01*
G01X1355Y-103079D02*
G03I-355J0D01*
G01X1495Y-103119D02*
G03I-355J0D01*
G01X1025Y-104939D02*
G03I-355J0D01*
G01X1185Y-105179D02*
G03I-355J0D01*
G01X1285Y-105459D02*
G03I-355J0D01*
G01X1315Y-105759D02*
G03I-355J0D01*
G01X1195Y-105199D02*
G03I-355J0D01*
G01X1315Y-105899D02*
G03I-355J0D01*
G01Y-106589D02*
G03I-355J0D01*
G01Y-107289D02*
G03I-355J0D01*
G01Y-107979D02*
G03I-355J0D01*
G01Y-108669D02*
G03I-355J0D01*
G01Y-109369D02*
G03I-355J0D01*
G01X195Y-102909D02*
G03I-355J0D01*
G01X325Y-104569D02*
G03I-355J0D01*
G01X805Y-104739D02*
G03I-355J0D01*
G01X-185Y-104499D02*
G03I-355J0D01*
G01X-105Y-104509D02*
G03I-355J0D01*
G01X-965Y-102849D02*
G03I-355J0D01*
G01X-1645Y-104899D02*
G03I-355J0D01*
G01X-1515Y-104739D02*
G03I-355J0D01*
G01X-1345Y-104609D02*
G03I-355J0D01*
G01X-1155Y-104529D02*
G03I-355J0D01*
G01X-945Y-104499D02*
G03I-355J0D01*
G01X-1025Y-104509D02*
G03I-355J0D01*
G01X-1725Y-105099D02*
G03I-355J0D01*
G01X-1745Y-105199D02*
G03I-355J0D01*
G01X-1755Y-105309D02*
G03I-355J0D01*
G01Y-105899D02*
G03I-355J0D01*
G01Y-106589D02*
G03I-355J0D01*
G01Y-107289D02*
G03I-355J0D01*
G01Y-107979D02*
G03I-355J0D01*
G01Y-108669D02*
G03I-355J0D01*
G01Y-109369D02*
G03I-355J0D01*
G01X0Y0D02*
X275590D01*
Y275590D01*
X0D01*
Y0D01*
G01X48533Y-142969D02*
X48800Y-143469D01*
X49120Y-143802D01*
X49493Y-143969D01*
X49920Y-143802D01*
X50240Y-143469D01*
X50560Y-142969D01*
X50667Y-142302D01*
Y-138969D01*
G01X53800Y-143969D02*
X53373Y-143886D01*
X53000Y-143552D01*
X52680Y-143052D01*
X52467Y-142469D01*
X52360Y-141802D01*
Y-141136D01*
X52467Y-140469D01*
X52680Y-139886D01*
X53000Y-139386D01*
X53373Y-139052D01*
X53800Y-138969D01*
X54227Y-139052D01*
X54600Y-139386D01*
X54920Y-139886D01*
X55133Y-140469D01*
X55240Y-141136D01*
Y-141802D01*
X55133Y-142469D01*
X54920Y-143052D01*
X54600Y-143552D01*
X54227Y-143886D01*
X53800Y-143969D01*
G01X58427Y-141302D02*
X58640Y-141052D01*
X58800Y-140636D01*
X58907Y-140052D01*
X58800Y-139552D01*
X58587Y-139219D01*
X58213Y-138969D01*
X56773D01*
Y-143969D01*
X58533D01*
X58907Y-143636D01*
X59120Y-143136D01*
X59227Y-142552D01*
X59120Y-141969D01*
X58800Y-141469D01*
X58427Y-141302D01*
X56773D01*
G01X61133Y-145636D02*
X62200Y-138969D01*
G01X63267D02*
X62200Y-145636D01*
G01X60600Y-143136D02*
X63800D01*
G01Y-141469D02*
X60600D01*
G01X66400Y-144136D02*
X66293Y-144052D01*
Y-143886D01*
X66400Y-143802D01*
X66507Y-143886D01*
Y-144052D01*
X66400Y-144136D01*
G01Y-141886D02*
X66293Y-141802D01*
Y-141636D01*
X66400Y-141552D01*
X66507Y-141636D01*
Y-141802D01*
X66400Y-141886D01*
G01X49427Y-132969D02*
Y-127969D01*
X50493D01*
X50920Y-128219D01*
X51240Y-128552D01*
X51507Y-129052D01*
X51720Y-129636D01*
X51773Y-130469D01*
X51720Y-131302D01*
X51507Y-131886D01*
X51240Y-132386D01*
X50920Y-132719D01*
X50493Y-132969D01*
X49427D01*
G01X53467D02*
X54800Y-127969D01*
X56133Y-132969D01*
G01X55653Y-131219D02*
X53947D01*
G01X59000Y-127969D02*
Y-132969D01*
G01X57773Y-127969D02*
X60227D01*
G01X64267Y-132969D02*
X62133D01*
Y-127969D01*
X64267D01*
G01X63413Y-130386D02*
X62133D01*
G01X67400Y-133136D02*
X67293Y-133052D01*
Y-132886D01*
X67400Y-132802D01*
X67507Y-132886D01*
Y-133052D01*
X67400Y-133136D01*
G01Y-130886D02*
X67293Y-130802D01*
Y-130636D01*
X67400Y-130552D01*
X67507Y-130636D01*
Y-130802D01*
X67400Y-130886D01*
G01X43000Y-71969D02*
Y-146969D01*
G01X160500Y-134969D02*
X43000D01*
G01X50773Y-117386D02*
X50453Y-117136D01*
X50080Y-116969D01*
X49653D01*
X49173Y-117219D01*
X48800Y-117636D01*
X48533Y-118136D01*
X48320Y-118969D01*
X48267Y-119719D01*
X48373Y-120469D01*
X48533Y-120969D01*
X48853Y-121469D01*
X49227Y-121802D01*
X49600Y-121969D01*
X49973D01*
X50347Y-121802D01*
X50667Y-121552D01*
X50933Y-121219D01*
G01X52680Y-121969D02*
Y-116969D01*
G01X54920D02*
Y-121969D01*
G01Y-119469D02*
X52680D01*
G01X59067Y-121969D02*
X56933D01*
Y-116969D01*
X59067D01*
G01X58213Y-119386D02*
X56933D01*
G01X63373Y-117386D02*
X63053Y-117136D01*
X62680Y-116969D01*
X62253D01*
X61773Y-117219D01*
X61400Y-117636D01*
X61133Y-118136D01*
X60920Y-118969D01*
X60867Y-119719D01*
X60973Y-120469D01*
X61133Y-120969D01*
X61453Y-121469D01*
X61827Y-121802D01*
X62200Y-121969D01*
X62573D01*
X62947Y-121802D01*
X63267Y-121552D01*
X63533Y-121219D01*
G01X65227Y-121969D02*
Y-116969D01*
G01X67253D02*
X65227Y-120052D01*
G01X67573Y-121969D02*
X66133Y-118636D01*
G01X71667Y-121969D02*
X69533D01*
Y-116969D01*
X71667D01*
G01X70813Y-119386D02*
X69533D01*
G01X73733Y-121969D02*
Y-116969D01*
X75067D01*
X75493Y-117219D01*
X75760Y-117552D01*
X75867Y-118219D01*
X75760Y-118886D01*
X75440Y-119302D01*
X75067Y-119552D01*
X73733D01*
G01X75067D02*
X75867Y-121969D01*
G01X79000Y-122136D02*
X78893Y-122052D01*
Y-121886D01*
X79000Y-121802D01*
X79107Y-121886D01*
Y-122052D01*
X79000Y-122136D01*
G01Y-119886D02*
X78893Y-119802D01*
Y-119636D01*
X79000Y-119552D01*
X79107Y-119636D01*
Y-119802D01*
X79000Y-119886D01*
G01X48427Y-110969D02*
Y-105969D01*
X49493D01*
X49920Y-106219D01*
X50240Y-106552D01*
X50507Y-107052D01*
X50720Y-107636D01*
X50773Y-108469D01*
X50720Y-109302D01*
X50507Y-109886D01*
X50240Y-110386D01*
X49920Y-110719D01*
X49493Y-110969D01*
X48427D01*
G01X54867D02*
X52733D01*
Y-105969D01*
X54867D01*
G01X54013Y-108386D02*
X52733D01*
G01X56880Y-110302D02*
X57307Y-110719D01*
X57787Y-110969D01*
X58213D01*
X58640Y-110719D01*
X58960Y-110302D01*
X59120Y-109719D01*
X59013Y-109136D01*
X58747Y-108636D01*
X58267Y-108302D01*
X57627Y-108136D01*
X57253Y-107802D01*
X57093Y-107219D01*
X57200Y-106636D01*
X57467Y-106219D01*
X57840Y-105969D01*
X58213D01*
X58587Y-106136D01*
X58907Y-106552D01*
G01X61560Y-105969D02*
X62840D01*
G01X62200D02*
Y-110969D01*
G01X61560D02*
X62840D01*
G01X66720Y-108469D02*
X67787D01*
Y-109969D01*
X67467Y-110469D01*
X67093Y-110802D01*
X66560Y-110969D01*
X66027Y-110802D01*
X65653Y-110469D01*
X65333Y-109969D01*
X65120Y-109386D01*
X65013Y-108719D01*
Y-108136D01*
X65120Y-107636D01*
X65333Y-107052D01*
X65653Y-106552D01*
X65973Y-106219D01*
X66400Y-105969D01*
X66773D01*
X67200Y-106136D01*
X67520Y-106469D01*
G01X69373Y-110969D02*
Y-105969D01*
X71827Y-110969D01*
Y-105969D01*
G01X75867Y-110969D02*
X73733D01*
Y-105969D01*
X75867D01*
G01X75013Y-108386D02*
X73733D01*
G01X77933Y-110969D02*
Y-105969D01*
X79267D01*
X79693Y-106219D01*
X79960Y-106552D01*
X80067Y-107219D01*
X79960Y-107886D01*
X79640Y-108302D01*
X79267Y-108552D01*
X77933D01*
G01X79267D02*
X80067Y-110969D01*
G01X83200Y-111136D02*
X83093Y-111052D01*
Y-110886D01*
X83200Y-110802D01*
X83307Y-110886D01*
Y-111052D01*
X83200Y-111136D01*
G01Y-108886D02*
X83093Y-108802D01*
Y-108636D01*
X83200Y-108552D01*
X83307Y-108636D01*
Y-108802D01*
X83200Y-108886D01*
G01X160500Y-123969D02*
X43000D01*
G01X160500Y-112969D02*
X43000D01*
G01X160500Y-101969D02*
X43000D01*
G01X75587Y-128802D02*
X75907Y-128302D01*
X76280Y-128052D01*
X76707Y-127969D01*
X77240Y-128136D01*
X77613Y-128552D01*
X77720Y-129052D01*
X77667Y-129552D01*
X77453Y-129969D01*
X76387Y-130802D01*
X75907Y-131386D01*
X75587Y-132219D01*
X75480Y-132969D01*
X77720D01*
G01X80800Y-127969D02*
X80373Y-128136D01*
X80053Y-128552D01*
X79840Y-129052D01*
X79680Y-129719D01*
X79627Y-130469D01*
X79680Y-131219D01*
X79840Y-131886D01*
X80053Y-132386D01*
X80373Y-132802D01*
X80800Y-132969D01*
X81227Y-132802D01*
X81547Y-132386D01*
X81760Y-131886D01*
X81920Y-131219D01*
X81973Y-130469D01*
X81920Y-129719D01*
X81760Y-129052D01*
X81547Y-128552D01*
X81227Y-128136D01*
X80800Y-127969D01*
G01X85000Y-132969D02*
Y-127969D01*
X84360Y-128969D01*
G01Y-132969D02*
X85640D01*
G01X89840D02*
Y-127969D01*
X87867Y-131552D01*
X90533D01*
G01X93400Y-132969D02*
Y-127969D01*
X92760Y-128969D01*
G01Y-132969D02*
X94040D01*
G01X97600D02*
Y-127969D01*
X96960Y-128969D01*
G01Y-132969D02*
X98240D01*
G01X101800Y-127969D02*
X101373Y-128136D01*
X101053Y-128552D01*
X100840Y-129052D01*
X100680Y-129719D01*
X100627Y-130469D01*
X100680Y-131219D01*
X100840Y-131886D01*
X101053Y-132386D01*
X101373Y-132802D01*
X101800Y-132969D01*
X102227Y-132802D01*
X102547Y-132386D01*
X102760Y-131886D01*
X102920Y-131219D01*
X102973Y-130469D01*
X102920Y-129719D01*
X102760Y-129052D01*
X102547Y-128552D01*
X102227Y-128136D01*
X101800Y-127969D01*
G01X104827Y-132219D02*
X105147Y-132636D01*
X105520Y-132886D01*
X106000Y-132969D01*
X106480Y-132802D01*
X106853Y-132469D01*
X107120Y-131886D01*
X107173Y-131219D01*
X107067Y-130552D01*
X106800Y-130136D01*
X106427Y-129802D01*
X106053Y-129719D01*
X105680Y-129802D01*
X105200Y-130136D01*
X105360Y-127969D01*
X106800D01*
G01X84033Y-121969D02*
Y-116969D01*
X85367D01*
X85793Y-117219D01*
X86060Y-117552D01*
X86167Y-118219D01*
X86060Y-118886D01*
X85740Y-119302D01*
X85367Y-119552D01*
X84033D01*
G01X85367D02*
X86167Y-121969D01*
G01X89300D02*
X88873Y-121886D01*
X88500Y-121552D01*
X88180Y-121052D01*
X87967Y-120469D01*
X87860Y-119802D01*
Y-119136D01*
X87967Y-118469D01*
X88180Y-117886D01*
X88500Y-117386D01*
X88873Y-117052D01*
X89300Y-116969D01*
X89727Y-117052D01*
X90100Y-117386D01*
X90420Y-117886D01*
X90633Y-118469D01*
X90740Y-119136D01*
Y-119802D01*
X90633Y-120469D01*
X90420Y-121052D01*
X90100Y-121552D01*
X89727Y-121886D01*
X89300Y-121969D01*
G01X92380D02*
Y-116969D01*
G01X94620D02*
Y-121969D01*
G01Y-119469D02*
X92380D01*
G01X96313Y-121969D02*
Y-116969D01*
X97700Y-121136D01*
X99087Y-116969D01*
Y-121969D01*
G01X104980Y-121302D02*
X105407Y-121719D01*
X105887Y-121969D01*
X106313D01*
X106740Y-121719D01*
X107060Y-121302D01*
X107220Y-120719D01*
X107113Y-120136D01*
X106847Y-119636D01*
X106367Y-119302D01*
X105727Y-119136D01*
X105353Y-118802D01*
X105193Y-118219D01*
X105300Y-117636D01*
X105567Y-117219D01*
X105940Y-116969D01*
X106313D01*
X106687Y-117136D01*
X107007Y-117552D01*
G01X111367Y-121969D02*
X109233D01*
Y-116969D01*
X111367D01*
G01X110513Y-119386D02*
X109233D01*
G01X113113Y-121969D02*
Y-116969D01*
X114500Y-121136D01*
X115887Y-116969D01*
Y-121969D01*
G01X118060Y-116969D02*
X119340D01*
G01X118700D02*
Y-121969D01*
G01X118060D02*
X119340D01*
G01X124073Y-117386D02*
X123753Y-117136D01*
X123380Y-116969D01*
X122953D01*
X122473Y-117219D01*
X122100Y-117636D01*
X121833Y-118136D01*
X121620Y-118969D01*
X121567Y-119719D01*
X121673Y-120469D01*
X121833Y-120969D01*
X122153Y-121469D01*
X122527Y-121802D01*
X122900Y-121969D01*
X123273D01*
X123647Y-121802D01*
X123967Y-121552D01*
X124233Y-121219D01*
G01X127100Y-121969D02*
X126673Y-121886D01*
X126300Y-121552D01*
X125980Y-121052D01*
X125767Y-120469D01*
X125660Y-119802D01*
Y-119136D01*
X125767Y-118469D01*
X125980Y-117886D01*
X126300Y-117386D01*
X126673Y-117052D01*
X127100Y-116969D01*
X127527Y-117052D01*
X127900Y-117386D01*
X128220Y-117886D01*
X128433Y-118469D01*
X128540Y-119136D01*
Y-119802D01*
X128433Y-120469D01*
X128220Y-121052D01*
X127900Y-121552D01*
X127527Y-121886D01*
X127100Y-121969D01*
G01X130073D02*
Y-116969D01*
X132527Y-121969D01*
Y-116969D01*
G01X134327Y-121969D02*
Y-116969D01*
X135393D01*
X135820Y-117219D01*
X136140Y-117552D01*
X136407Y-118052D01*
X136620Y-118636D01*
X136673Y-119469D01*
X136620Y-120302D01*
X136407Y-120886D01*
X136140Y-121386D01*
X135820Y-121719D01*
X135393Y-121969D01*
X134327D01*
G01X138527Y-116969D02*
Y-120552D01*
X138740Y-121302D01*
X139167Y-121802D01*
X139700Y-121969D01*
X140233Y-121802D01*
X140660Y-121302D01*
X140873Y-120552D01*
Y-116969D01*
G01X145073Y-117386D02*
X144753Y-117136D01*
X144380Y-116969D01*
X143953D01*
X143473Y-117219D01*
X143100Y-117636D01*
X142833Y-118136D01*
X142620Y-118969D01*
X142567Y-119719D01*
X142673Y-120469D01*
X142833Y-120969D01*
X143153Y-121469D01*
X143527Y-121802D01*
X143900Y-121969D01*
X144273D01*
X144647Y-121802D01*
X144967Y-121552D01*
X145233Y-121219D01*
G01X148100Y-116969D02*
Y-121969D01*
G01X146873Y-116969D02*
X149327D01*
G01X152300Y-121969D02*
X151873Y-121886D01*
X151500Y-121552D01*
X151180Y-121052D01*
X150967Y-120469D01*
X150860Y-119802D01*
Y-119136D01*
X150967Y-118469D01*
X151180Y-117886D01*
X151500Y-117386D01*
X151873Y-117052D01*
X152300Y-116969D01*
X152727Y-117052D01*
X153100Y-117386D01*
X153420Y-117886D01*
X153633Y-118469D01*
X153740Y-119136D01*
Y-119802D01*
X153633Y-120469D01*
X153420Y-121052D01*
X153100Y-121552D01*
X152727Y-121886D01*
X152300Y-121969D01*
G01X155433D02*
Y-116969D01*
X156767D01*
X157193Y-117219D01*
X157460Y-117552D01*
X157567Y-118219D01*
X157460Y-118886D01*
X157140Y-119302D01*
X156767Y-119552D01*
X155433D01*
G01X156767D02*
X157567Y-121969D01*
G01X88533Y-110969D02*
Y-105969D01*
X89813D01*
X90240Y-106219D01*
X90560Y-106802D01*
X90667Y-107469D01*
X90560Y-108136D01*
X90293Y-108636D01*
X89813Y-108886D01*
X88533D01*
G01X93800Y-105969D02*
Y-110969D01*
G01X92573Y-105969D02*
X95027D01*
G01X96880Y-110969D02*
Y-105969D01*
G01X99120D02*
Y-110969D01*
G01Y-108469D02*
X96880D01*
G01X100867Y-105969D02*
X102200Y-110969D01*
X103533Y-105969D01*
G01X105227Y-110969D02*
Y-105969D01*
X106293D01*
X106720Y-106219D01*
X107040Y-106552D01*
X107307Y-107052D01*
X107520Y-107636D01*
X107573Y-108469D01*
X107520Y-109302D01*
X107307Y-109886D01*
X107040Y-110386D01*
X106720Y-110719D01*
X106293Y-110969D01*
X105227D01*
G01X111773Y-106386D02*
X111453Y-106136D01*
X111080Y-105969D01*
X110653D01*
X110173Y-106219D01*
X109800Y-106636D01*
X109533Y-107136D01*
X109320Y-107969D01*
X109267Y-108719D01*
X109373Y-109469D01*
X109533Y-109969D01*
X109853Y-110469D01*
X110227Y-110802D01*
X110600Y-110969D01*
X110973D01*
X111347Y-110802D01*
X111667Y-110552D01*
X111933Y-110219D01*
G01X76083Y-84500D02*
Y-92000D01*
X79417D01*
G01X82667Y-85750D02*
X83167Y-85000D01*
X83750Y-84625D01*
X84417Y-84500D01*
X85250Y-84750D01*
X85833Y-85375D01*
X86000Y-86125D01*
X85917Y-86875D01*
X85583Y-87500D01*
X83917Y-88750D01*
X83167Y-89625D01*
X82667Y-90875D01*
X82500Y-92000D01*
X86000D01*
G01X88250Y-94500D02*
X93250D01*
G01X97750Y-88250D02*
X99417D01*
Y-90500D01*
X98917Y-91250D01*
X98333Y-91750D01*
X97500Y-92000D01*
X96667Y-91750D01*
X96083Y-91250D01*
X95583Y-90500D01*
X95250Y-89625D01*
X95083Y-88625D01*
Y-87750D01*
X95250Y-87000D01*
X95583Y-86125D01*
X96083Y-85375D01*
X96583Y-84875D01*
X97250Y-84500D01*
X97833D01*
X98500Y-84750D01*
X99000Y-85250D01*
G01X101833Y-92000D02*
Y-84500D01*
X105667Y-92000D01*
Y-84500D01*
G01X108417Y-92000D02*
Y-84500D01*
X110083D01*
X110750Y-84875D01*
X111250Y-85375D01*
X111667Y-86125D01*
X112000Y-87000D01*
X112083Y-88250D01*
X112000Y-89500D01*
X111667Y-90375D01*
X111250Y-91125D01*
X110750Y-91625D01*
X110083Y-92000D01*
X108417D01*
G01X163667Y-131969D02*
Y-125969D01*
X165267D01*
X165800Y-126269D01*
X166200Y-126969D01*
X166333Y-127769D01*
X166200Y-128569D01*
X165867Y-129169D01*
X165267Y-129469D01*
X163667D01*
G01X168867Y-131969D02*
Y-125969D01*
X170533D01*
X171067Y-126269D01*
X171400Y-126669D01*
X171533Y-127469D01*
X171400Y-128269D01*
X171000Y-128769D01*
X170533Y-129069D01*
X168867D01*
G01X170533D02*
X171533Y-131969D01*
G01X175400D02*
X174867Y-131869D01*
X174400Y-131469D01*
X174000Y-130869D01*
X173733Y-130169D01*
X173600Y-129369D01*
Y-128569D01*
X173733Y-127769D01*
X174000Y-127069D01*
X174400Y-126469D01*
X174867Y-126069D01*
X175400Y-125969D01*
X175933Y-126069D01*
X176400Y-126469D01*
X176800Y-127069D01*
X177067Y-127769D01*
X177200Y-128569D01*
Y-129369D01*
X177067Y-130169D01*
X176800Y-130869D01*
X176400Y-131469D01*
X175933Y-131869D01*
X175400Y-131969D01*
G01X179267Y-130769D02*
X179600Y-131369D01*
X180000Y-131769D01*
X180467Y-131969D01*
X181000Y-131769D01*
X181400Y-131369D01*
X181800Y-130769D01*
X181933Y-129969D01*
Y-125969D01*
G01X187133Y-131969D02*
X184467D01*
Y-125969D01*
X187133D01*
G01X186067Y-128869D02*
X184467D01*
G01X192467Y-126469D02*
X192067Y-126169D01*
X191600Y-125969D01*
X191067D01*
X190467Y-126269D01*
X190000Y-126769D01*
X189667Y-127369D01*
X189400Y-128369D01*
X189333Y-129269D01*
X189467Y-130169D01*
X189667Y-130769D01*
X190067Y-131369D01*
X190533Y-131769D01*
X191000Y-131969D01*
X191467D01*
X191933Y-131769D01*
X192333Y-131469D01*
X192667Y-131069D01*
G01X196200Y-125969D02*
Y-131969D01*
G01X194667Y-125969D02*
X197733D01*
G01X205067Y-131969D02*
Y-125969D01*
X208133Y-131969D01*
Y-125969D01*
G01X210333D02*
Y-130269D01*
X210600Y-131169D01*
X211133Y-131769D01*
X211800Y-131969D01*
X212467Y-131769D01*
X213000Y-131169D01*
X213267Y-130269D01*
Y-125969D01*
G01X215267Y-131969D02*
Y-125969D01*
X217000Y-130969D01*
X218733Y-125969D01*
Y-131969D01*
G01X222733Y-128769D02*
X223000Y-128469D01*
X223200Y-127969D01*
X223333Y-127269D01*
X223200Y-126669D01*
X222933Y-126269D01*
X222467Y-125969D01*
X220667D01*
Y-131969D01*
X222867D01*
X223333Y-131569D01*
X223600Y-130969D01*
X223733Y-130269D01*
X223600Y-129569D01*
X223200Y-128969D01*
X222733Y-128769D01*
X220667D01*
G01X228733Y-131969D02*
X226067D01*
Y-125969D01*
X228733D01*
G01X227667Y-128869D02*
X226067D01*
G01X231267Y-131969D02*
Y-125969D01*
X232933D01*
X233467Y-126269D01*
X233800Y-126669D01*
X233933Y-127469D01*
X233800Y-128269D01*
X233400Y-128769D01*
X232933Y-129069D01*
X231267D01*
G01X232933D02*
X233933Y-131969D01*
G01X237800Y-132169D02*
X237667Y-132069D01*
Y-131869D01*
X237800Y-131769D01*
X237933Y-131869D01*
Y-132069D01*
X237800Y-132169D01*
G01Y-129469D02*
X237667Y-129369D01*
Y-129169D01*
X237800Y-129069D01*
X237933Y-129169D01*
Y-129369D01*
X237800Y-129469D01*
G01X160500Y-71969D02*
Y-146969D01*
G01X163667Y-109469D02*
Y-103469D01*
X165267D01*
X165800Y-103769D01*
X166200Y-104469D01*
X166333Y-105269D01*
X166200Y-106069D01*
X165867Y-106669D01*
X165267Y-106969D01*
X163667D01*
G01X168867Y-109469D02*
Y-103469D01*
X170533D01*
X171067Y-103769D01*
X171400Y-104169D01*
X171533Y-104969D01*
X171400Y-105769D01*
X171000Y-106269D01*
X170533Y-106569D01*
X168867D01*
G01X170533D02*
X171533Y-109469D01*
G01X175400D02*
X174867Y-109369D01*
X174400Y-108969D01*
X174000Y-108369D01*
X173733Y-107669D01*
X173600Y-106869D01*
Y-106069D01*
X173733Y-105269D01*
X174000Y-104569D01*
X174400Y-103969D01*
X174867Y-103569D01*
X175400Y-103469D01*
X175933Y-103569D01*
X176400Y-103969D01*
X176800Y-104569D01*
X177067Y-105269D01*
X177200Y-106069D01*
Y-106869D01*
X177067Y-107669D01*
X176800Y-108369D01*
X176400Y-108969D01*
X175933Y-109369D01*
X175400Y-109469D01*
G01X179267Y-108269D02*
X179600Y-108869D01*
X180000Y-109269D01*
X180467Y-109469D01*
X181000Y-109269D01*
X181400Y-108869D01*
X181800Y-108269D01*
X181933Y-107469D01*
Y-103469D01*
G01X187133Y-109469D02*
X184467D01*
Y-103469D01*
X187133D01*
G01X186067Y-106369D02*
X184467D01*
G01X192467Y-103969D02*
X192067Y-103669D01*
X191600Y-103469D01*
X191067D01*
X190467Y-103769D01*
X190000Y-104269D01*
X189667Y-104869D01*
X189400Y-105869D01*
X189333Y-106769D01*
X189467Y-107669D01*
X189667Y-108269D01*
X190067Y-108869D01*
X190533Y-109269D01*
X191000Y-109469D01*
X191467D01*
X191933Y-109269D01*
X192333Y-108969D01*
X192667Y-108569D01*
G01X196200Y-103469D02*
Y-109469D01*
G01X194667Y-103469D02*
X197733D01*
G01X205067Y-109469D02*
Y-103469D01*
X208133Y-109469D01*
Y-103469D01*
G01X210133Y-109469D02*
X211800Y-103469D01*
X213467Y-109469D01*
G01X212867Y-107369D02*
X210733D01*
G01X215267Y-109469D02*
Y-103469D01*
X217000Y-108469D01*
X218733Y-103469D01*
Y-109469D01*
G01X223533D02*
X220867D01*
Y-103469D01*
X223533D01*
G01X222467Y-106369D02*
X220867D01*
G01X227400Y-109669D02*
X227267Y-109569D01*
Y-109369D01*
X227400Y-109269D01*
X227533Y-109369D01*
Y-109569D01*
X227400Y-109669D01*
G01Y-106969D02*
X227267Y-106869D01*
Y-106669D01*
X227400Y-106569D01*
X227533Y-106669D01*
Y-106869D01*
X227400Y-106969D01*
G01X358000Y-124469D02*
X160500D01*
G01X358000Y-101969D02*
X160500D01*
G01X166467Y-73969D02*
X166067Y-73669D01*
X165600Y-73469D01*
X165067D01*
X164467Y-73769D01*
X164000Y-74269D01*
X163667Y-74869D01*
X163400Y-75869D01*
X163333Y-76769D01*
X163467Y-77669D01*
X163667Y-78269D01*
X164067Y-78869D01*
X164533Y-79269D01*
X165000Y-79469D01*
X165467D01*
X165933Y-79269D01*
X166333Y-78969D01*
X166667Y-78569D01*
G01X170200Y-79469D02*
X169667Y-79369D01*
X169200Y-78969D01*
X168800Y-78369D01*
X168533Y-77669D01*
X168400Y-76869D01*
Y-76069D01*
X168533Y-75269D01*
X168800Y-74569D01*
X169200Y-73969D01*
X169667Y-73569D01*
X170200Y-73469D01*
X170733Y-73569D01*
X171200Y-73969D01*
X171600Y-74569D01*
X171867Y-75269D01*
X172000Y-76069D01*
Y-76869D01*
X171867Y-77669D01*
X171600Y-78369D01*
X171200Y-78969D01*
X170733Y-79369D01*
X170200Y-79469D01*
G01X173667D02*
Y-73469D01*
X175400Y-78469D01*
X177133Y-73469D01*
Y-79469D01*
G01X179267D02*
Y-73469D01*
X180867D01*
X181400Y-73769D01*
X181800Y-74469D01*
X181933Y-75269D01*
X181800Y-76069D01*
X181467Y-76669D01*
X180867Y-76969D01*
X179267D01*
G01X184133Y-79469D02*
X185800Y-73469D01*
X187467Y-79469D01*
G01X186867Y-77369D02*
X184733D01*
G01X189467Y-79469D02*
Y-73469D01*
X192533Y-79469D01*
Y-73469D01*
G01X196200Y-79469D02*
Y-76769D01*
X194867Y-73469D01*
G01X197533D02*
X196200Y-76769D01*
G01X205067Y-79469D02*
Y-73469D01*
X208133Y-79469D01*
Y-73469D01*
G01X210133Y-79469D02*
X211800Y-73469D01*
X213467Y-79469D01*
G01X212867Y-77369D02*
X210733D01*
G01X215267Y-79469D02*
Y-73469D01*
X217000Y-78469D01*
X218733Y-73469D01*
Y-79469D01*
G01X223533D02*
X220867D01*
Y-73469D01*
X223533D01*
G01X222467Y-76369D02*
X220867D01*
G01X227400Y-79669D02*
X227267Y-79569D01*
Y-79369D01*
X227400Y-79269D01*
X227533Y-79369D01*
Y-79569D01*
X227400Y-79669D01*
G01Y-76969D02*
X227267Y-76869D01*
Y-76669D01*
X227400Y-76569D01*
X227533Y-76669D01*
Y-76869D01*
X227400Y-76969D01*
G01X196593Y-117702D02*
X196940Y-117302D01*
X197200Y-116636D01*
X197373Y-115702D01*
X197200Y-114902D01*
X196853Y-114369D01*
X196247Y-113969D01*
X193907D01*
Y-121969D01*
X196767D01*
X197373Y-121436D01*
X197720Y-120636D01*
X197893Y-119702D01*
X197720Y-118769D01*
X197200Y-117969D01*
X196593Y-117702D01*
X193907D01*
G01X200793Y-121969D02*
Y-113969D01*
X202527D01*
X203220Y-114369D01*
X203740Y-114902D01*
X204173Y-115702D01*
X204520Y-116636D01*
X204607Y-117969D01*
X204520Y-119302D01*
X204173Y-120236D01*
X203740Y-121036D01*
X203220Y-121569D01*
X202527Y-121969D01*
X200793D01*
G01X208027Y-121036D02*
X208633Y-121702D01*
X209327Y-121969D01*
X210020Y-121702D01*
X210627Y-120902D01*
X211060Y-119702D01*
X211233Y-118502D01*
Y-117036D01*
X211060Y-115836D01*
X210627Y-114769D01*
X210107Y-114236D01*
X209500Y-113969D01*
X208807Y-114236D01*
X208287Y-114769D01*
X207940Y-115569D01*
X207767Y-116636D01*
X207940Y-117569D01*
X208373Y-118502D01*
X208893Y-119036D01*
X209500Y-119169D01*
X210193Y-118902D01*
X210713Y-118236D01*
X211233Y-117036D01*
G01X216820Y-117969D02*
X218553D01*
Y-120369D01*
X218033Y-121169D01*
X217427Y-121702D01*
X216560Y-121969D01*
X215693Y-121702D01*
X215087Y-121169D01*
X214567Y-120369D01*
X214220Y-119436D01*
X214047Y-118369D01*
Y-117436D01*
X214220Y-116636D01*
X214567Y-115702D01*
X215087Y-114902D01*
X215607Y-114369D01*
X216300Y-113969D01*
X216907D01*
X217600Y-114236D01*
X218120Y-114769D01*
G01X221193Y-120369D02*
X221713Y-121302D01*
X222407Y-121836D01*
X223187Y-121969D01*
X223880Y-121836D01*
X224573Y-121169D01*
X225007Y-120369D01*
X225093Y-119569D01*
X224920Y-118636D01*
X224313Y-117969D01*
X223707Y-117702D01*
X222927D01*
G01X223707D02*
X224227Y-117302D01*
X224660Y-116636D01*
X224833Y-115836D01*
X224660Y-115036D01*
X224227Y-114369D01*
X223447Y-113969D01*
X222667Y-114102D01*
X221887Y-114636D01*
G01X230940Y-121969D02*
Y-113969D01*
X227733Y-119702D01*
X232067D01*
G01X236700Y-121969D02*
Y-113969D01*
X235660Y-115569D01*
G01Y-121969D02*
X237740D01*
G01X245233D02*
X241767D01*
Y-113969D01*
X245233D01*
G01X243847Y-117836D02*
X241767D01*
G01X248653Y-121969D02*
Y-113969D01*
X251947D01*
G01X250733Y-117836D02*
X248653D01*
G01X255367Y-120369D02*
X255800Y-121169D01*
X256320Y-121702D01*
X256927Y-121969D01*
X257620Y-121702D01*
X258140Y-121169D01*
X258660Y-120369D01*
X258833Y-119302D01*
Y-113969D01*
G01X262773Y-119302D02*
X265027D01*
G01X272433Y-121969D02*
X268967D01*
Y-113969D01*
X272433D01*
G01X271047Y-117836D02*
X268967D01*
G01X275853Y-115302D02*
X276373Y-114502D01*
X276980Y-114102D01*
X277673Y-113969D01*
X278540Y-114236D01*
X279147Y-114902D01*
X279320Y-115702D01*
X279233Y-116502D01*
X278887Y-117169D01*
X277153Y-118502D01*
X276373Y-119436D01*
X275853Y-120769D01*
X275680Y-121969D01*
X279320D01*
G01X286033D02*
X282567D01*
Y-113969D01*
X286033D01*
G01X284647Y-117836D02*
X282567D01*
G01X288933Y-113969D02*
X291100Y-121969D01*
X293267Y-113969D01*
G01X295993Y-121969D02*
Y-113969D01*
G01X299287D02*
X295993Y-118902D01*
G01X299807Y-121969D02*
X297467Y-116636D01*
G01X303573Y-119302D02*
X305827D01*
G01X311500Y-121969D02*
Y-113969D01*
X310460Y-115569D01*
G01Y-121969D02*
X312540D01*
G01X318300Y-113969D02*
X317607Y-114236D01*
X317087Y-114902D01*
X316740Y-115702D01*
X316480Y-116769D01*
X316393Y-117969D01*
X316480Y-119169D01*
X316740Y-120236D01*
X317087Y-121036D01*
X317607Y-121702D01*
X318300Y-121969D01*
X318993Y-121702D01*
X319513Y-121036D01*
X319860Y-120236D01*
X320120Y-119169D01*
X320207Y-117969D01*
X320120Y-116769D01*
X319860Y-115702D01*
X319513Y-114902D01*
X318993Y-114236D01*
X318300Y-113969D01*
G01X325100Y-121969D02*
Y-113969D01*
X324060Y-115569D01*
G01Y-121969D02*
X326140D01*
G01X187367Y-96969D02*
Y-88969D01*
X189533D01*
X190227Y-89369D01*
X190660Y-89902D01*
X190833Y-90969D01*
X190660Y-92036D01*
X190140Y-92702D01*
X189533Y-93102D01*
X187367D01*
G01X189533D02*
X190833Y-96969D01*
G01X195900D02*
X195207Y-96836D01*
X194600Y-96302D01*
X194080Y-95502D01*
X193733Y-94569D01*
X193560Y-93502D01*
Y-92436D01*
X193733Y-91369D01*
X194080Y-90436D01*
X194600Y-89636D01*
X195207Y-89102D01*
X195900Y-88969D01*
X196593Y-89102D01*
X197200Y-89636D01*
X197720Y-90436D01*
X198067Y-91369D01*
X198240Y-92436D01*
Y-93502D01*
X198067Y-94569D01*
X197720Y-95502D01*
X197200Y-96302D01*
X196593Y-96836D01*
X195900Y-96969D01*
G01X200880D02*
Y-88969D01*
G01X204520D02*
Y-96969D01*
G01Y-92969D02*
X200880D01*
G01X207247Y-96969D02*
Y-88969D01*
X209500Y-95636D01*
X211753Y-88969D01*
Y-96969D01*
G01X221280Y-95902D02*
X221973Y-96569D01*
X222753Y-96969D01*
X223447D01*
X224140Y-96569D01*
X224660Y-95902D01*
X224920Y-94969D01*
X224747Y-94036D01*
X224313Y-93236D01*
X223533Y-92702D01*
X222493Y-92436D01*
X221887Y-91902D01*
X221627Y-90969D01*
X221800Y-90036D01*
X222233Y-89369D01*
X222840Y-88969D01*
X223447D01*
X224053Y-89236D01*
X224573Y-89902D01*
G01X231633Y-96969D02*
X228167D01*
Y-88969D01*
X231633D01*
G01X230247Y-92836D02*
X228167D01*
G01X234447Y-96969D02*
Y-88969D01*
X236700Y-95636D01*
X238953Y-88969D01*
Y-96969D01*
G01X242460Y-88969D02*
X244540D01*
G01X243500D02*
Y-96969D01*
G01X242460D02*
X244540D01*
G01X252207Y-89636D02*
X251687Y-89236D01*
X251080Y-88969D01*
X250387D01*
X249607Y-89369D01*
X249000Y-90036D01*
X248567Y-90836D01*
X248220Y-92169D01*
X248133Y-93369D01*
X248307Y-94569D01*
X248567Y-95369D01*
X249087Y-96169D01*
X249693Y-96702D01*
X250300Y-96969D01*
X250907D01*
X251513Y-96702D01*
X252033Y-96302D01*
X252467Y-95769D01*
G01X257100Y-96969D02*
X256407Y-96836D01*
X255800Y-96302D01*
X255280Y-95502D01*
X254933Y-94569D01*
X254760Y-93502D01*
Y-92436D01*
X254933Y-91369D01*
X255280Y-90436D01*
X255800Y-89636D01*
X256407Y-89102D01*
X257100Y-88969D01*
X257793Y-89102D01*
X258400Y-89636D01*
X258920Y-90436D01*
X259267Y-91369D01*
X259440Y-92436D01*
Y-93502D01*
X259267Y-94569D01*
X258920Y-95502D01*
X258400Y-96302D01*
X257793Y-96836D01*
X257100Y-96969D01*
G01X261907D02*
Y-88969D01*
X265893Y-96969D01*
Y-88969D01*
G01X268793Y-96969D02*
Y-88969D01*
X270527D01*
X271220Y-89369D01*
X271740Y-89902D01*
X272173Y-90702D01*
X272520Y-91636D01*
X272607Y-92969D01*
X272520Y-94302D01*
X272173Y-95236D01*
X271740Y-96036D01*
X271220Y-96569D01*
X270527Y-96969D01*
X268793D01*
G01X275593Y-88969D02*
Y-94702D01*
X275940Y-95902D01*
X276633Y-96702D01*
X277500Y-96969D01*
X278367Y-96702D01*
X279060Y-95902D01*
X279407Y-94702D01*
Y-88969D01*
G01X286207Y-89636D02*
X285687Y-89236D01*
X285080Y-88969D01*
X284387D01*
X283607Y-89369D01*
X283000Y-90036D01*
X282567Y-90836D01*
X282220Y-92169D01*
X282133Y-93369D01*
X282307Y-94569D01*
X282567Y-95369D01*
X283087Y-96169D01*
X283693Y-96702D01*
X284300Y-96969D01*
X284907D01*
X285513Y-96702D01*
X286033Y-96302D01*
X286467Y-95769D01*
G01X291100Y-88969D02*
Y-96969D01*
G01X289107Y-88969D02*
X293093D01*
G01X297900Y-96969D02*
X297207Y-96836D01*
X296600Y-96302D01*
X296080Y-95502D01*
X295733Y-94569D01*
X295560Y-93502D01*
Y-92436D01*
X295733Y-91369D01*
X296080Y-90436D01*
X296600Y-89636D01*
X297207Y-89102D01*
X297900Y-88969D01*
X298593Y-89102D01*
X299200Y-89636D01*
X299720Y-90436D01*
X300067Y-91369D01*
X300240Y-92436D01*
Y-93502D01*
X300067Y-94569D01*
X299720Y-95502D01*
X299200Y-96302D01*
X298593Y-96836D01*
X297900Y-96969D01*
G01X302967D02*
Y-88969D01*
X305133D01*
X305827Y-89369D01*
X306260Y-89902D01*
X306433Y-90969D01*
X306260Y-92036D01*
X305740Y-92702D01*
X305133Y-93102D01*
X302967D01*
G01X305133D02*
X306433Y-96969D01*
G01X316393Y-88969D02*
Y-94702D01*
X316740Y-95902D01*
X317433Y-96702D01*
X318300Y-96969D01*
X319167Y-96702D01*
X319860Y-95902D01*
X320207Y-94702D01*
Y-88969D01*
G01X323280Y-95902D02*
X323973Y-96569D01*
X324753Y-96969D01*
X325447D01*
X326140Y-96569D01*
X326660Y-95902D01*
X326920Y-94969D01*
X326747Y-94036D01*
X326313Y-93236D01*
X325533Y-92702D01*
X324493Y-92436D01*
X323887Y-91902D01*
X323627Y-90969D01*
X323800Y-90036D01*
X324233Y-89369D01*
X324840Y-88969D01*
X325447D01*
X326053Y-89236D01*
X326573Y-89902D01*
G01X329733Y-96969D02*
X331900Y-88969D01*
X334067Y-96969D01*
G01X333287Y-94169D02*
X330513D01*
G01X224007Y-144469D02*
Y-136469D01*
X227993Y-144469D01*
Y-136469D01*
G01X230893D02*
Y-142202D01*
X231240Y-143402D01*
X231933Y-144202D01*
X232800Y-144469D01*
X233667Y-144202D01*
X234360Y-143402D01*
X234707Y-142202D01*
Y-136469D01*
G01X237347Y-144469D02*
Y-136469D01*
X239600Y-143136D01*
X241853Y-136469D01*
Y-144469D01*
G01X247093Y-140202D02*
X247440Y-139802D01*
X247700Y-139136D01*
X247873Y-138202D01*
X247700Y-137402D01*
X247353Y-136869D01*
X246747Y-136469D01*
X244407D01*
Y-144469D01*
X247267D01*
X247873Y-143936D01*
X248220Y-143136D01*
X248393Y-142202D01*
X248220Y-141269D01*
X247700Y-140469D01*
X247093Y-140202D01*
X244407D01*
G01X254933Y-144469D02*
X251467D01*
Y-136469D01*
X254933D01*
G01X253547Y-140336D02*
X251467D01*
G01X258267Y-144469D02*
Y-136469D01*
X260433D01*
X261127Y-136869D01*
X261560Y-137402D01*
X261733Y-138469D01*
X261560Y-139536D01*
X261040Y-140202D01*
X260433Y-140602D01*
X258267D01*
G01X260433D02*
X261733Y-144469D01*
G01X333867Y-131969D02*
Y-125969D01*
X335533D01*
X336067Y-126269D01*
X336400Y-126669D01*
X336533Y-127469D01*
X336400Y-128269D01*
X336000Y-128769D01*
X335533Y-129069D01*
X333867D01*
G01X335533D02*
X336533Y-131969D01*
G01X341733D02*
X339067D01*
Y-125969D01*
X341733D01*
G01X340667Y-128869D02*
X339067D01*
G01X343933Y-125969D02*
X345600Y-131969D01*
X347267Y-125969D01*
G01X350800Y-132169D02*
X350667Y-132069D01*
Y-131869D01*
X350800Y-131769D01*
X350933Y-131869D01*
Y-132069D01*
X350800Y-132169D01*
G01X328000Y-124469D02*
Y-146969D01*
G01X339600Y-136469D02*
X338907Y-136736D01*
X338387Y-137402D01*
X338040Y-138202D01*
X337780Y-139269D01*
X337693Y-140469D01*
X337780Y-141669D01*
X338040Y-142736D01*
X338387Y-143536D01*
X338907Y-144202D01*
X339600Y-144469D01*
X340293Y-144202D01*
X340813Y-143536D01*
X341160Y-142736D01*
X341420Y-141669D01*
X341507Y-140469D01*
X341420Y-139269D01*
X341160Y-138202D01*
X340813Y-137402D01*
X340293Y-136736D01*
X339600Y-136469D01*
G01X346400D02*
X345707Y-136736D01*
X345187Y-137402D01*
X344840Y-138202D01*
X344580Y-139269D01*
X344493Y-140469D01*
X344580Y-141669D01*
X344840Y-142736D01*
X345187Y-143536D01*
X345707Y-144202D01*
X346400Y-144469D01*
X347093Y-144202D01*
X347613Y-143536D01*
X347960Y-142736D01*
X348220Y-141669D01*
X348307Y-140469D01*
X348220Y-139269D01*
X347960Y-138202D01*
X347613Y-137402D01*
X347093Y-136736D01*
X346400Y-136469D01*
G01X367390Y-134469D02*
X369210Y-130469D01*
G01X367390D02*
X369210Y-134469D01*
G01X370790D02*
X372610Y-130469D01*
G01X370790D02*
X372610Y-134469D01*
G01X363990Y-140469D02*
X365810Y-136469D01*
G01X363990D02*
X365810Y-140469D01*
G01X367390D02*
X369210Y-136469D01*
G01X367390D02*
X369210Y-140469D01*
G01X370790D02*
X372610Y-136469D01*
G01X370790D02*
X372610Y-140469D01*
G01X358000Y-71969D02*
Y-146969D01*
G01X375000Y-134469D02*
X378000D01*
G01X375000Y-132269D02*
X378000D01*
G01X375000Y-140469D02*
X378000D01*
G01X375000Y-138269D02*
X378000D01*
G01X365347Y-122969D02*
Y-118969D01*
X366213D01*
X366560Y-119169D01*
X366820Y-119436D01*
X367037Y-119836D01*
X367210Y-120302D01*
X367253Y-120969D01*
X367210Y-121636D01*
X367037Y-122102D01*
X366820Y-122502D01*
X366560Y-122769D01*
X366213Y-122969D01*
X365347D01*
G01X370567D02*
X368833D01*
Y-118969D01*
X370567D01*
G01X369873Y-120902D02*
X368833D01*
G01X374053Y-119302D02*
X373793Y-119102D01*
X373490Y-118969D01*
X373143D01*
X372753Y-119169D01*
X372450Y-119502D01*
X372233Y-119902D01*
X372060Y-120569D01*
X372017Y-121169D01*
X372103Y-121769D01*
X372233Y-122169D01*
X372493Y-122569D01*
X372797Y-122836D01*
X373100Y-122969D01*
X373403D01*
X373707Y-122836D01*
X373967Y-122636D01*
X374183Y-122369D01*
G01X375980Y-118969D02*
X377020D01*
G01X376500D02*
Y-122969D01*
G01X375980D02*
X377020D01*
G01X378773D02*
Y-118969D01*
X379900Y-122302D01*
X381027Y-118969D01*
Y-122969D01*
G01X382217D02*
X383300Y-118969D01*
X384383Y-122969D01*
G01X383993Y-121569D02*
X382607D01*
G01X385833Y-118969D02*
Y-122969D01*
X387567D01*
G01X370790Y-128469D02*
X372610Y-124469D01*
G01X370790D02*
X372610Y-128469D01*
G01X375000Y-126269D02*
X378000D01*
G01X375000Y-128469D02*
X378000D01*
G01X374017Y-99469D02*
X375100Y-95469D01*
X376183Y-99469D01*
G01X375793Y-98069D02*
X374407D01*
G01X377633Y-99469D02*
Y-95469D01*
X378717D01*
X379063Y-95669D01*
X379280Y-95936D01*
X379367Y-96469D01*
X379280Y-97002D01*
X379020Y-97336D01*
X378717Y-97536D01*
X377633D01*
G01X378717D02*
X379367Y-99469D01*
G01X382767D02*
X381033D01*
Y-95469D01*
X382767D01*
G01X382073Y-97402D02*
X381033D01*
G01X388180Y-95469D02*
X389220D01*
G01X388700D02*
Y-99469D01*
G01X388180D02*
X389220D01*
G01X391103D02*
Y-95469D01*
X393097Y-99469D01*
Y-95469D01*
G01X398380D02*
X399420D01*
G01X398900D02*
Y-99469D01*
G01X398380D02*
X399420D01*
G01X401303D02*
Y-95469D01*
X403297Y-99469D01*
Y-95469D01*
G01X406653Y-95802D02*
X406393Y-95602D01*
X406090Y-95469D01*
X405743D01*
X405353Y-95669D01*
X405050Y-96002D01*
X404833Y-96402D01*
X404660Y-97069D01*
X404617Y-97669D01*
X404703Y-98269D01*
X404833Y-98669D01*
X405093Y-99069D01*
X405397Y-99336D01*
X405700Y-99469D01*
X406003D01*
X406307Y-99336D01*
X406567Y-99136D01*
X406783Y-98869D01*
G01X408190Y-99469D02*
Y-95469D01*
G01X410010D02*
Y-99469D01*
G01Y-97469D02*
X408190D01*
G01X413367Y-99469D02*
X411633D01*
Y-95469D01*
X413367D01*
G01X412673Y-97402D02*
X411633D01*
G01X414990Y-98936D02*
X415337Y-99269D01*
X415727Y-99469D01*
X416073D01*
X416420Y-99269D01*
X416680Y-98936D01*
X416810Y-98469D01*
X416723Y-98002D01*
X416507Y-97602D01*
X416117Y-97336D01*
X415597Y-97202D01*
X415293Y-96936D01*
X415163Y-96469D01*
X415250Y-96002D01*
X415467Y-95669D01*
X415770Y-95469D01*
X416073D01*
X416377Y-95602D01*
X416637Y-95936D01*
G01X362290Y-91436D02*
X362637Y-91769D01*
X363027Y-91969D01*
X363373D01*
X363720Y-91769D01*
X363980Y-91436D01*
X364110Y-90969D01*
X364023Y-90502D01*
X363807Y-90102D01*
X363417Y-89836D01*
X362897Y-89702D01*
X362593Y-89436D01*
X362463Y-88969D01*
X362550Y-88502D01*
X362767Y-88169D01*
X363070Y-87969D01*
X363373D01*
X363677Y-88102D01*
X363937Y-88436D01*
G01X365733Y-91969D02*
Y-87969D01*
X366773D01*
X367120Y-88169D01*
X367380Y-88636D01*
X367467Y-89169D01*
X367380Y-89702D01*
X367163Y-90102D01*
X366773Y-90302D01*
X365733D01*
G01X370867Y-91969D02*
X369133D01*
Y-87969D01*
X370867D01*
G01X370173Y-89902D02*
X369133D01*
G01X374353Y-88302D02*
X374093Y-88102D01*
X373790Y-87969D01*
X373443D01*
X373053Y-88169D01*
X372750Y-88502D01*
X372533Y-88902D01*
X372360Y-89569D01*
X372317Y-90169D01*
X372403Y-90769D01*
X372533Y-91169D01*
X372793Y-91569D01*
X373097Y-91836D01*
X373400Y-91969D01*
X373703D01*
X374007Y-91836D01*
X374267Y-91636D01*
X374483Y-91369D01*
G01X376280Y-87969D02*
X377320D01*
G01X376800D02*
Y-91969D01*
G01X376280D02*
X377320D01*
G01X379377D02*
Y-87969D01*
X381023D01*
G01X380417Y-89902D02*
X379377D01*
G01X383080Y-87969D02*
X384120D01*
G01X383600D02*
Y-91969D01*
G01X383080D02*
X384120D01*
G01X387867D02*
X386133D01*
Y-87969D01*
X387867D01*
G01X387173Y-89902D02*
X386133D01*
G01X389447Y-91969D02*
Y-87969D01*
X390313D01*
X390660Y-88169D01*
X390920Y-88436D01*
X391137Y-88836D01*
X391310Y-89302D01*
X391353Y-89969D01*
X391310Y-90636D01*
X391137Y-91102D01*
X390920Y-91502D01*
X390660Y-91769D01*
X390313Y-91969D01*
X389447D01*
G01X396247D02*
Y-87969D01*
X397113D01*
X397460Y-88169D01*
X397720Y-88436D01*
X397937Y-88836D01*
X398110Y-89302D01*
X398153Y-89969D01*
X398110Y-90636D01*
X397937Y-91102D01*
X397720Y-91502D01*
X397460Y-91769D01*
X397113Y-91969D01*
X396247D01*
G01X400080Y-87969D02*
X401120D01*
G01X400600D02*
Y-91969D01*
G01X400080D02*
X401120D01*
G01X402873D02*
Y-87969D01*
X404000Y-91302D01*
X405127Y-87969D01*
Y-91969D01*
G01X408267D02*
X406533D01*
Y-87969D01*
X408267D01*
G01X407573Y-89902D02*
X406533D01*
G01X409803Y-91969D02*
Y-87969D01*
X411797Y-91969D01*
Y-87969D01*
G01X413290Y-91436D02*
X413637Y-91769D01*
X414027Y-91969D01*
X414373D01*
X414720Y-91769D01*
X414980Y-91436D01*
X415110Y-90969D01*
X415023Y-90502D01*
X414807Y-90102D01*
X414417Y-89836D01*
X413897Y-89702D01*
X413593Y-89436D01*
X413463Y-88969D01*
X413550Y-88502D01*
X413767Y-88169D01*
X414070Y-87969D01*
X414373D01*
X414677Y-88102D01*
X414937Y-88436D01*
G01X417080Y-87969D02*
X418120D01*
G01X417600D02*
Y-91969D01*
G01X417080D02*
X418120D01*
G01X421000D02*
X420653Y-91902D01*
X420350Y-91636D01*
X420090Y-91236D01*
X419917Y-90769D01*
X419830Y-90236D01*
Y-89702D01*
X419917Y-89169D01*
X420090Y-88702D01*
X420350Y-88302D01*
X420653Y-88036D01*
X421000Y-87969D01*
X421347Y-88036D01*
X421650Y-88302D01*
X421910Y-88702D01*
X422083Y-89169D01*
X422170Y-89702D01*
Y-90236D01*
X422083Y-90769D01*
X421910Y-91236D01*
X421650Y-91636D01*
X421347Y-91902D01*
X421000Y-91969D01*
G01X423403D02*
Y-87969D01*
X425397Y-91969D01*
Y-87969D01*
G01X426890Y-91436D02*
X427237Y-91769D01*
X427627Y-91969D01*
X427973D01*
X428320Y-91769D01*
X428580Y-91436D01*
X428710Y-90969D01*
X428623Y-90502D01*
X428407Y-90102D01*
X428017Y-89836D01*
X427497Y-89702D01*
X427193Y-89436D01*
X427063Y-88969D01*
X427150Y-88502D01*
X427367Y-88169D01*
X427670Y-87969D01*
X427973D01*
X428277Y-88102D01*
X428537Y-88436D01*
G01X369047Y-80469D02*
Y-83336D01*
X369220Y-83936D01*
X369567Y-84336D01*
X370000Y-84469D01*
X370433Y-84336D01*
X370780Y-83936D01*
X370953Y-83336D01*
Y-80469D01*
G01X372403Y-84469D02*
Y-80469D01*
X374397Y-84469D01*
Y-80469D01*
G01X375933D02*
Y-84469D01*
X377667D01*
G01X381067D02*
X379333D01*
Y-80469D01*
X381067D01*
G01X380373Y-82402D02*
X379333D01*
G01X382690Y-83936D02*
X383037Y-84269D01*
X383427Y-84469D01*
X383773D01*
X384120Y-84269D01*
X384380Y-83936D01*
X384510Y-83469D01*
X384423Y-83002D01*
X384207Y-82602D01*
X383817Y-82336D01*
X383297Y-82202D01*
X382993Y-81936D01*
X382863Y-81469D01*
X382950Y-81002D01*
X383167Y-80669D01*
X383470Y-80469D01*
X383773D01*
X384077Y-80602D01*
X384337Y-80936D01*
G01X386090Y-83936D02*
X386437Y-84269D01*
X386827Y-84469D01*
X387173D01*
X387520Y-84269D01*
X387780Y-83936D01*
X387910Y-83469D01*
X387823Y-83002D01*
X387607Y-82602D01*
X387217Y-82336D01*
X386697Y-82202D01*
X386393Y-81936D01*
X386263Y-81469D01*
X386350Y-81002D01*
X386567Y-80669D01*
X386870Y-80469D01*
X387173D01*
X387477Y-80602D01*
X387737Y-80936D01*
G01X393800Y-84469D02*
X393453Y-84402D01*
X393150Y-84136D01*
X392890Y-83736D01*
X392717Y-83269D01*
X392630Y-82736D01*
Y-82202D01*
X392717Y-81669D01*
X392890Y-81202D01*
X393150Y-80802D01*
X393453Y-80536D01*
X393800Y-80469D01*
X394147Y-80536D01*
X394450Y-80802D01*
X394710Y-81202D01*
X394883Y-81669D01*
X394970Y-82202D01*
Y-82736D01*
X394883Y-83269D01*
X394710Y-83736D01*
X394450Y-84136D01*
X394147Y-84402D01*
X393800Y-84469D01*
G01X397200Y-80469D02*
Y-84469D01*
G01X396203Y-80469D02*
X398197D01*
G01X399690Y-84469D02*
Y-80469D01*
G01X401510D02*
Y-84469D01*
G01Y-82469D02*
X399690D01*
G01X404867Y-84469D02*
X403133D01*
Y-80469D01*
X404867D01*
G01X404173Y-82402D02*
X403133D01*
G01X406533Y-84469D02*
Y-80469D01*
X407617D01*
X407963Y-80669D01*
X408180Y-80936D01*
X408267Y-81469D01*
X408180Y-82002D01*
X407920Y-82336D01*
X407617Y-82536D01*
X406533D01*
G01X407617D02*
X408267Y-84469D01*
G01X409500Y-80469D02*
X410107Y-84469D01*
X410800Y-80469D01*
X411493Y-84469D01*
X412100Y-80469D01*
G01X413680D02*
X414720D01*
G01X414200D02*
Y-84469D01*
G01X413680D02*
X414720D01*
G01X416690Y-83936D02*
X417037Y-84269D01*
X417427Y-84469D01*
X417773D01*
X418120Y-84269D01*
X418380Y-83936D01*
X418510Y-83469D01*
X418423Y-83002D01*
X418207Y-82602D01*
X417817Y-82336D01*
X417297Y-82202D01*
X416993Y-81936D01*
X416863Y-81469D01*
X416950Y-81002D01*
X417167Y-80669D01*
X417470Y-80469D01*
X417773D01*
X418077Y-80602D01*
X418337Y-80936D01*
G01X421867Y-84469D02*
X420133D01*
Y-80469D01*
X421867D01*
G01X421173Y-82402D02*
X420133D01*
G01X380300Y-134602D02*
X380213Y-134536D01*
Y-134402D01*
X380300Y-134336D01*
X380387Y-134402D01*
Y-134536D01*
X380300Y-134602D01*
G01X383700Y-130469D02*
X383353Y-130602D01*
X383093Y-130936D01*
X382920Y-131336D01*
X382790Y-131869D01*
X382747Y-132469D01*
X382790Y-133069D01*
X382920Y-133602D01*
X383093Y-134002D01*
X383353Y-134336D01*
X383700Y-134469D01*
X384047Y-134336D01*
X384307Y-134002D01*
X384480Y-133602D01*
X384610Y-133069D01*
X384653Y-132469D01*
X384610Y-131869D01*
X384480Y-131336D01*
X384307Y-130936D01*
X384047Y-130602D01*
X383700Y-130469D01*
G01X386147Y-133669D02*
X386407Y-134136D01*
X386753Y-134402D01*
X387143Y-134469D01*
X387490Y-134402D01*
X387837Y-134069D01*
X388053Y-133669D01*
X388097Y-133269D01*
X388010Y-132802D01*
X387707Y-132469D01*
X387403Y-132336D01*
X387013D01*
G01X387403D02*
X387663Y-132136D01*
X387880Y-131802D01*
X387967Y-131402D01*
X387880Y-131002D01*
X387663Y-130669D01*
X387273Y-130469D01*
X386883Y-130536D01*
X386493Y-130802D01*
G01X380300Y-140602D02*
X380213Y-140536D01*
Y-140402D01*
X380300Y-140336D01*
X380387Y-140402D01*
Y-140536D01*
X380300Y-140602D01*
G01X383700Y-136469D02*
X383353Y-136602D01*
X383093Y-136936D01*
X382920Y-137336D01*
X382790Y-137869D01*
X382747Y-138469D01*
X382790Y-139069D01*
X382920Y-139602D01*
X383093Y-140002D01*
X383353Y-140336D01*
X383700Y-140469D01*
X384047Y-140336D01*
X384307Y-140002D01*
X384480Y-139602D01*
X384610Y-139069D01*
X384653Y-138469D01*
X384610Y-137869D01*
X384480Y-137336D01*
X384307Y-136936D01*
X384047Y-136602D01*
X383700Y-136469D01*
G01X387100Y-140469D02*
Y-136469D01*
X386580Y-137269D01*
G01Y-140469D02*
X387620D01*
G01X390500Y-136469D02*
X390153Y-136602D01*
X389893Y-136936D01*
X389720Y-137336D01*
X389590Y-137869D01*
X389547Y-138469D01*
X389590Y-139069D01*
X389720Y-139602D01*
X389893Y-140002D01*
X390153Y-140336D01*
X390500Y-140469D01*
X390847Y-140336D01*
X391107Y-140002D01*
X391280Y-139602D01*
X391410Y-139069D01*
X391453Y-138469D01*
X391410Y-137869D01*
X391280Y-137336D01*
X391107Y-136936D01*
X390847Y-136602D01*
X390500Y-136469D01*
G01X376500Y-130769D02*
Y-133769D01*
G01Y-136769D02*
Y-139769D01*
G01X380200Y-110469D02*
Y-114469D01*
G01X379203Y-110469D02*
X381197D01*
G01X383600Y-114469D02*
X383253Y-114402D01*
X382950Y-114136D01*
X382690Y-113736D01*
X382517Y-113269D01*
X382430Y-112736D01*
Y-112202D01*
X382517Y-111669D01*
X382690Y-111202D01*
X382950Y-110802D01*
X383253Y-110536D01*
X383600Y-110469D01*
X383947Y-110536D01*
X384250Y-110802D01*
X384510Y-111202D01*
X384683Y-111669D01*
X384770Y-112202D01*
Y-112736D01*
X384683Y-113269D01*
X384510Y-113736D01*
X384250Y-114136D01*
X383947Y-114402D01*
X383600Y-114469D01*
G01X386133Y-110469D02*
Y-114469D01*
X387867D01*
G01X391267D02*
X389533D01*
Y-110469D01*
X391267D01*
G01X390573Y-112402D02*
X389533D01*
G01X392933Y-114469D02*
Y-110469D01*
X394017D01*
X394363Y-110669D01*
X394580Y-110936D01*
X394667Y-111469D01*
X394580Y-112002D01*
X394320Y-112336D01*
X394017Y-112536D01*
X392933D01*
G01X394017D02*
X394667Y-114469D01*
G01X396117D02*
X397200Y-110469D01*
X398283Y-114469D01*
G01X397893Y-113069D02*
X396507D01*
G01X399603Y-114469D02*
Y-110469D01*
X401597Y-114469D01*
Y-110469D01*
G01X404953Y-110802D02*
X404693Y-110602D01*
X404390Y-110469D01*
X404043D01*
X403653Y-110669D01*
X403350Y-111002D01*
X403133Y-111402D01*
X402960Y-112069D01*
X402917Y-112669D01*
X403003Y-113269D01*
X403133Y-113669D01*
X403393Y-114069D01*
X403697Y-114336D01*
X404000Y-114469D01*
X404303D01*
X404607Y-114336D01*
X404867Y-114136D01*
X405083Y-113869D01*
G01X408267Y-114469D02*
X406533D01*
Y-110469D01*
X408267D01*
G01X407573Y-112402D02*
X406533D01*
G01X409890Y-113936D02*
X410237Y-114269D01*
X410627Y-114469D01*
X410973D01*
X411320Y-114269D01*
X411580Y-113936D01*
X411710Y-113469D01*
X411623Y-113002D01*
X411407Y-112602D01*
X411017Y-112336D01*
X410497Y-112202D01*
X410193Y-111936D01*
X410063Y-111469D01*
X410150Y-111002D01*
X410367Y-110669D01*
X410670Y-110469D01*
X410973D01*
X411277Y-110602D01*
X411537Y-110936D01*
G01X380300Y-128602D02*
X380213Y-128536D01*
Y-128402D01*
X380300Y-128336D01*
X380387Y-128402D01*
Y-128536D01*
X380300Y-128602D01*
G01X383700Y-128469D02*
Y-124469D01*
X383180Y-125269D01*
G01Y-128469D02*
X384220D01*
G01X376500Y-124769D02*
Y-127769D01*
G01X397873Y-134969D02*
Y-130969D01*
X399000Y-134302D01*
X400127Y-130969D01*
Y-134969D01*
G01X401317D02*
X402400Y-130969D01*
X403483Y-134969D01*
G01X403093Y-133569D02*
X401707D01*
G01X406753Y-131302D02*
X406493Y-131102D01*
X406190Y-130969D01*
X405843D01*
X405453Y-131169D01*
X405150Y-131502D01*
X404933Y-131902D01*
X404760Y-132569D01*
X404717Y-133169D01*
X404803Y-133769D01*
X404933Y-134169D01*
X405193Y-134569D01*
X405497Y-134836D01*
X405800Y-134969D01*
X406103D01*
X406407Y-134836D01*
X406667Y-134636D01*
X406883Y-134369D01*
G01X408290Y-134969D02*
Y-130969D01*
G01X410110D02*
Y-134969D01*
G01Y-132969D02*
X408290D01*
G01X415177Y-134969D02*
Y-130969D01*
X416823D01*
G01X416217Y-132902D02*
X415177D01*
G01X418880Y-130969D02*
X419920D01*
G01X419400D02*
Y-134969D01*
G01X418880D02*
X419920D01*
G01X421803D02*
Y-130969D01*
X423797Y-134969D01*
Y-130969D01*
G01X425680D02*
X426720D01*
G01X426200D02*
Y-134969D01*
G01X425680D02*
X426720D01*
G01X428690Y-134436D02*
X429037Y-134769D01*
X429427Y-134969D01*
X429773D01*
X430120Y-134769D01*
X430380Y-134436D01*
X430510Y-133969D01*
X430423Y-133502D01*
X430207Y-133102D01*
X429817Y-132836D01*
X429297Y-132702D01*
X428993Y-132436D01*
X428863Y-131969D01*
X428950Y-131502D01*
X429167Y-131169D01*
X429470Y-130969D01*
X429773D01*
X430077Y-131102D01*
X430337Y-131436D01*
G01X432090Y-134969D02*
Y-130969D01*
G01X433910D02*
Y-134969D01*
G01Y-132969D02*
X432090D01*
G01X418500Y-135969D02*
X416200Y-140469D01*
X414700Y-138269D01*
G01X405117Y-122969D02*
X406200Y-118969D01*
X407283Y-122969D01*
G01X406893Y-121569D02*
X405507D01*
G01X408603Y-122969D02*
Y-118969D01*
X410597Y-122969D01*
Y-118969D01*
G01X413260Y-120969D02*
X414127D01*
Y-122169D01*
X413867Y-122569D01*
X413563Y-122836D01*
X413130Y-122969D01*
X412697Y-122836D01*
X412393Y-122569D01*
X412133Y-122169D01*
X411960Y-121702D01*
X411873Y-121169D01*
Y-120702D01*
X411960Y-120302D01*
X412133Y-119836D01*
X412393Y-119436D01*
X412653Y-119169D01*
X413000Y-118969D01*
X413303D01*
X413650Y-119102D01*
X413910Y-119369D01*
G01X415533Y-118969D02*
Y-122969D01*
X417267D01*
G01X420667D02*
X418933D01*
Y-118969D01*
X420667D01*
G01X419973Y-120902D02*
X418933D01*
G01X416847Y-128169D02*
X417107Y-128636D01*
X417453Y-128902D01*
X417843Y-128969D01*
X418190Y-128902D01*
X418537Y-128569D01*
X418753Y-128169D01*
X418797Y-127769D01*
X418710Y-127302D01*
X418407Y-126969D01*
X418103Y-126836D01*
X417713D01*
G01X418103D02*
X418363Y-126636D01*
X418580Y-126302D01*
X418667Y-125902D01*
X418580Y-125502D01*
X418363Y-125169D01*
X417973Y-124969D01*
X417583Y-125036D01*
X417193Y-125302D01*
G01X421200Y-124969D02*
X420853Y-125102D01*
X420593Y-125436D01*
X420420Y-125836D01*
X420290Y-126369D01*
X420247Y-126969D01*
X420290Y-127569D01*
X420420Y-128102D01*
X420593Y-128502D01*
X420853Y-128836D01*
X421200Y-128969D01*
X421547Y-128836D01*
X421807Y-128502D01*
X421980Y-128102D01*
X422110Y-127569D01*
X422153Y-126969D01*
X422110Y-126369D01*
X421980Y-125836D01*
X421807Y-125436D01*
X421547Y-125102D01*
X421200Y-124969D01*
G01X411700Y-126269D02*
X414700D01*
G01X411700Y-128469D02*
X414700D01*
G01X413200Y-124769D02*
Y-127769D01*
G01X417000Y-135969D02*
X420000D01*
M02*
