G04 ================== begin FILE IDENTIFICATION RECORD ==================*
G04 Layout Name:  E:/gerber/BD9G341EFJ-E2EVK-101_BRD_REV00_2014-11-05.brd*
G04 Film Name:    L4_BOTTOM*
G04 File Format:  Gerber RS274X*
G04 File Origin:  Cadence Allegro 16.5-S049*
G04 Origin Date:  Wed Nov 05 15:46:37 2014*
G04 *
G04 Layer:  VIA CLASS/BOTTOM*
G04 Layer:  PIN/BOTTOM*
G04 Layer:  ETCH/BOTTOM*
G04 Layer:  DRAWING FORMAT/BOTTOM*
G04 Layer:  BOARD GEOMETRY/OUTLINE*
G04 Layer:  BOARD GEOMETRY/LOGO_M*
G04 *
G04 Offset:    (0.000 0.000)*
G04 Mirror:    No*
G04 Mode:      Positive*
G04 Rotation:  0*
G04 FullContactRelief:  No*
G04 UndefLineWidth:     6.000*
G04 ================== end FILE IDENTIFICATION RECORD ====================*
%FSLAX55Y55*MOIN*%
%IR0*IPPOS*OFA0.00000B0.00000*MIA0B0*SFA1.00000B1.00000*%
%ADD10C,.25*%
%ADD13C,.04*%
%ADD14C,.06*%
%ADD11C,.024*%
%ADD12C,.093*%
%ADD15R,.06X.06*%
%ADD16C,.007098*%
%ADD17C,.02*%
%ADD18C,.006*%
%ADD19C,.120004*%
%ADD22C,.270004*%
%ADD24C,.173004*%
%ADD20R,.080004X.080004*%
%ADD21C,.080004*%
%ADD23C,.056004*%
G75*
%LPD*%
G75*
G36*
G01X273000Y273000D02*
Y2500D01*
X2500D01*
Y273000D01*
X273000D01*
G37*
%LPC*%
G75*
G36*
G01X101828Y153500D02*
X116239D01*
G02X115136Y149500I1261J-2500D01*
G01X100172D01*
X96000Y153672D01*
Y158672D01*
X86500Y168171D01*
Y175000D01*
G02X90500I2000J0D01*
G01Y169828D01*
X100000Y160328D01*
Y155328D01*
X101828Y153500D01*
G37*
G36*
G01X260055Y226774D02*
Y166815D01*
G02X256055I-2000J-5284D01*
G01Y225116D01*
X254172Y227000D01*
X140328D01*
X136500Y223172D01*
Y185872D01*
X133564Y182936D01*
G02X130736Y185764I-1414J1414D01*
G01X132500Y187528D01*
Y224828D01*
X138672Y231000D01*
X255828D01*
X260055Y226774D01*
G37*
G54D19*
X88000Y156500D03*
X55000Y161500D03*
G54D22*
X258055Y258090D03*
X17500D03*
Y17531D03*
X258055D03*
G54D24*
X15000Y161531D03*
G54D20*
X60000Y195000D03*
G54D21*
X70000D03*
G54D23*
X235500Y151000D03*
X211000Y147500D03*
X150500Y159500D03*
%LPD*%
G75*
G54D10*
X17500Y17531D03*
Y258090D03*
X258055Y17531D03*
Y258090D03*
G54D11*
X4000Y24000D03*
Y34000D03*
Y44000D03*
Y54000D03*
Y64000D03*
Y74000D03*
Y84000D03*
Y94000D03*
Y104000D03*
Y114000D03*
Y124000D03*
Y134000D03*
Y144000D03*
Y154000D03*
Y164000D03*
Y174000D03*
Y184000D03*
Y194000D03*
Y204000D03*
Y214000D03*
Y224000D03*
Y234000D03*
Y244000D03*
Y264000D03*
X24000Y4000D03*
X34000D03*
Y14000D03*
Y24000D03*
Y44000D03*
X14000Y34000D03*
X24000D03*
X34000D03*
X14000Y44000D03*
X24000D03*
X14000Y54000D03*
X24000D03*
X14000Y64000D03*
X24000D03*
X14000Y74000D03*
X24000D03*
X14000Y84000D03*
X24000D03*
X14000Y94000D03*
X24000D03*
X34000D03*
X24000Y104000D03*
X34000D03*
X24000Y114000D03*
X34000D03*
X24000Y124000D03*
X34000D03*
X14000Y134000D03*
X24000D03*
X14000Y144000D03*
X24000D03*
X14000Y194000D03*
X24000D03*
X34000D03*
X14000Y204000D03*
X24000D03*
X34000D03*
X14000Y214000D03*
X24000D03*
X34000D03*
X14000Y224000D03*
X24000D03*
X34000D03*
X14000Y234000D03*
X24000D03*
X34000D03*
X14000Y244000D03*
X24000D03*
X34000D03*
Y254000D03*
Y271500D03*
Y264000D03*
X44000Y4000D03*
X54000D03*
Y14000D03*
X44000Y24000D03*
X54000Y44000D03*
X44000D03*
X54000Y34000D03*
X44000D03*
X54000Y94000D03*
X44000D03*
Y104000D03*
X54000D03*
X44000Y114000D03*
X54000D03*
X44000Y124000D03*
X54000Y187500D03*
X44000D03*
Y194000D03*
X54000D03*
X44000Y214000D03*
X54000D03*
X44000Y204000D03*
X54000D03*
X44000Y224000D03*
X54000D03*
X44000Y234000D03*
X54000D03*
X44000Y244000D03*
X54000D03*
X44000Y254000D03*
X54000D03*
X44000Y271500D03*
X54000D03*
X44000Y264000D03*
X54000D03*
X64000Y4000D03*
X74000D03*
X64500Y24000D03*
X74500D03*
X54500D03*
X64000Y14000D03*
X74000D03*
X64000Y44000D03*
X74000D03*
X64000Y34000D03*
X74000D03*
X64000Y94000D03*
X74000D03*
X67000Y110500D03*
X62000D03*
X72000D03*
X64000Y104000D03*
X74000D03*
X58500Y134000D03*
X67000Y125500D03*
Y130500D03*
X62000Y125500D03*
Y130500D03*
X67000Y120500D03*
Y115500D03*
X62000Y120500D03*
Y115500D03*
X72000Y125500D03*
Y130500D03*
Y120500D03*
Y115500D03*
X58500Y138500D03*
Y143500D03*
X66000Y176000D03*
X71000D03*
X62000D03*
X71000Y184500D03*
X66000D03*
X62000D03*
Y188500D03*
X66000D03*
X71000D03*
X64000Y214000D03*
X74000D03*
X64000Y204000D03*
X74000D03*
X64000Y224000D03*
X74000D03*
X64000Y234000D03*
X74000D03*
X64000Y244000D03*
X74000D03*
X64000Y254000D03*
X74000D03*
Y271500D03*
X64000D03*
Y264000D03*
X74000D03*
X84000Y4000D03*
X94000D03*
X84000Y24000D03*
X94000D03*
X84000Y14000D03*
X94000D03*
X84000Y44000D03*
X94000D03*
X84000Y34000D03*
X94000D03*
Y84000D03*
Y74000D03*
X77000Y110500D03*
X82000D03*
X87000D03*
X92000D03*
X84000Y94000D03*
X94000D03*
X84000Y104000D03*
X94000D03*
X82000Y130500D03*
Y125500D03*
X77000Y130500D03*
Y125500D03*
Y115500D03*
Y120500D03*
X82000Y115500D03*
Y120500D03*
X87000Y115500D03*
Y120500D03*
X92000D03*
Y115500D03*
X87000Y125500D03*
Y130500D03*
X92000Y125500D03*
Y130500D03*
X84500Y144000D03*
X92000Y144500D03*
X86500Y140000D03*
X92000Y135500D03*
X91500Y140000D03*
X80000Y172500D03*
X83500Y170000D03*
X76000Y176000D03*
X80000Y177500D03*
X83500Y180000D03*
X75000Y184500D03*
Y188500D03*
X80000Y183000D03*
X83500Y175000D03*
X75500Y180000D03*
X88500Y175000D03*
X84000Y214000D03*
X94000D03*
X84000Y204000D03*
X94000D03*
X84000Y224000D03*
X94000D03*
X84000Y234000D03*
X94000D03*
X84000Y244000D03*
X94000D03*
X84000Y254000D03*
X94000D03*
Y271500D03*
X84000D03*
Y264000D03*
X94000D03*
X104000Y4000D03*
X114000D03*
X104000Y24000D03*
Y14000D03*
X114000D03*
Y24000D03*
X104000Y44000D03*
X114000D03*
X104000Y34000D03*
X114000D03*
X104000Y74000D03*
X114000D03*
X104000Y84000D03*
X114000D03*
X107000Y110500D03*
X112000D03*
X97000D03*
X102000D03*
X104000Y94000D03*
X114000D03*
X104000Y104000D03*
X114000D03*
X107000Y115500D03*
X112000D03*
X107000Y120500D03*
X112000D03*
X97000D03*
Y115500D03*
X102000D03*
Y120500D03*
X97000Y125500D03*
Y130500D03*
X112000Y125500D03*
X107000D03*
X102000D03*
X107000Y130500D03*
X102000D03*
X103500Y148000D03*
X96500Y144500D03*
X97000Y135500D03*
X96500Y140000D03*
X112000Y135500D03*
X107000D03*
X102000D03*
X112000Y140000D03*
X107000D03*
X102000D03*
X111500Y144500D03*
X102000D03*
X111500Y148500D03*
X107000D03*
X102000Y155000D03*
X107000D03*
X112000D03*
Y171000D03*
Y167000D03*
Y163000D03*
Y159000D03*
X107000D03*
Y163000D03*
Y167000D03*
Y171000D03*
X102000Y159000D03*
Y163000D03*
Y167000D03*
Y171000D03*
X112000Y191500D03*
X107000D03*
X102500D03*
X112000Y187500D03*
X107000D03*
X102500D03*
X112000Y183500D03*
X107000D03*
X102500D03*
X112000Y179500D03*
X107000D03*
X102500D03*
X112000Y175500D03*
X107000D03*
X102500D03*
X114000Y214000D03*
X104000D03*
X102000Y205000D03*
X112000D03*
Y195500D03*
X107000D03*
X102500D03*
X104000Y224000D03*
X114000D03*
X104000Y234000D03*
X114000D03*
X104000Y244000D03*
X114000D03*
X104000Y254000D03*
X114000D03*
Y271500D03*
X104000D03*
Y264000D03*
X114000D03*
X124000Y4000D03*
X134000D03*
X124000Y14000D03*
X134000D03*
X124000Y24000D03*
X134000D03*
X124000Y44000D03*
X134000D03*
X124000Y34000D03*
X134000D03*
X124000Y74000D03*
X134000D03*
X124000Y84000D03*
X134000D03*
X133000Y109000D03*
X127500Y110500D03*
X133000Y113500D03*
X122000Y110500D03*
X117000D03*
X124000Y94000D03*
X134000D03*
X124000Y104000D03*
X134000D03*
X133000Y118000D03*
Y122500D03*
X131500Y127500D03*
X127000D03*
X131500Y131000D03*
X127000D03*
X122000Y125500D03*
Y130500D03*
Y120500D03*
Y115500D03*
X117000Y125500D03*
Y130500D03*
Y120500D03*
Y115500D03*
Y135500D03*
X132150Y184350D03*
X131500Y191500D03*
X131000Y188000D03*
X127000Y191500D03*
Y187500D03*
X122000Y191500D03*
X117000D03*
X122000Y187500D03*
X117000D03*
X122000Y183500D03*
X117000D03*
X122000Y179500D03*
X117000D03*
X122000Y175500D03*
X117000D03*
X130500Y214000D03*
X124000D03*
X131500Y195500D03*
X127000D03*
X122000Y205000D03*
X131000D03*
X122000Y195500D03*
X117000D03*
X130500Y224000D03*
X124000D03*
Y234000D03*
X134000D03*
X124000Y244000D03*
X134000D03*
X124000Y254000D03*
X134000D03*
Y271500D03*
X124000D03*
Y264000D03*
X134000D03*
X144000Y4000D03*
X154000D03*
X144000Y14000D03*
X154000D03*
X144000Y24000D03*
X154000D03*
X144000Y44000D03*
X154000D03*
X144000Y34000D03*
X154000D03*
X144000Y74000D03*
X154000D03*
X144000Y84000D03*
X154000D03*
X141000Y109000D03*
X137000D03*
X147500Y111000D03*
X141000Y113500D03*
X137000D03*
X144000Y94000D03*
X154000D03*
X144000Y104000D03*
X154000D03*
X153500Y133000D03*
X141000Y118000D03*
X137000D03*
X141000Y122500D03*
X137000D03*
X147000Y127500D03*
X142000D03*
X137000D03*
X147000Y131000D03*
X142000D03*
X137000D03*
X154000Y114000D03*
Y164500D03*
X145000Y164000D03*
Y174000D03*
X154000D03*
X145000Y184000D03*
X154000D03*
X144000Y194000D03*
X154000D03*
X144000Y214000D03*
X138000Y204000D03*
X144000D03*
X154000D03*
Y214000D03*
X144000Y224000D03*
X154000D03*
X144000Y234000D03*
X154000D03*
X144000Y244000D03*
X154000D03*
X144000Y254000D03*
X154000D03*
Y271500D03*
X144000D03*
Y264000D03*
X154000D03*
X164000Y4000D03*
X174000D03*
X164000Y14000D03*
X174000D03*
X164000Y24000D03*
X174000D03*
X164000Y44000D03*
Y34000D03*
X174000D03*
Y44000D03*
X164000Y74000D03*
X174000D03*
X164000Y84000D03*
X174000D03*
X164000Y94000D03*
X174000D03*
X164000Y104000D03*
X174000D03*
X164000Y114000D03*
X174000D03*
X164000Y124000D03*
X174000D03*
Y176500D03*
X164000D03*
Y184000D03*
X174000D03*
X164000Y194000D03*
X174000D03*
X164000Y204000D03*
X174000D03*
X164000Y214000D03*
X174000D03*
X164000Y224000D03*
Y234000D03*
X174000Y224000D03*
Y234000D03*
X164000Y244000D03*
X174000D03*
X164000Y254000D03*
X174000D03*
Y271500D03*
X164000D03*
Y264000D03*
X174000D03*
X184000Y4000D03*
X194000D03*
X184000Y14000D03*
X194000D03*
X184000Y24000D03*
X194000D03*
Y44000D03*
Y34000D03*
X184000D03*
Y44000D03*
X194000Y64000D03*
Y54000D03*
X184000D03*
Y64000D03*
X194000Y84000D03*
Y74000D03*
X184000D03*
Y84000D03*
Y94000D03*
X194000D03*
X184000Y104000D03*
X194000D03*
X184000Y114000D03*
X194000D03*
X184000Y124000D03*
X194000D03*
Y176500D03*
X184000D03*
Y184000D03*
X194000D03*
X184000Y194000D03*
X194000D03*
X184000Y204000D03*
X194000D03*
X184000Y214000D03*
X194000D03*
X184000Y224000D03*
X194000D03*
X184000Y234000D03*
X194000D03*
X184000Y244000D03*
X194000D03*
X184000Y254000D03*
X194000D03*
Y271500D03*
X184000D03*
Y264000D03*
X194000D03*
X204000Y4000D03*
X214000D03*
X204000Y14000D03*
X214000D03*
X204000Y24000D03*
X214000D03*
Y104000D03*
X204000Y94000D03*
X214000D03*
X204000Y104000D03*
X207000Y128500D03*
X212500Y125000D03*
X215000Y129000D03*
X211000Y132000D03*
X207000Y133500D03*
X215000D03*
X204000Y114000D03*
X214000D03*
X204000Y124000D03*
X207000Y137500D03*
X215000D03*
X205000Y166000D03*
X204000Y176500D03*
X214000D03*
X204000Y184000D03*
X214000D03*
X204000Y194000D03*
X214000D03*
X204000Y204000D03*
X214000D03*
X204000Y214000D03*
X214000D03*
X204000Y224000D03*
X214000D03*
X204000Y234000D03*
X214000D03*
X204000Y244000D03*
X214000D03*
X204000Y254000D03*
X214000D03*
Y271500D03*
X204000D03*
Y264000D03*
X214000D03*
X224000Y4000D03*
X234000D03*
X224000Y14000D03*
Y24000D03*
X234000D03*
X224000Y94000D03*
X234000D03*
X224000Y104000D03*
X234000D03*
X222500Y120000D03*
X217500D03*
X234000D03*
X229500Y125000D03*
X226500Y133500D03*
Y129500D03*
X224000Y114000D03*
X234000D03*
X220500Y125000D03*
X226500Y137500D03*
X224000Y184000D03*
X234000D03*
X224000Y194000D03*
X234000D03*
X224000Y204000D03*
X234000D03*
X224000Y214000D03*
X234000D03*
X224000Y224000D03*
X234000D03*
X224000Y234000D03*
X234000D03*
X224000Y244000D03*
X234000D03*
X224000Y254000D03*
X234000Y271500D03*
X224000D03*
Y264000D03*
X234000D03*
X244000Y4000D03*
Y24000D03*
Y94000D03*
X254000D03*
X244000Y104000D03*
Y120000D03*
Y114000D03*
X243000Y133500D03*
Y125000D03*
Y129500D03*
X254000Y134000D03*
X243000Y137500D03*
X244000Y184000D03*
X254000D03*
X244000Y194000D03*
X254000Y204000D03*
X244000Y214000D03*
X254000D03*
X244000Y224000D03*
X254000D03*
X244000Y234000D03*
X254000D03*
X244000Y244000D03*
X254000D03*
X244000Y254000D03*
Y271500D03*
Y264000D03*
X271500Y4000D03*
X264000D03*
X271500Y25000D03*
Y44000D03*
Y34000D03*
X264000D03*
Y44000D03*
X271500Y64000D03*
Y54000D03*
X264000D03*
Y64000D03*
X271500Y84000D03*
Y74000D03*
X264000D03*
Y84000D03*
X271500Y104000D03*
Y94000D03*
X264000D03*
X271500Y124000D03*
Y134000D03*
Y114000D03*
X264000Y134000D03*
X271500Y154000D03*
Y144000D03*
Y164000D03*
Y174000D03*
Y184000D03*
Y194000D03*
X264000Y184000D03*
Y194000D03*
X271500Y204000D03*
Y214000D03*
X264000Y204000D03*
Y214000D03*
X271500Y234000D03*
Y224000D03*
X264000D03*
Y234000D03*
X271500Y252500D03*
Y244000D03*
X264000D03*
X271000Y271500D03*
G54D12*
X15000Y114531D03*
Y161531D03*
X258055Y114531D03*
Y161531D03*
G54D13*
X34500Y188000D03*
X54500Y125500D03*
X55000Y161500D03*
X87000Y135500D03*
X88000Y156500D03*
X112000Y130500D03*
X107000Y144500D03*
X117500Y151000D03*
X154000Y124000D03*
X150500Y159500D03*
X150000Y178500D03*
Y199000D03*
X210000Y109000D03*
Y119500D03*
X211000Y147500D03*
X209500Y171000D03*
X229000Y109000D03*
Y119500D03*
X235500Y124500D03*
Y151000D03*
X229500Y178000D03*
G54D14*
X70000Y195000D03*
X80000D03*
G54D15*
X60000D03*
G54D16*
G01X334540Y-118219D02*
Y-119869D01*
G01Y-116559D02*
Y-118219D01*
G01X332610D02*
X334540D01*
G01Y-116559D02*
X332270D01*
G01X331710Y-119869D02*
X332610Y-118219D01*
G01X332330D02*
X332610D01*
G01X332160Y-118199D02*
X332330Y-118219D01*
G01X332000Y-118149D02*
X332160Y-118199D01*
G01X331850Y-118079D02*
X332000Y-118149D01*
G01X331720Y-117969D02*
X331850Y-118079D01*
G01X331610Y-117839D02*
X331720Y-117969D01*
G01X331540Y-117689D02*
X331610Y-117839D01*
G01X331490Y-117529D02*
X331540Y-117689D01*
G01X331600Y-116919D02*
X331530Y-117049D01*
G01X331700Y-116789D02*
X331600Y-116919D01*
G01X331830Y-116689D02*
X331700Y-116789D01*
G01X331960Y-116619D02*
X331830Y-116689D01*
G01X332110Y-116579D02*
X331960Y-116619D01*
G01X332270Y-116559D02*
X332110Y-116579D01*
G01X331470Y-117359D02*
X331490Y-117529D01*
G01Y-117199D02*
X331470Y-117359D01*
G01X331530Y-117049D02*
X331490Y-117199D01*
G01X334540Y-101759D02*
Y-112069D01*
G01X331470D02*
Y-102109D01*
G01X334540Y-112069D02*
X331470D01*
G01Y-111619D02*
X334540D01*
G01Y-110919D02*
X331470D01*
G01Y-110229D02*
X334540D01*
G01X347060Y-99819D02*
X332780D01*
G01X345510Y-99119D02*
X334360D01*
G01X336800Y-100499D02*
X336040D01*
G01X335660Y-98909D02*
X336820Y-98849D01*
G01X332000Y-100509D02*
X335960D01*
G01X336040Y-100499D02*
X335530Y-100569D01*
G01X335050Y-100739D02*
X334830Y-100939D01*
G01X335530Y-100569D02*
X335050Y-100739D01*
G01X334500Y-99079D02*
X335660Y-98909D01*
G01X334540Y-103979D02*
X331470D01*
G01Y-103289D02*
X334540D01*
G01Y-102589D02*
X331470D01*
G01X331490Y-101899D02*
X334540D01*
G01X334570Y-101459D02*
X334540Y-101759D01*
G01X334660Y-101199D02*
X331630D01*
G01X334670Y-101179D02*
X334570Y-101459D01*
G01X334830Y-100939D02*
X334670Y-101179D01*
G01X333720Y-99299D02*
X334500Y-99079D01*
G01X332990Y-99659D02*
X333720Y-99299D01*
G01X332340Y-100139D02*
X332990Y-99659D01*
G01X331960Y-100549D02*
X332340Y-100139D01*
G01X331680Y-101029D02*
X331960Y-100549D01*
G01X331520Y-101559D02*
X331680Y-101029D01*
G01X331470Y-102109D02*
X331520Y-101559D01*
G01X334540Y-109529D02*
X331470D01*
G01Y-108839D02*
X334540D01*
G01Y-108139D02*
X331470D01*
G01Y-107449D02*
X334540D01*
G01Y-106759D02*
X331470D01*
G01Y-106059D02*
X334540D01*
G01Y-105369D02*
X331470D01*
G01Y-104669D02*
X334540D01*
G01X354840Y-118849D02*
X354860Y-118629D01*
G01X354790Y-119049D02*
X354840Y-118849D01*
G01X354690Y-119249D02*
X354790Y-119049D01*
G01X354570Y-119429D02*
X354690Y-119249D01*
G01X354420Y-119579D02*
X354570Y-119429D01*
G01X354850Y-118629D02*
Y-116559D01*
G01X354240Y-119699D02*
X354420Y-119579D01*
G01X354040Y-119799D02*
X354240Y-119699D01*
G01X353840Y-119849D02*
X354040Y-119799D01*
G01X353620Y-119869D02*
X353840Y-119849D01*
G01X353100Y-119869D02*
X353620D01*
G01X352870Y-119849D02*
X353100Y-119869D01*
G01X352650Y-119789D02*
X352870Y-119849D01*
G01X352440Y-119689D02*
X352650Y-119789D01*
G01X352260Y-119559D02*
X352440Y-119689D01*
G01X352100Y-119399D02*
X352260Y-119559D01*
G01X351970Y-119209D02*
X352100Y-119399D01*
G01X351870Y-119009D02*
X351970Y-119209D01*
G01X351810Y-118789D02*
X351870Y-119009D01*
G01X351790Y-118559D02*
X351810Y-118789D01*
G01X351780Y-116559D02*
Y-118559D01*
G01X349640Y-118989D02*
X349660Y-118799D01*
G01X349600Y-119169D02*
X349640Y-118989D01*
G01X349520Y-119329D02*
X349600Y-119169D01*
G01X349410Y-119489D02*
X349520Y-119329D01*
G01X349280Y-119619D02*
X349410Y-119489D01*
G01X349660Y-118799D02*
Y-117599D01*
G01X349640Y-117419D02*
X349600Y-117239D01*
G01X349660Y-117599D02*
X349640Y-117419D01*
G01X349420Y-116929D02*
X349290Y-116799D01*
G01X349520Y-117079D02*
X349420Y-116929D01*
G01X349600Y-117239D02*
X349520Y-117079D01*
G01X349130Y-119729D02*
X349280Y-119619D01*
G01X348960Y-119809D02*
X349130Y-119729D01*
G01X348780Y-119849D02*
X348960Y-119809D01*
G01X348590Y-119869D02*
X348780Y-119849D01*
G01X348800Y-116579D02*
X348620Y-116559D01*
G01X348980Y-116619D02*
X348800Y-116579D01*
G01X349140Y-116699D02*
X348980Y-116619D01*
G01X349290Y-116799D02*
X349140Y-116699D01*
G01X346820Y-119869D02*
X348590D01*
G01X348620Y-116559D02*
X346820D01*
G01X350600Y-112069D02*
Y-99319D01*
G01X347060D02*
Y-112069D01*
G01X353910D02*
X350600D01*
G01X347060D02*
X343990D01*
G01X353910Y-106999D02*
Y-112069D01*
G01Y-111619D02*
X350600D01*
G01Y-110919D02*
X353910D01*
G01Y-110229D02*
X350600D01*
G01X343990Y-111619D02*
X347060D01*
G01Y-110919D02*
X343990D01*
G01Y-110229D02*
X347060D01*
G01X339250Y-119729D02*
X339060Y-119809D01*
G01X339430Y-119619D02*
X339250Y-119729D01*
G01X339590Y-119489D02*
X339430Y-119619D01*
G01X339720Y-119329D02*
X339590Y-119489D01*
G01X339520Y-116859D02*
X339680Y-117019D01*
G01X339330Y-116729D02*
X339520Y-116859D01*
G01X339130Y-116639D02*
X339330Y-116729D01*
G01X344930Y-116559D02*
X343520D01*
G01D02*
Y-119869D01*
G01X342100Y-116559D02*
X343520D01*
G01X339830Y-119149D02*
X339720Y-119329D01*
G01X339910Y-118959D02*
X339830Y-119149D01*
G01X339950Y-118759D02*
X339910Y-118959D01*
G01X339970Y-118559D02*
X339950Y-118759D01*
G01X339970Y-117849D02*
Y-118559D01*
G01X339960Y-117629D02*
X339980Y-117849D01*
G01X339900Y-117409D02*
X339960Y-117629D01*
G01X339810Y-117199D02*
X339900Y-117409D01*
G01X339680Y-117019D02*
X339810Y-117199D01*
G01X338660Y-119869D02*
X337970D01*
G01X338860Y-119849D02*
X338660Y-119869D01*
G01X339060Y-119809D02*
X338860Y-119849D01*
G01X338910Y-116579D02*
X339130Y-116639D01*
G01X338690Y-116559D02*
X338910Y-116579D01*
G01X337950Y-116559D02*
X338690D01*
G01X337530Y-119789D02*
X337320Y-119699D01*
G01X337740Y-119849D02*
X337530Y-119789D01*
G01X337970Y-119869D02*
X337740Y-119849D01*
G01X337730Y-116579D02*
X337950Y-116559D01*
G01X337510Y-116639D02*
X337730Y-116579D01*
G01X337310Y-116729D02*
X337510Y-116639D01*
G01X336750Y-119009D02*
X336690Y-118799D01*
G01X336840Y-119219D02*
X336750Y-119009D01*
G01X336970Y-119409D02*
X336840Y-119219D01*
G01X337130Y-119569D02*
X336970Y-119409D01*
G01X337320Y-119699D02*
X337130Y-119569D01*
G01Y-116859D02*
X337310Y-116729D01*
G01X336970Y-117019D02*
X337130Y-116859D01*
G01X336840Y-117199D02*
X336970Y-117019D01*
G01X336750Y-117399D02*
X336840Y-117199D01*
G01X336690Y-117619D02*
X336750Y-117399D01*
G01X336690Y-118799D02*
X336670Y-118569D01*
G01D02*
Y-117839D01*
G01D02*
X336690Y-117619D01*
G01X343990Y-112069D02*
Y-101329D01*
G01X340920Y-101299D02*
Y-112069D01*
G01X337610D02*
Y-101309D01*
G01X340920Y-112069D02*
X337610D01*
G01Y-111619D02*
X340920D01*
G01Y-110919D02*
X337610D01*
G01Y-110229D02*
X340920D01*
G01X354140Y-104289D02*
X354300Y-104409D01*
G01X354020Y-104119D02*
X354140Y-104289D01*
G01X353960Y-103979D02*
X350600D01*
G01X353940Y-103929D02*
X354020Y-104119D01*
G01X353910Y-103729D02*
X353940Y-103929D01*
G01X353910Y-99319D02*
Y-103729D01*
G01X350600Y-103289D02*
X353910D01*
G01X350600Y-101899D02*
X353910D01*
G01Y-102589D02*
X350600D01*
G01X353910Y-101199D02*
X350600D01*
G01Y-100509D02*
X353910D01*
G01Y-99819D02*
X350600D01*
G01Y-99319D02*
X353910D01*
G01X347060Y-103979D02*
X343990D01*
G01Y-103289D02*
X347060D01*
G01X343990Y-101899D02*
X347060D01*
G01Y-102589D02*
X343990D01*
G01X347060Y-101199D02*
X343970D01*
G01X343240Y-100509D02*
X347060D01*
G01X344120Y-98939D02*
X347060Y-99319D01*
G01X364300Y-106059D02*
X350600D01*
G01Y-105369D02*
X364300D01*
G01Y-104669D02*
X350600D01*
G01X360220Y-106169D02*
X354740D01*
G01X354690Y-104509D02*
X360190D01*
G01X354740Y-106169D02*
X354530Y-106199D01*
G01X354490Y-104489D02*
X354690Y-104509D01*
G01X350600Y-109529D02*
X353910D01*
G01Y-108839D02*
X350600D01*
G01Y-108139D02*
X353910D01*
G01Y-107449D02*
X350600D01*
G01X353940Y-106779D02*
X353910Y-106999D01*
G01X350600Y-106759D02*
X353950D01*
G01X354020Y-106579D02*
X353940Y-106779D01*
G01X354150Y-106409D02*
X354020Y-106579D01*
G01X354320Y-106279D02*
X354150Y-106409D01*
G01X354530Y-106199D02*
X354320Y-106279D01*
G01X354300Y-104409D02*
X354490Y-104489D01*
G01X347060Y-109529D02*
X343990D01*
G01Y-108839D02*
X347060D01*
G01Y-108139D02*
X343990D01*
G01Y-107449D02*
X347060D01*
G01X343990Y-106059D02*
X347060D01*
G01Y-106759D02*
X343990D01*
G01X347060Y-105369D02*
X343990D01*
G01Y-104669D02*
X347060D01*
G01X343880Y-100909D02*
X343750Y-100739D01*
G01X343960Y-101109D02*
X343880Y-100909D01*
G01X343990Y-101329D02*
X343960Y-101109D01*
G01X343570Y-100609D02*
X343380Y-100529D01*
G01X343750Y-100739D02*
X343570Y-100609D01*
G01X341150Y-98849D02*
X344120Y-98939D01*
G01X343160Y-100499D02*
X341720D01*
G01X343380Y-100529D02*
X343160Y-100499D01*
G01X336880Y-100509D02*
X341640D01*
G01X341030Y-100899D02*
X340940Y-101089D01*
G01X341150Y-100729D02*
X341030Y-100899D01*
G01X341320Y-100609D02*
X341150Y-100729D01*
G01X341510Y-100529D02*
X341320Y-100609D01*
G01X341720Y-100499D02*
X341510Y-100529D01*
G01X336820Y-98849D02*
X341150D01*
G01X340920Y-103979D02*
X337610D01*
G01Y-103289D02*
X340920D01*
G01Y-102589D02*
X337610D01*
G01Y-101899D02*
X340920D01*
G01X340930Y-101199D02*
X337600D01*
G01X340940Y-101089D02*
X340920Y-101299D01*
G01X337580Y-101099D02*
X337500Y-100899D01*
G01X337610Y-101309D02*
X337580Y-101099D01*
G01X337500Y-100899D02*
X337370Y-100739D01*
G01X337010Y-100529D02*
X336800Y-100499D01*
G01X337200Y-100609D02*
X337010Y-100529D01*
G01X337370Y-100739D02*
X337200Y-100609D01*
G01X340920Y-109529D02*
X337610D01*
G01Y-108839D02*
X340920D01*
G01Y-108139D02*
X337610D01*
G01Y-107449D02*
X340920D01*
G01Y-106759D02*
X337610D01*
G01Y-106059D02*
X340920D01*
G01Y-105369D02*
X337610D01*
G01Y-104669D02*
X340920D01*
G01X376570Y-118969D02*
X376590Y-118779D01*
G01X376520Y-119149D02*
X376570Y-118969D01*
G01X376440Y-119319D02*
X376520Y-119149D01*
G01X376330Y-119479D02*
X376440Y-119319D01*
G01X376200Y-119609D02*
X376330Y-119479D01*
G01X376050Y-119719D02*
X376200Y-119609D01*
G01X375870Y-119799D02*
X376050Y-119719D01*
G01X376590Y-118779D02*
Y-117649D01*
G01X376410Y-117039D02*
X376270Y-116879D01*
G01X376510Y-117229D02*
X376410Y-117039D01*
G01X376570Y-117439D02*
X376510Y-117229D01*
G01X376590Y-117649D02*
X376570Y-117439D01*
G01X376110Y-116739D02*
X375920Y-116639D01*
G01X376270Y-116879D02*
X376110Y-116739D01*
G01X375920Y-116639D02*
X375710Y-116579D01*
G01X375690Y-119849D02*
X375870Y-119799D01*
G01X375500Y-119869D02*
X375690Y-119849D01*
G01X373750Y-119869D02*
X375500D01*
G01Y-116559D02*
X373750D01*
G01X375710Y-116579D02*
X375500Y-116559D01*
G01X377570Y-111839D02*
X376550Y-112009D01*
G01D02*
X375520Y-112069D01*
G01D02*
X372770D01*
G01D02*
X371860Y-112039D01*
G01D02*
X370960Y-111899D01*
G01X379570Y-110919D02*
X368880D01*
G01X376370Y-110229D02*
X380250D01*
G01X378310Y-111619D02*
X370040D01*
G01X376380Y-110229D02*
X376740Y-109909D01*
G01X375490Y-110609D02*
X375960Y-110459D01*
G01D02*
X376380Y-110229D01*
G01X375010Y-110659D02*
X375490Y-110609D01*
G01X373400Y-110659D02*
X375010D01*
G01X372800Y-110619D02*
X373400Y-110659D01*
G01X372230Y-110459D02*
X372800Y-110619D01*
G01X371700Y-110199D02*
X372230Y-110459D01*
G01X371230Y-109829D02*
X371700Y-110199D01*
G01X370990Y-119699D02*
X370780Y-119789D01*
G01X371170Y-119569D02*
X370990Y-119699D01*
G01X371330Y-119409D02*
X371170Y-119569D01*
G01X371460Y-119219D02*
X371330Y-119409D01*
G01X371550Y-119019D02*
X371460Y-119219D01*
G01X371610Y-118799D02*
X371550Y-119019D01*
G01X371630Y-118579D02*
X371610Y-118799D01*
G01X371630Y-117829D02*
Y-118579D01*
G01X371610Y-117609D02*
X371630Y-117829D01*
G01X371550Y-117399D02*
X371610Y-117609D01*
G01X371460Y-117189D02*
X371550Y-117399D01*
G01X371330Y-117009D02*
X371460Y-117189D01*
G01X371180Y-116859D02*
X371330Y-117009D01*
G01X370990Y-116729D02*
X371180Y-116859D01*
G01X370790Y-116639D02*
X370990Y-116729D01*
G01X370580Y-116579D02*
X370790Y-116639D01*
G01X370340Y-119869D02*
X369640D01*
G01X370560Y-119849D02*
X370340Y-119869D01*
G01X370780Y-119789D02*
X370560Y-119849D01*
G01X370360Y-116559D02*
X370580Y-116579D01*
G01X369620Y-116559D02*
X370360D01*
G01X369040Y-119729D02*
X368860Y-119619D01*
G01X369230Y-119809D02*
X369040Y-119729D01*
G01X369430Y-119849D02*
X369230Y-119809D01*
G01X369640Y-119869D02*
X369430Y-119849D01*
G01X369390Y-116579D02*
X369620Y-116559D01*
G01X369180Y-116639D02*
X369390Y-116579D01*
G01X368970Y-116729D02*
X369180Y-116639D01*
G01X368380Y-118959D02*
X368340Y-118759D01*
G01X368460Y-119149D02*
X368380Y-118959D01*
G01X368570Y-119329D02*
X368460Y-119149D01*
G01X368710Y-119479D02*
X368570Y-119329D01*
G01X368860Y-119619D02*
X368710Y-119479D01*
G01X368340Y-118759D02*
X368320Y-118549D01*
G01D02*
Y-117859D01*
G01X368490Y-117209D02*
X368620Y-117019D01*
G01X368400Y-117419D02*
X368490Y-117209D01*
G01X368340Y-117629D02*
X368400Y-117419D01*
G01X368320Y-117859D02*
X368340Y-117629D01*
G01X368780Y-116859D02*
X368970Y-116729D01*
G01X368620Y-117019D02*
X368780Y-116859D01*
G01X365960Y-116559D02*
Y-119869D01*
G01X365480Y-116559D02*
X365960D01*
G01X363200Y-119869D02*
X365480Y-116559D01*
G01X362650Y-119869D02*
X363200D01*
G01X362650Y-116559D02*
Y-119869D01*
G01X360290D02*
Y-116559D01*
G01X358530Y-119869D02*
X360290D01*
G01Y-116559D02*
X358510D01*
G01X358330Y-119849D02*
X358530Y-119869D01*
G01X358130Y-119809D02*
X358330Y-119849D01*
G01X357940Y-119729D02*
X358130Y-119809D01*
G01X357760Y-119619D02*
X357940Y-119729D01*
G01X358070Y-116639D02*
X357860Y-116729D01*
G01X358290Y-116579D02*
X358070Y-116639D01*
G01X358510Y-116559D02*
X358290Y-116579D01*
G01X357600Y-119489D02*
X357760Y-119619D01*
G01X357470Y-119329D02*
X357600Y-119489D01*
G01X357360Y-119149D02*
X357470Y-119329D01*
G01X357280Y-118959D02*
X357360Y-119149D01*
G01X357240Y-118759D02*
X357280Y-118959D01*
G01X357220Y-118559D02*
X357240Y-118759D01*
G01X357220Y-117849D02*
Y-118559D01*
G01X357240Y-117629D02*
X357220Y-117849D01*
G01X357300Y-117409D02*
X357240Y-117629D01*
G01X357390Y-117199D02*
X357300Y-117409D01*
G01X357520Y-117019D02*
X357390Y-117199D01*
G01X357680Y-116859D02*
X357520Y-117019D01*
G01X357860Y-116729D02*
X357680Y-116859D01*
G01X364300Y-99319D02*
Y-112069D01*
G01X368170Y-110229D02*
X371760D01*
G01X370960Y-111899D02*
X370090Y-111639D01*
G01X370930Y-109319D02*
X371230Y-109829D01*
G01X370090Y-111639D02*
X369510Y-111369D01*
G01D02*
X368980Y-111019D01*
G01X368520Y-110579D02*
X368130Y-110189D01*
G01X368980Y-111019D02*
X368520Y-110579D01*
G01X368130Y-110189D02*
X367840Y-109719D01*
G01X364300Y-112069D02*
X361000D01*
G01X364300Y-111619D02*
X361000D01*
G01Y-110919D02*
X364300D01*
G01Y-110229D02*
X361000D01*
G01Y-112069D02*
Y-106949D01*
G01X376070Y-100509D02*
X379920D01*
G01X379090Y-99819D02*
X369210D01*
G01X370780Y-99119D02*
X377730D01*
G01X377170Y-101399D02*
X376900Y-101089D01*
G01D02*
X376470Y-100719D01*
G01X376640Y-98879D02*
X377440Y-99019D01*
G01X375970Y-100449D02*
X375420Y-100299D01*
G01X376470Y-100719D02*
X375970Y-100449D01*
G01X375840Y-98849D02*
X376640Y-98879D01*
G01X375420Y-100299D02*
X374850Y-100259D01*
G01X372730Y-98849D02*
X375840D01*
G01X374850Y-100259D02*
X373400D01*
G01X372860Y-100289D02*
X372340Y-100419D01*
G01X373400Y-100259D02*
X372860Y-100289D01*
G01X371870Y-98879D02*
X372730Y-98849D01*
G01X368370Y-100509D02*
X372150D01*
G01X371860Y-100649D02*
X371430Y-100969D01*
G01X372340Y-100419D02*
X371860Y-100649D01*
G01X371020Y-99039D02*
X371870Y-98879D01*
G01X376740Y-109909D02*
X377090Y-109559D01*
G01X371180Y-101199D02*
X367900D01*
G01X370860Y-101639D02*
X370720Y-102059D01*
G01X371100Y-101269D02*
X370860Y-101639D01*
G01X371430Y-100969D02*
X371100Y-101269D01*
G01X370210Y-99319D02*
X371020Y-99039D01*
G01X370680Y-102509D02*
Y-108179D01*
G01Y-103979D02*
X367610D01*
G01Y-103289D02*
X370680D01*
G01X367660Y-101899D02*
X370770D01*
G01X370680Y-102589D02*
X367610D01*
G01X370720Y-102059D02*
X370680Y-102509D01*
G01X369580Y-99589D02*
X370210Y-99319D01*
G01X369000Y-99939D02*
X369580Y-99589D01*
G01X368480Y-100379D02*
X369000Y-99939D01*
G01X368100Y-100829D02*
X368480Y-100379D01*
G01X367610Y-108649D02*
Y-102509D01*
G01X367660Y-101919D02*
X367820Y-101349D01*
G01X367610Y-102509D02*
X367660Y-101919D01*
G01X367820Y-101349D02*
X368100Y-100829D01*
G01X364300Y-103979D02*
X360940D01*
G01X361000Y-103289D02*
X364300D01*
G01Y-102589D02*
X361000D01*
G01Y-101899D02*
X364300D01*
G01Y-101199D02*
X361000D01*
G01Y-100509D02*
X364300D01*
G01X361000Y-99319D02*
X364300D01*
G01Y-99819D02*
X361000D01*
G01Y-103709D02*
Y-99319D01*
G01X360970Y-103919D02*
X361000Y-103709D01*
G01X360890Y-104109D02*
X360970Y-103919D01*
G01X360760Y-104279D02*
X360890Y-104109D01*
G01X360590Y-104409D02*
X360760Y-104279D01*
G01X371060Y-109529D02*
X367780D01*
G01X370740Y-108759D02*
X370930Y-109319D01*
G01X367630Y-108839D02*
X370770D01*
G01X370680Y-108179D02*
X370740Y-108759D01*
G01X370680Y-108139D02*
X367610D01*
G01Y-107449D02*
X370680D01*
G01X367610Y-106059D02*
X370680D01*
G01Y-106759D02*
X367610D01*
G01X370680Y-105369D02*
X367610D01*
G01Y-104669D02*
X370680D01*
G01X367840Y-109719D02*
X367660Y-109199D01*
G01D02*
X367610Y-108649D01*
G01X361000Y-109529D02*
X364300D01*
G01Y-108839D02*
X361000D01*
G01Y-108139D02*
X364300D01*
G01Y-107449D02*
X361000D01*
G01X360970Y-106759D02*
X364300D01*
G01X361000Y-106949D02*
X360970Y-106749D01*
G01X360770Y-106399D02*
X360610Y-106269D01*
G01X360890Y-106559D02*
X360770Y-106399D01*
G01X360970Y-106749D02*
X360890Y-106559D01*
G01X360610Y-106269D02*
X360420Y-106189D01*
G01X360400Y-104489D02*
X360590Y-104409D01*
G01X360420Y-106189D02*
X360220Y-106169D01*
G01X360190Y-104509D02*
X360400Y-104489D01*
G01X389930Y-119869D02*
X390110Y-119849D01*
G01X388160Y-119869D02*
X389930D01*
G01X389970Y-116559D02*
X390170Y-116579D01*
G01X388160Y-116559D02*
X389970D01*
G01X396360Y-117659D02*
X396280Y-117809D01*
G01X396410Y-117149D02*
X396430Y-117319D01*
G01X396410Y-117489D02*
X396360Y-117659D01*
G01X396430Y-117319D02*
X396410Y-117489D01*
G01X396350Y-116989D02*
X396410Y-117149D01*
G01X396260Y-116849D02*
X396350Y-116989D01*
G01X393980Y-119869D02*
X396430D01*
G01X395710Y-118189D02*
X395540Y-118209D01*
G01X395880Y-118139D02*
X395710Y-118189D01*
G01X396030Y-118059D02*
X395880Y-118139D01*
G01X396170Y-117949D02*
X396030Y-118059D01*
G01X396280Y-117809D02*
X396170Y-117949D01*
G01X396140Y-116729D02*
X396260Y-116849D01*
G01X396000Y-116639D02*
X396140Y-116729D01*
G01X395840Y-116579D02*
X396000Y-116639D01*
G01X395670Y-116559D02*
X395840Y-116579D01*
G01X393120Y-116559D02*
X395670D01*
G01X395540Y-118219D02*
X393920D01*
G01X393810Y-119849D02*
X393980Y-119869D01*
G01X393920Y-118209D02*
X393760Y-118229D01*
G01X393650Y-119799D02*
X393810Y-119849D01*
G01X393500Y-119729D02*
X393650Y-119799D01*
G01X393370Y-119619D02*
X393500Y-119729D01*
G01X393260Y-119489D02*
X393370Y-119619D01*
G01X393190Y-119339D02*
X393260Y-119489D01*
G01X393140Y-119179D02*
X393190Y-119339D01*
G01X393120Y-119009D02*
X393140Y-119179D01*
G01Y-118849D02*
X393120Y-119009D01*
G01X393180Y-118699D02*
X393140Y-118849D01*
G01X393250Y-118569D02*
X393180Y-118699D01*
G01X393350Y-118439D02*
X393250Y-118569D01*
G01X393480Y-118339D02*
X393350Y-118439D01*
G01X393610Y-118269D02*
X393480Y-118339D01*
G01X393760Y-118229D02*
X393610Y-118269D01*
G01X390970Y-118989D02*
X390990Y-118809D01*
G01X390930Y-119169D02*
X390970Y-118989D01*
G01X390850Y-119339D02*
X390930Y-119169D01*
G01X390740Y-119489D02*
X390850Y-119339D01*
G01X390610Y-119619D02*
X390740Y-119489D01*
G01X390460Y-119729D02*
X390610Y-119619D01*
G01X390290Y-119809D02*
X390460Y-119729D01*
G01X391000Y-117579D02*
Y-118219D01*
G01D02*
X388160D01*
G01X391000Y-118809D02*
Y-118219D01*
G01X390970Y-117379D02*
X390990Y-117579D01*
G01X390910Y-117189D02*
X390970Y-117379D01*
G01X390820Y-117009D02*
X390910Y-117189D01*
G01X390690Y-116859D02*
X390820Y-117009D01*
G01X390540Y-116729D02*
X390690Y-116859D01*
G01X390360Y-116639D02*
X390540Y-116729D01*
G01X390110Y-119849D02*
X390290Y-119809D01*
G01X390170Y-116579D02*
X390360Y-116639D01*
G01X386550Y-112069D02*
X391000Y-106879D01*
G01X385800Y-116559D02*
Y-119869D01*
G01X385250Y-116559D02*
X385800D01*
G01X383710Y-119869D02*
X385250Y-116559D01*
G01X382300D02*
X383710Y-119869D01*
G01X381780Y-116559D02*
X382300D01*
G01X381780Y-119869D02*
Y-116559D01*
G01X379190D02*
Y-119869D01*
G01X387340Y-107189D02*
X382890Y-112069D01*
G01X396430D02*
Y-99319D01*
G01X393120Y-101039D02*
Y-112069D01*
G01D02*
X396430D01*
G01X393120Y-111619D02*
X396430D01*
G01Y-110919D02*
X393120D01*
G01Y-110229D02*
X396430D01*
G01X382890Y-112069D02*
X386550D01*
G01X384570Y-110229D02*
X388130D01*
G01X387530Y-110919D02*
X383940D01*
G01X383300Y-111619D02*
X386940D01*
G01X380200Y-110309D02*
X379890Y-110679D01*
G01X380430Y-109879D02*
X380200Y-110309D01*
G01X380570Y-109409D02*
X380430Y-109879D01*
G01X379500Y-110969D02*
X378900Y-111349D01*
G01X379890Y-110679D02*
X379500Y-110969D01*
G01X378900Y-111349D02*
X378250Y-111639D01*
G01D02*
X377570Y-111839D01*
G01X396430Y-99319D02*
X394190Y-98989D01*
G01X396430Y-103979D02*
X393120D01*
G01Y-103289D02*
X396430D01*
G01X393120Y-101899D02*
X396430D01*
G01Y-102589D02*
X393120D01*
G01X396430Y-101199D02*
X393120D01*
G01X392910Y-100509D02*
X396430D01*
G01Y-99819D02*
X384810D01*
G01X395090Y-99119D02*
X386520D01*
G01X394190Y-98989D02*
X391940Y-98849D01*
G01X393100Y-100839D02*
X393120Y-101039D01*
G01X393020Y-100649D02*
X393100Y-100839D01*
G01X392900Y-100489D02*
X393020Y-100649D01*
G01X392730Y-100369D02*
X392900Y-100489D01*
G01X392550Y-100289D02*
X392730Y-100369D01*
G01X392350Y-100259D02*
X392550Y-100289D01*
G01X389500Y-100259D02*
X392350D01*
G01X391940Y-98849D02*
X388910D01*
G01X388810Y-100289D02*
X389500Y-100259D01*
G01X388130Y-100449D02*
X388810Y-100289D01*
G01X388910Y-98849D02*
X387240Y-98969D01*
G01X384140Y-100509D02*
X388000D01*
G01X387490Y-100739D02*
X388130Y-100449D01*
G01X387100Y-104629D02*
X386910Y-104229D01*
G01X387080Y-101199D02*
X383770D01*
G01X387180Y-101049D02*
X387490Y-100739D01*
G01X386950Y-101419D02*
X387180Y-101049D01*
G01X387240Y-98969D02*
X385600Y-99319D01*
G01X386840Y-103979D02*
X383680D01*
G01X386790Y-103809D02*
X386740Y-103369D01*
G01X386910Y-104229D02*
X386790Y-103809D01*
G01X383670Y-103289D02*
X386740D01*
G01Y-103369D02*
Y-102269D01*
G01Y-102589D02*
X383670D01*
G01Y-101899D02*
X386790D01*
G01X386800Y-101829D02*
X386950Y-101419D01*
G01X386740Y-102269D02*
X386800Y-101829D01*
G01X385600Y-99319D02*
X385050Y-99619D01*
G01X384560Y-100019D02*
X384150Y-100499D01*
G01X385050Y-99619D02*
X384560Y-100019D01*
G01X383670Y-103919D02*
X383710Y-104399D01*
G01X383670Y-101919D02*
Y-103919D01*
G01X383690Y-101539D02*
X383670Y-101919D01*
G01X383780Y-101159D02*
X383690Y-101539D01*
G01X383930Y-100809D02*
X383780Y-101159D01*
G01X384150Y-100499D02*
X383930Y-100809D01*
G01X380600Y-102229D02*
Y-104989D01*
G01Y-103979D02*
X377530D01*
G01Y-103289D02*
X380600D01*
G01Y-102589D02*
X377530D01*
G01X377420Y-101899D02*
X380570D01*
G01X380560Y-101749D02*
X380600Y-102229D01*
G01X380380Y-101199D02*
X377000D01*
G01X380200Y-100869D02*
X380430Y-101289D01*
G01D02*
X380560Y-101749D01*
G01X379910Y-100489D02*
X380200Y-100869D01*
G01X379540Y-100179D02*
X379910Y-100489D01*
G01X378910Y-99669D02*
X379540Y-100179D01*
G01X378200Y-99279D02*
X378910Y-99669D01*
G01X377440Y-99019D02*
X378200Y-99279D01*
G01X377530Y-104989D02*
Y-102549D01*
G01X377370Y-101749D02*
X377170Y-101399D01*
G01X377490Y-102139D02*
X377370Y-101749D01*
G01X377530Y-102549D02*
X377490Y-102139D01*
G01X389910Y-108139D02*
X386470D01*
G01X396430Y-109529D02*
X393120D01*
G01Y-108839D02*
X396430D01*
G01Y-108139D02*
X393120D01*
G01Y-107449D02*
X396430D01*
G01X393120Y-106059D02*
X396430D01*
G01Y-106759D02*
X393120D01*
G01X396430Y-105369D02*
X393120D01*
G01Y-104669D02*
X396430D01*
G01X387100Y-107449D02*
X390510D01*
G01X391000Y-106759D02*
X387340D01*
G01X384860Y-106059D02*
X391000D01*
G01Y-106879D02*
Y-105459D01*
G01D02*
X389220D01*
G01X385830Y-108839D02*
X389320D01*
G01X389220Y-105459D02*
X388640Y-105419D01*
G01X388720Y-109529D02*
X385200D01*
G01X388450Y-105369D02*
X384110D01*
G01X388080Y-105269D02*
X387560Y-104999D01*
G01X388640Y-105419D02*
X388080Y-105269D01*
G01X387340Y-106679D02*
Y-107189D01*
G01X386640Y-106669D02*
X387340Y-106679D01*
G01X383780Y-104669D02*
X387150D01*
G01X387560Y-104999D02*
X387100Y-104629D01*
G01X385960Y-106549D02*
X386640Y-106669D01*
G01X385300Y-106309D02*
X385960Y-106549D01*
G01X384700Y-105969D02*
X385300Y-106309D01*
G01X384340Y-105659D02*
X384700Y-105969D01*
G01X384050Y-105279D02*
X384340Y-105659D01*
G01X383830Y-104859D02*
X384050Y-105279D01*
G01X383710Y-104399D02*
X383830Y-104859D01*
G01X380530Y-109529D02*
X377110D01*
G01X377440Y-108839D02*
X380600D01*
G01Y-108919D02*
X380570Y-109409D01*
G01X380600Y-104989D02*
Y-108919D01*
G01Y-108139D02*
X377530D01*
G01Y-107449D02*
X380600D01*
G01Y-106759D02*
X377530D01*
G01Y-106059D02*
X380600D01*
G01Y-105369D02*
X377530D01*
G01Y-104669D02*
X380600D01*
G01X377530Y-104989D02*
X380600D01*
G01D02*
X377530D01*
G01X377090Y-109559D02*
X377350Y-109139D01*
G01X377500Y-108669D02*
X377530Y-108179D01*
G01X377350Y-109139D02*
X377500Y-108669D01*
G01X377530Y-108179D02*
Y-104989D01*
G54D17*
G01X117500Y151000D02*
X117000Y151500D01*
X101000D01*
X98000Y154500D01*
Y159500D01*
X88500Y169000D01*
Y175000D01*
G01X132150Y184350D02*
X134500Y186700D01*
Y224000D01*
X139500Y229000D01*
X255000D01*
X258055Y225945D01*
Y161531D01*
G54D18*
G01X-66873Y-134969D02*
Y-130969D01*
X-68000Y-134302D01*
X-69127Y-130969D01*
Y-134969D01*
G01X-70317D02*
X-71400Y-130969D01*
X-72483Y-134969D01*
G01X-72093Y-133569D02*
X-70707D01*
G01X-75753Y-131302D02*
X-75493Y-131102D01*
X-75190Y-130969D01*
X-74843D01*
X-74453Y-131169D01*
X-74150Y-131502D01*
X-73933Y-131902D01*
X-73760Y-132569D01*
X-73717Y-133169D01*
X-73803Y-133769D01*
X-73933Y-134169D01*
X-74193Y-134569D01*
X-74497Y-134836D01*
X-74800Y-134969D01*
X-75103D01*
X-75407Y-134836D01*
X-75667Y-134636D01*
X-75883Y-134369D01*
G01X-77290Y-134969D02*
Y-130969D01*
G01X-79110D02*
Y-134969D01*
G01Y-132969D02*
X-77290D01*
G01X-84177Y-134969D02*
Y-130969D01*
X-85823D01*
G01X-85217Y-132902D02*
X-84177D01*
G01X-87880Y-130969D02*
X-88920D01*
G01X-88400D02*
Y-134969D01*
G01X-87880D02*
X-88920D01*
G01X-90803D02*
Y-130969D01*
X-92797Y-134969D01*
Y-130969D01*
G01X-94680D02*
X-95720D01*
G01X-95200D02*
Y-134969D01*
G01X-94680D02*
X-95720D01*
G01X-97690Y-134436D02*
X-98037Y-134769D01*
X-98427Y-134969D01*
X-98773D01*
X-99120Y-134769D01*
X-99380Y-134436D01*
X-99510Y-133969D01*
X-99423Y-133502D01*
X-99207Y-133102D01*
X-98817Y-132836D01*
X-98297Y-132702D01*
X-97993Y-132436D01*
X-97863Y-131969D01*
X-97950Y-131502D01*
X-98167Y-131169D01*
X-98470Y-130969D01*
X-98773D01*
X-99077Y-131102D01*
X-99337Y-131436D01*
G01X-101090Y-134969D02*
Y-130969D01*
G01X-102910D02*
Y-134969D01*
G01Y-132969D02*
X-101090D01*
G01X438000Y-146969D02*
Y-71969D01*
X-107000D01*
Y-146969D01*
X438000D01*
G01X-86000Y-135969D02*
X-89000D01*
G01X-85847Y-128169D02*
X-86107Y-128636D01*
X-86453Y-128902D01*
X-86843Y-128969D01*
X-87190Y-128902D01*
X-87537Y-128569D01*
X-87753Y-128169D01*
X-87797Y-127769D01*
X-87710Y-127302D01*
X-87407Y-126969D01*
X-87103Y-126836D01*
X-86713D01*
G01X-87103D02*
X-87363Y-126636D01*
X-87580Y-126302D01*
X-87667Y-125902D01*
X-87580Y-125502D01*
X-87363Y-125169D01*
X-86973Y-124969D01*
X-86583Y-125036D01*
X-86193Y-125302D01*
G01X-90200Y-124969D02*
X-89853Y-125102D01*
X-89593Y-125436D01*
X-89420Y-125836D01*
X-89290Y-126369D01*
X-89247Y-126969D01*
X-89290Y-127569D01*
X-89420Y-128102D01*
X-89593Y-128502D01*
X-89853Y-128836D01*
X-90200Y-128969D01*
X-90547Y-128836D01*
X-90807Y-128502D01*
X-90980Y-128102D01*
X-91110Y-127569D01*
X-91153Y-126969D01*
X-91110Y-126369D01*
X-90980Y-125836D01*
X-90807Y-125436D01*
X-90547Y-125102D01*
X-90200Y-124969D01*
G01X-74117Y-122969D02*
X-75200Y-118969D01*
X-76283Y-122969D01*
G01X-75893Y-121569D02*
X-74507D01*
G01X-77603Y-122969D02*
Y-118969D01*
X-79597Y-122969D01*
Y-118969D01*
G01X-82260Y-120969D02*
X-83127D01*
Y-122169D01*
X-82867Y-122569D01*
X-82563Y-122836D01*
X-82130Y-122969D01*
X-81697Y-122836D01*
X-81393Y-122569D01*
X-81133Y-122169D01*
X-80960Y-121702D01*
X-80873Y-121169D01*
Y-120702D01*
X-80960Y-120302D01*
X-81133Y-119836D01*
X-81393Y-119436D01*
X-81653Y-119169D01*
X-82000Y-118969D01*
X-82303D01*
X-82650Y-119102D01*
X-82910Y-119369D01*
G01X-84533Y-118969D02*
Y-122969D01*
X-86267D01*
G01X-89667D02*
X-87933D01*
Y-118969D01*
X-89667D01*
G01X-88973Y-120902D02*
X-87933D01*
G01X-31290Y-91436D02*
X-31637Y-91769D01*
X-32027Y-91969D01*
X-32373D01*
X-32720Y-91769D01*
X-32980Y-91436D01*
X-33110Y-90969D01*
X-33023Y-90502D01*
X-32807Y-90102D01*
X-32417Y-89836D01*
X-31897Y-89702D01*
X-31593Y-89436D01*
X-31463Y-88969D01*
X-31550Y-88502D01*
X-31767Y-88169D01*
X-32070Y-87969D01*
X-32373D01*
X-32677Y-88102D01*
X-32937Y-88436D01*
G01X-34733Y-91969D02*
Y-87969D01*
X-35773D01*
X-36120Y-88169D01*
X-36380Y-88636D01*
X-36467Y-89169D01*
X-36380Y-89702D01*
X-36163Y-90102D01*
X-35773Y-90302D01*
X-34733D01*
G01X-39867Y-91969D02*
X-38133D01*
Y-87969D01*
X-39867D01*
G01X-39173Y-89902D02*
X-38133D01*
G01X-43353Y-88302D02*
X-43093Y-88102D01*
X-42790Y-87969D01*
X-42443D01*
X-42053Y-88169D01*
X-41750Y-88502D01*
X-41533Y-88902D01*
X-41360Y-89569D01*
X-41317Y-90169D01*
X-41403Y-90769D01*
X-41533Y-91169D01*
X-41793Y-91569D01*
X-42097Y-91836D01*
X-42400Y-91969D01*
X-42703D01*
X-43007Y-91836D01*
X-43267Y-91636D01*
X-43483Y-91369D01*
G01X-45280Y-87969D02*
X-46320D01*
G01X-45800D02*
Y-91969D01*
G01X-45280D02*
X-46320D01*
G01X-48377D02*
Y-87969D01*
X-50023D01*
G01X-49417Y-89902D02*
X-48377D01*
G01X-52080Y-87969D02*
X-53120D01*
G01X-52600D02*
Y-91969D01*
G01X-52080D02*
X-53120D01*
G01X-56867D02*
X-55133D01*
Y-87969D01*
X-56867D01*
G01X-56173Y-89902D02*
X-55133D01*
G01X-58447Y-91969D02*
Y-87969D01*
X-59313D01*
X-59660Y-88169D01*
X-59920Y-88436D01*
X-60137Y-88836D01*
X-60310Y-89302D01*
X-60353Y-89969D01*
X-60310Y-90636D01*
X-60137Y-91102D01*
X-59920Y-91502D01*
X-59660Y-91769D01*
X-59313Y-91969D01*
X-58447D01*
G01X-65247D02*
Y-87969D01*
X-66113D01*
X-66460Y-88169D01*
X-66720Y-88436D01*
X-66937Y-88836D01*
X-67110Y-89302D01*
X-67153Y-89969D01*
X-67110Y-90636D01*
X-66937Y-91102D01*
X-66720Y-91502D01*
X-66460Y-91769D01*
X-66113Y-91969D01*
X-65247D01*
G01X-69080Y-87969D02*
X-70120D01*
G01X-69600D02*
Y-91969D01*
G01X-69080D02*
X-70120D01*
G01X-71873D02*
Y-87969D01*
X-73000Y-91302D01*
X-74127Y-87969D01*
Y-91969D01*
G01X-77267D02*
X-75533D01*
Y-87969D01*
X-77267D01*
G01X-76573Y-89902D02*
X-75533D01*
G01X-78803Y-91969D02*
Y-87969D01*
X-80797Y-91969D01*
Y-87969D01*
G01X-82290Y-91436D02*
X-82637Y-91769D01*
X-83027Y-91969D01*
X-83373D01*
X-83720Y-91769D01*
X-83980Y-91436D01*
X-84110Y-90969D01*
X-84023Y-90502D01*
X-83807Y-90102D01*
X-83417Y-89836D01*
X-82897Y-89702D01*
X-82593Y-89436D01*
X-82463Y-88969D01*
X-82550Y-88502D01*
X-82767Y-88169D01*
X-83070Y-87969D01*
X-83373D01*
X-83677Y-88102D01*
X-83937Y-88436D01*
G01X-86080Y-87969D02*
X-87120D01*
G01X-86600D02*
Y-91969D01*
G01X-86080D02*
X-87120D01*
G01X-90000D02*
X-89653Y-91902D01*
X-89350Y-91636D01*
X-89090Y-91236D01*
X-88917Y-90769D01*
X-88830Y-90236D01*
Y-89702D01*
X-88917Y-89169D01*
X-89090Y-88702D01*
X-89350Y-88302D01*
X-89653Y-88036D01*
X-90000Y-87969D01*
X-90347Y-88036D01*
X-90650Y-88302D01*
X-90910Y-88702D01*
X-91083Y-89169D01*
X-91170Y-89702D01*
Y-90236D01*
X-91083Y-90769D01*
X-90910Y-91236D01*
X-90650Y-91636D01*
X-90347Y-91902D01*
X-90000Y-91969D01*
G01X-92403D02*
Y-87969D01*
X-94397Y-91969D01*
Y-87969D01*
G01X-95890Y-91436D02*
X-96237Y-91769D01*
X-96627Y-91969D01*
X-96973D01*
X-97320Y-91769D01*
X-97580Y-91436D01*
X-97710Y-90969D01*
X-97623Y-90502D01*
X-97407Y-90102D01*
X-97017Y-89836D01*
X-96497Y-89702D01*
X-96193Y-89436D01*
X-96063Y-88969D01*
X-96150Y-88502D01*
X-96367Y-88169D01*
X-96670Y-87969D01*
X-96973D01*
X-97277Y-88102D01*
X-97537Y-88436D01*
G01X-38047Y-80469D02*
Y-83336D01*
X-38220Y-83936D01*
X-38567Y-84336D01*
X-39000Y-84469D01*
X-39433Y-84336D01*
X-39780Y-83936D01*
X-39953Y-83336D01*
Y-80469D01*
G01X-41403Y-84469D02*
Y-80469D01*
X-43397Y-84469D01*
Y-80469D01*
G01X-44933D02*
Y-84469D01*
X-46667D01*
G01X-50067D02*
X-48333D01*
Y-80469D01*
X-50067D01*
G01X-49373Y-82402D02*
X-48333D01*
G01X-51690Y-83936D02*
X-52037Y-84269D01*
X-52427Y-84469D01*
X-52773D01*
X-53120Y-84269D01*
X-53380Y-83936D01*
X-53510Y-83469D01*
X-53423Y-83002D01*
X-53207Y-82602D01*
X-52817Y-82336D01*
X-52297Y-82202D01*
X-51993Y-81936D01*
X-51863Y-81469D01*
X-51950Y-81002D01*
X-52167Y-80669D01*
X-52470Y-80469D01*
X-52773D01*
X-53077Y-80602D01*
X-53337Y-80936D01*
G01X-55090Y-83936D02*
X-55437Y-84269D01*
X-55827Y-84469D01*
X-56173D01*
X-56520Y-84269D01*
X-56780Y-83936D01*
X-56910Y-83469D01*
X-56823Y-83002D01*
X-56607Y-82602D01*
X-56217Y-82336D01*
X-55697Y-82202D01*
X-55393Y-81936D01*
X-55263Y-81469D01*
X-55350Y-81002D01*
X-55567Y-80669D01*
X-55870Y-80469D01*
X-56173D01*
X-56477Y-80602D01*
X-56737Y-80936D01*
G01X-62800Y-84469D02*
X-62453Y-84402D01*
X-62150Y-84136D01*
X-61890Y-83736D01*
X-61717Y-83269D01*
X-61630Y-82736D01*
Y-82202D01*
X-61717Y-81669D01*
X-61890Y-81202D01*
X-62150Y-80802D01*
X-62453Y-80536D01*
X-62800Y-80469D01*
X-63147Y-80536D01*
X-63450Y-80802D01*
X-63710Y-81202D01*
X-63883Y-81669D01*
X-63970Y-82202D01*
Y-82736D01*
X-63883Y-83269D01*
X-63710Y-83736D01*
X-63450Y-84136D01*
X-63147Y-84402D01*
X-62800Y-84469D01*
G01X-66200Y-80469D02*
Y-84469D01*
G01X-65203Y-80469D02*
X-67197D01*
G01X-68690Y-84469D02*
Y-80469D01*
G01X-70510D02*
Y-84469D01*
G01Y-82469D02*
X-68690D01*
G01X-73867Y-84469D02*
X-72133D01*
Y-80469D01*
X-73867D01*
G01X-73173Y-82402D02*
X-72133D01*
G01X-75533Y-84469D02*
Y-80469D01*
X-76617D01*
X-76963Y-80669D01*
X-77180Y-80936D01*
X-77267Y-81469D01*
X-77180Y-82002D01*
X-76920Y-82336D01*
X-76617Y-82536D01*
X-75533D01*
G01X-76617D02*
X-77267Y-84469D01*
G01X-78500Y-80469D02*
X-79107Y-84469D01*
X-79800Y-80469D01*
X-80493Y-84469D01*
X-81100Y-80469D01*
G01X-82680D02*
X-83720D01*
G01X-83200D02*
Y-84469D01*
G01X-82680D02*
X-83720D01*
G01X-85690Y-83936D02*
X-86037Y-84269D01*
X-86427Y-84469D01*
X-86773D01*
X-87120Y-84269D01*
X-87380Y-83936D01*
X-87510Y-83469D01*
X-87423Y-83002D01*
X-87207Y-82602D01*
X-86817Y-82336D01*
X-86297Y-82202D01*
X-85993Y-81936D01*
X-85863Y-81469D01*
X-85950Y-81002D01*
X-86167Y-80669D01*
X-86470Y-80469D01*
X-86773D01*
X-87077Y-80602D01*
X-87337Y-80936D01*
G01X-90867Y-84469D02*
X-89133D01*
Y-80469D01*
X-90867D01*
G01X-90173Y-82402D02*
X-89133D01*
G01X-87500Y-135969D02*
X-85200Y-140469D01*
X-83700Y-138269D01*
G01X-49200Y-110469D02*
Y-114469D01*
G01X-48203Y-110469D02*
X-50197D01*
G01X-52600Y-114469D02*
X-52253Y-114402D01*
X-51950Y-114136D01*
X-51690Y-113736D01*
X-51517Y-113269D01*
X-51430Y-112736D01*
Y-112202D01*
X-51517Y-111669D01*
X-51690Y-111202D01*
X-51950Y-110802D01*
X-52253Y-110536D01*
X-52600Y-110469D01*
X-52947Y-110536D01*
X-53250Y-110802D01*
X-53510Y-111202D01*
X-53683Y-111669D01*
X-53770Y-112202D01*
Y-112736D01*
X-53683Y-113269D01*
X-53510Y-113736D01*
X-53250Y-114136D01*
X-52947Y-114402D01*
X-52600Y-114469D01*
G01X-55133Y-110469D02*
Y-114469D01*
X-56867D01*
G01X-60267D02*
X-58533D01*
Y-110469D01*
X-60267D01*
G01X-59573Y-112402D02*
X-58533D01*
G01X-61933Y-114469D02*
Y-110469D01*
X-63017D01*
X-63363Y-110669D01*
X-63580Y-110936D01*
X-63667Y-111469D01*
X-63580Y-112002D01*
X-63320Y-112336D01*
X-63017Y-112536D01*
X-61933D01*
G01X-63017D02*
X-63667Y-114469D01*
G01X-65117D02*
X-66200Y-110469D01*
X-67283Y-114469D01*
G01X-66893Y-113069D02*
X-65507D01*
G01X-68603Y-114469D02*
Y-110469D01*
X-70597Y-114469D01*
Y-110469D01*
G01X-73953Y-110802D02*
X-73693Y-110602D01*
X-73390Y-110469D01*
X-73043D01*
X-72653Y-110669D01*
X-72350Y-111002D01*
X-72133Y-111402D01*
X-71960Y-112069D01*
X-71917Y-112669D01*
X-72003Y-113269D01*
X-72133Y-113669D01*
X-72393Y-114069D01*
X-72697Y-114336D01*
X-73000Y-114469D01*
X-73303D01*
X-73607Y-114336D01*
X-73867Y-114136D01*
X-74083Y-113869D01*
G01X-77267Y-114469D02*
X-75533D01*
Y-110469D01*
X-77267D01*
G01X-76573Y-112402D02*
X-75533D01*
G01X-78890Y-113936D02*
X-79237Y-114269D01*
X-79627Y-114469D01*
X-79973D01*
X-80320Y-114269D01*
X-80580Y-113936D01*
X-80710Y-113469D01*
X-80623Y-113002D01*
X-80407Y-112602D01*
X-80017Y-112336D01*
X-79497Y-112202D01*
X-79193Y-111936D01*
X-79063Y-111469D01*
X-79150Y-111002D01*
X-79367Y-110669D01*
X-79670Y-110469D01*
X-79973D01*
X-80277Y-110602D01*
X-80537Y-110936D01*
G01X-80700Y-126269D02*
X-83700D01*
G01X-80700Y-128469D02*
X-83700D01*
G01X-82200Y-124769D02*
Y-127769D01*
G01X-43017Y-99469D02*
X-44100Y-95469D01*
X-45183Y-99469D01*
G01X-44793Y-98069D02*
X-43407D01*
G01X-46633Y-99469D02*
Y-95469D01*
X-47717D01*
X-48063Y-95669D01*
X-48280Y-95936D01*
X-48367Y-96469D01*
X-48280Y-97002D01*
X-48020Y-97336D01*
X-47717Y-97536D01*
X-46633D01*
G01X-47717D02*
X-48367Y-99469D01*
G01X-51767D02*
X-50033D01*
Y-95469D01*
X-51767D01*
G01X-51073Y-97402D02*
X-50033D01*
G01X-57180Y-95469D02*
X-58220D01*
G01X-57700D02*
Y-99469D01*
G01X-57180D02*
X-58220D01*
G01X-60103D02*
Y-95469D01*
X-62097Y-99469D01*
Y-95469D01*
G01X-67380D02*
X-68420D01*
G01X-67900D02*
Y-99469D01*
G01X-67380D02*
X-68420D01*
G01X-70303D02*
Y-95469D01*
X-72297Y-99469D01*
Y-95469D01*
G01X-75653Y-95802D02*
X-75393Y-95602D01*
X-75090Y-95469D01*
X-74743D01*
X-74353Y-95669D01*
X-74050Y-96002D01*
X-73833Y-96402D01*
X-73660Y-97069D01*
X-73617Y-97669D01*
X-73703Y-98269D01*
X-73833Y-98669D01*
X-74093Y-99069D01*
X-74397Y-99336D01*
X-74700Y-99469D01*
X-75003D01*
X-75307Y-99336D01*
X-75567Y-99136D01*
X-75783Y-98869D01*
G01X-77190Y-99469D02*
Y-95469D01*
G01X-79010D02*
Y-99469D01*
G01Y-97469D02*
X-77190D01*
G01X-82367Y-99469D02*
X-80633D01*
Y-95469D01*
X-82367D01*
G01X-81673Y-97402D02*
X-80633D01*
G01X-83990Y-98936D02*
X-84337Y-99269D01*
X-84727Y-99469D01*
X-85073D01*
X-85420Y-99269D01*
X-85680Y-98936D01*
X-85810Y-98469D01*
X-85723Y-98002D01*
X-85507Y-97602D01*
X-85117Y-97336D01*
X-84597Y-97202D01*
X-84293Y-96936D01*
X-84163Y-96469D01*
X-84250Y-96002D01*
X-84467Y-95669D01*
X-84770Y-95469D01*
X-85073D01*
X-85377Y-95602D01*
X-85637Y-95936D01*
G01X-49300Y-140602D02*
X-49213Y-140536D01*
Y-140402D01*
X-49300Y-140336D01*
X-49387Y-140402D01*
Y-140536D01*
X-49300Y-140602D01*
G01X-52700Y-136469D02*
X-52353Y-136602D01*
X-52093Y-136936D01*
X-51920Y-137336D01*
X-51790Y-137869D01*
X-51747Y-138469D01*
X-51790Y-139069D01*
X-51920Y-139602D01*
X-52093Y-140002D01*
X-52353Y-140336D01*
X-52700Y-140469D01*
X-53047Y-140336D01*
X-53307Y-140002D01*
X-53480Y-139602D01*
X-53610Y-139069D01*
X-53653Y-138469D01*
X-53610Y-137869D01*
X-53480Y-137336D01*
X-53307Y-136936D01*
X-53047Y-136602D01*
X-52700Y-136469D01*
G01X-56100Y-140469D02*
Y-136469D01*
X-55580Y-137269D01*
G01Y-140469D02*
X-56620D01*
G01X-59500Y-136469D02*
X-59153Y-136602D01*
X-58893Y-136936D01*
X-58720Y-137336D01*
X-58590Y-137869D01*
X-58547Y-138469D01*
X-58590Y-139069D01*
X-58720Y-139602D01*
X-58893Y-140002D01*
X-59153Y-140336D01*
X-59500Y-140469D01*
X-59847Y-140336D01*
X-60107Y-140002D01*
X-60280Y-139602D01*
X-60410Y-139069D01*
X-60453Y-138469D01*
X-60410Y-137869D01*
X-60280Y-137336D01*
X-60107Y-136936D01*
X-59847Y-136602D01*
X-59500Y-136469D01*
G01X-49300Y-134602D02*
X-49213Y-134536D01*
Y-134402D01*
X-49300Y-134336D01*
X-49387Y-134402D01*
Y-134536D01*
X-49300Y-134602D01*
G01X-52700Y-130469D02*
X-52353Y-130602D01*
X-52093Y-130936D01*
X-51920Y-131336D01*
X-51790Y-131869D01*
X-51747Y-132469D01*
X-51790Y-133069D01*
X-51920Y-133602D01*
X-52093Y-134002D01*
X-52353Y-134336D01*
X-52700Y-134469D01*
X-53047Y-134336D01*
X-53307Y-134002D01*
X-53480Y-133602D01*
X-53610Y-133069D01*
X-53653Y-132469D01*
X-53610Y-131869D01*
X-53480Y-131336D01*
X-53307Y-130936D01*
X-53047Y-130602D01*
X-52700Y-130469D01*
G01X-55147Y-133669D02*
X-55407Y-134136D01*
X-55753Y-134402D01*
X-56143Y-134469D01*
X-56490Y-134402D01*
X-56837Y-134069D01*
X-57053Y-133669D01*
X-57097Y-133269D01*
X-57010Y-132802D01*
X-56707Y-132469D01*
X-56403Y-132336D01*
X-56013D01*
G01X-56403D02*
X-56663Y-132136D01*
X-56880Y-131802D01*
X-56967Y-131402D01*
X-56880Y-131002D01*
X-56663Y-130669D01*
X-56273Y-130469D01*
X-55883Y-130536D01*
X-55493Y-130802D01*
G01X-49300Y-128602D02*
X-49213Y-128536D01*
Y-128402D01*
X-49300Y-128336D01*
X-49387Y-128402D01*
Y-128536D01*
X-49300Y-128602D01*
G01X-52700Y-128469D02*
Y-124469D01*
X-52180Y-125269D01*
G01Y-128469D02*
X-53220D01*
G01X-34347Y-122969D02*
Y-118969D01*
X-35213D01*
X-35560Y-119169D01*
X-35820Y-119436D01*
X-36037Y-119836D01*
X-36210Y-120302D01*
X-36253Y-120969D01*
X-36210Y-121636D01*
X-36037Y-122102D01*
X-35820Y-122502D01*
X-35560Y-122769D01*
X-35213Y-122969D01*
X-34347D01*
G01X-39567D02*
X-37833D01*
Y-118969D01*
X-39567D01*
G01X-38873Y-120902D02*
X-37833D01*
G01X-43053Y-119302D02*
X-42793Y-119102D01*
X-42490Y-118969D01*
X-42143D01*
X-41753Y-119169D01*
X-41450Y-119502D01*
X-41233Y-119902D01*
X-41060Y-120569D01*
X-41017Y-121169D01*
X-41103Y-121769D01*
X-41233Y-122169D01*
X-41493Y-122569D01*
X-41797Y-122836D01*
X-42100Y-122969D01*
X-42403D01*
X-42707Y-122836D01*
X-42967Y-122636D01*
X-43183Y-122369D01*
G01X-44980Y-118969D02*
X-46020D01*
G01X-45500D02*
Y-122969D01*
G01X-44980D02*
X-46020D01*
G01X-47773D02*
Y-118969D01*
X-48900Y-122302D01*
X-50027Y-118969D01*
Y-122969D01*
G01X-51217D02*
X-52300Y-118969D01*
X-53383Y-122969D01*
G01X-52993Y-121569D02*
X-51607D01*
G01X-54833Y-118969D02*
Y-122969D01*
X-56567D01*
G01X-36390Y-134469D02*
X-38210Y-130469D01*
G01X-36390D02*
X-38210Y-134469D01*
G01X-39790D02*
X-41610Y-130469D01*
G01X-39790D02*
X-41610Y-134469D01*
G01X-32990Y-140469D02*
X-34810Y-136469D01*
G01X-32990D02*
X-34810Y-140469D01*
G01X-36390D02*
X-38210Y-136469D01*
G01X-36390D02*
X-38210Y-140469D01*
G01X-39790D02*
X-41610Y-136469D01*
G01X-39790D02*
X-41610Y-140469D01*
G01X-44000D02*
X-47000D01*
G01X-45500Y-136769D02*
Y-139769D01*
G01X-44000Y-138269D02*
X-47000D01*
G01X-44000Y-134469D02*
X-47000D01*
G01X-45500Y-130769D02*
Y-133769D01*
G01X-44000Y-132269D02*
X-47000D01*
G01X-39790Y-128469D02*
X-41610Y-124469D01*
G01X-39790D02*
X-41610Y-128469D01*
G01X-44000Y-126269D02*
X-47000D01*
G01X-44000Y-128469D02*
X-47000D01*
G01X-45500Y-124769D02*
Y-127769D01*
G01X-8600Y-136469D02*
X-7907Y-136736D01*
X-7387Y-137402D01*
X-7040Y-138202D01*
X-6780Y-139269D01*
X-6693Y-140469D01*
X-6780Y-141669D01*
X-7040Y-142736D01*
X-7387Y-143536D01*
X-7907Y-144202D01*
X-8600Y-144469D01*
X-9293Y-144202D01*
X-9813Y-143536D01*
X-10160Y-142736D01*
X-10420Y-141669D01*
X-10507Y-140469D01*
X-10420Y-139269D01*
X-10160Y-138202D01*
X-9813Y-137402D01*
X-9293Y-136736D01*
X-8600Y-136469D01*
G01X-15400D02*
X-14707Y-136736D01*
X-14187Y-137402D01*
X-13840Y-138202D01*
X-13580Y-139269D01*
X-13493Y-140469D01*
X-13580Y-141669D01*
X-13840Y-142736D01*
X-14187Y-143536D01*
X-14707Y-144202D01*
X-15400Y-144469D01*
X-16093Y-144202D01*
X-16613Y-143536D01*
X-16960Y-142736D01*
X-17220Y-141669D01*
X-17307Y-140469D01*
X-17220Y-139269D01*
X-16960Y-138202D01*
X-16613Y-137402D01*
X-16093Y-136736D01*
X-15400Y-136469D01*
G01X-2867Y-131969D02*
Y-125969D01*
X-4533D01*
X-5067Y-126269D01*
X-5400Y-126669D01*
X-5533Y-127469D01*
X-5400Y-128269D01*
X-5000Y-128769D01*
X-4533Y-129069D01*
X-2867D01*
G01X-4533D02*
X-5533Y-131969D01*
G01X-10733D02*
X-8067D01*
Y-125969D01*
X-10733D01*
G01X-9667Y-128869D02*
X-8067D01*
G01X-12933Y-125969D02*
X-14600Y-131969D01*
X-16267Y-125969D01*
G01X-19800Y-132169D02*
X-19667Y-132069D01*
Y-131869D01*
X-19800Y-131769D01*
X-19933Y-131869D01*
Y-132069D01*
X-19800Y-132169D01*
G01X-27000Y-71969D02*
Y-146969D01*
G01Y-124469D02*
X170500D01*
G01X-27000Y-101969D02*
X170500D01*
G01X3000Y-124469D02*
Y-146969D01*
G01X134407Y-117702D02*
X134060Y-117302D01*
X133800Y-116636D01*
X133627Y-115702D01*
X133800Y-114902D01*
X134147Y-114369D01*
X134753Y-113969D01*
X137093D01*
Y-121969D01*
X134233D01*
X133627Y-121436D01*
X133280Y-120636D01*
X133107Y-119702D01*
X133280Y-118769D01*
X133800Y-117969D01*
X134407Y-117702D01*
X137093D01*
G01X130207Y-121969D02*
Y-113969D01*
X128473D01*
X127780Y-114369D01*
X127260Y-114902D01*
X126827Y-115702D01*
X126480Y-116636D01*
X126393Y-117969D01*
X126480Y-119302D01*
X126827Y-120236D01*
X127260Y-121036D01*
X127780Y-121569D01*
X128473Y-121969D01*
X130207D01*
G01X122973Y-121036D02*
X122367Y-121702D01*
X121673Y-121969D01*
X120980Y-121702D01*
X120373Y-120902D01*
X119940Y-119702D01*
X119767Y-118502D01*
Y-117036D01*
X119940Y-115836D01*
X120373Y-114769D01*
X120893Y-114236D01*
X121500Y-113969D01*
X122193Y-114236D01*
X122713Y-114769D01*
X123060Y-115569D01*
X123233Y-116636D01*
X123060Y-117569D01*
X122627Y-118502D01*
X122107Y-119036D01*
X121500Y-119169D01*
X120807Y-118902D01*
X120287Y-118236D01*
X119767Y-117036D01*
G01X114180Y-117969D02*
X112447D01*
Y-120369D01*
X112967Y-121169D01*
X113573Y-121702D01*
X114440Y-121969D01*
X115307Y-121702D01*
X115913Y-121169D01*
X116433Y-120369D01*
X116780Y-119436D01*
X116953Y-118369D01*
Y-117436D01*
X116780Y-116636D01*
X116433Y-115702D01*
X115913Y-114902D01*
X115393Y-114369D01*
X114700Y-113969D01*
X114093D01*
X113400Y-114236D01*
X112880Y-114769D01*
G01X109807Y-120369D02*
X109287Y-121302D01*
X108593Y-121836D01*
X107813Y-121969D01*
X107120Y-121836D01*
X106427Y-121169D01*
X105993Y-120369D01*
X105907Y-119569D01*
X106080Y-118636D01*
X106687Y-117969D01*
X107293Y-117702D01*
X108073D01*
G01X107293D02*
X106773Y-117302D01*
X106340Y-116636D01*
X106167Y-115836D01*
X106340Y-115036D01*
X106773Y-114369D01*
X107553Y-113969D01*
X108333Y-114102D01*
X109113Y-114636D01*
G01X100060Y-121969D02*
Y-113969D01*
X103267Y-119702D01*
X98933D01*
G01X94300Y-121969D02*
Y-113969D01*
X95340Y-115569D01*
G01Y-121969D02*
X93260D01*
G01X85767D02*
X89233D01*
Y-113969D01*
X85767D01*
G01X87153Y-117836D02*
X89233D01*
G01X82347Y-121969D02*
Y-113969D01*
X79053D01*
G01X80267Y-117836D02*
X82347D01*
G01X75633Y-120369D02*
X75200Y-121169D01*
X74680Y-121702D01*
X74073Y-121969D01*
X73380Y-121702D01*
X72860Y-121169D01*
X72340Y-120369D01*
X72167Y-119302D01*
Y-113969D01*
G01X68227Y-119302D02*
X65973D01*
G01X58567Y-121969D02*
X62033D01*
Y-113969D01*
X58567D01*
G01X59953Y-117836D02*
X62033D01*
G01X55147Y-115302D02*
X54627Y-114502D01*
X54020Y-114102D01*
X53327Y-113969D01*
X52460Y-114236D01*
X51853Y-114902D01*
X51680Y-115702D01*
X51767Y-116502D01*
X52113Y-117169D01*
X53847Y-118502D01*
X54627Y-119436D01*
X55147Y-120769D01*
X55320Y-121969D01*
X51680D01*
G01X44967D02*
X48433D01*
Y-113969D01*
X44967D01*
G01X46353Y-117836D02*
X48433D01*
G01X42067Y-113969D02*
X39900Y-121969D01*
X37733Y-113969D01*
G01X35007Y-121969D02*
Y-113969D01*
G01X31713D02*
X35007Y-118902D01*
G01X31193Y-121969D02*
X33533Y-116636D01*
G01X27427Y-119302D02*
X25173D01*
G01X19500Y-121969D02*
Y-113969D01*
X20540Y-115569D01*
G01Y-121969D02*
X18460D01*
G01X12700Y-113969D02*
X13393Y-114236D01*
X13913Y-114902D01*
X14260Y-115702D01*
X14520Y-116769D01*
X14607Y-117969D01*
X14520Y-119169D01*
X14260Y-120236D01*
X13913Y-121036D01*
X13393Y-121702D01*
X12700Y-121969D01*
X12007Y-121702D01*
X11487Y-121036D01*
X11140Y-120236D01*
X10880Y-119169D01*
X10793Y-117969D01*
X10880Y-116769D01*
X11140Y-115702D01*
X11487Y-114902D01*
X12007Y-114236D01*
X12700Y-113969D01*
G01X5900Y-121969D02*
Y-113969D01*
X6940Y-115569D01*
G01Y-121969D02*
X4860D01*
G01X143633Y-96969D02*
Y-88969D01*
X141467D01*
X140773Y-89369D01*
X140340Y-89902D01*
X140167Y-90969D01*
X140340Y-92036D01*
X140860Y-92702D01*
X141467Y-93102D01*
X143633D01*
G01X141467D02*
X140167Y-96969D01*
G01X135100D02*
X135793Y-96836D01*
X136400Y-96302D01*
X136920Y-95502D01*
X137267Y-94569D01*
X137440Y-93502D01*
Y-92436D01*
X137267Y-91369D01*
X136920Y-90436D01*
X136400Y-89636D01*
X135793Y-89102D01*
X135100Y-88969D01*
X134407Y-89102D01*
X133800Y-89636D01*
X133280Y-90436D01*
X132933Y-91369D01*
X132760Y-92436D01*
Y-93502D01*
X132933Y-94569D01*
X133280Y-95502D01*
X133800Y-96302D01*
X134407Y-96836D01*
X135100Y-96969D01*
G01X130120D02*
Y-88969D01*
G01X126480D02*
Y-96969D01*
G01Y-92969D02*
X130120D01*
G01X123753Y-96969D02*
Y-88969D01*
X121500Y-95636D01*
X119247Y-88969D01*
Y-96969D01*
G01X109720Y-95902D02*
X109027Y-96569D01*
X108247Y-96969D01*
X107553D01*
X106860Y-96569D01*
X106340Y-95902D01*
X106080Y-94969D01*
X106253Y-94036D01*
X106687Y-93236D01*
X107467Y-92702D01*
X108507Y-92436D01*
X109113Y-91902D01*
X109373Y-90969D01*
X109200Y-90036D01*
X108767Y-89369D01*
X108160Y-88969D01*
X107553D01*
X106947Y-89236D01*
X106427Y-89902D01*
G01X99367Y-96969D02*
X102833D01*
Y-88969D01*
X99367D01*
G01X100753Y-92836D02*
X102833D01*
G01X96553Y-96969D02*
Y-88969D01*
X94300Y-95636D01*
X92047Y-88969D01*
Y-96969D01*
G01X88540Y-88969D02*
X86460D01*
G01X87500D02*
Y-96969D01*
G01X88540D02*
X86460D01*
G01X78793Y-89636D02*
X79313Y-89236D01*
X79920Y-88969D01*
X80613D01*
X81393Y-89369D01*
X82000Y-90036D01*
X82433Y-90836D01*
X82780Y-92169D01*
X82867Y-93369D01*
X82693Y-94569D01*
X82433Y-95369D01*
X81913Y-96169D01*
X81307Y-96702D01*
X80700Y-96969D01*
X80093D01*
X79487Y-96702D01*
X78967Y-96302D01*
X78533Y-95769D01*
G01X73900Y-96969D02*
X74593Y-96836D01*
X75200Y-96302D01*
X75720Y-95502D01*
X76067Y-94569D01*
X76240Y-93502D01*
Y-92436D01*
X76067Y-91369D01*
X75720Y-90436D01*
X75200Y-89636D01*
X74593Y-89102D01*
X73900Y-88969D01*
X73207Y-89102D01*
X72600Y-89636D01*
X72080Y-90436D01*
X71733Y-91369D01*
X71560Y-92436D01*
Y-93502D01*
X71733Y-94569D01*
X72080Y-95502D01*
X72600Y-96302D01*
X73207Y-96836D01*
X73900Y-96969D01*
G01X69093D02*
Y-88969D01*
X65107Y-96969D01*
Y-88969D01*
G01X62207Y-96969D02*
Y-88969D01*
X60473D01*
X59780Y-89369D01*
X59260Y-89902D01*
X58827Y-90702D01*
X58480Y-91636D01*
X58393Y-92969D01*
X58480Y-94302D01*
X58827Y-95236D01*
X59260Y-96036D01*
X59780Y-96569D01*
X60473Y-96969D01*
X62207D01*
G01X55407Y-88969D02*
Y-94702D01*
X55060Y-95902D01*
X54367Y-96702D01*
X53500Y-96969D01*
X52633Y-96702D01*
X51940Y-95902D01*
X51593Y-94702D01*
Y-88969D01*
G01X44793Y-89636D02*
X45313Y-89236D01*
X45920Y-88969D01*
X46613D01*
X47393Y-89369D01*
X48000Y-90036D01*
X48433Y-90836D01*
X48780Y-92169D01*
X48867Y-93369D01*
X48693Y-94569D01*
X48433Y-95369D01*
X47913Y-96169D01*
X47307Y-96702D01*
X46700Y-96969D01*
X46093D01*
X45487Y-96702D01*
X44967Y-96302D01*
X44533Y-95769D01*
G01X39900Y-88969D02*
Y-96969D01*
G01X41893Y-88969D02*
X37907D01*
G01X33100Y-96969D02*
X33793Y-96836D01*
X34400Y-96302D01*
X34920Y-95502D01*
X35267Y-94569D01*
X35440Y-93502D01*
Y-92436D01*
X35267Y-91369D01*
X34920Y-90436D01*
X34400Y-89636D01*
X33793Y-89102D01*
X33100Y-88969D01*
X32407Y-89102D01*
X31800Y-89636D01*
X31280Y-90436D01*
X30933Y-91369D01*
X30760Y-92436D01*
Y-93502D01*
X30933Y-94569D01*
X31280Y-95502D01*
X31800Y-96302D01*
X32407Y-96836D01*
X33100Y-96969D01*
G01X28033D02*
Y-88969D01*
X25867D01*
X25173Y-89369D01*
X24740Y-89902D01*
X24567Y-90969D01*
X24740Y-92036D01*
X25260Y-92702D01*
X25867Y-93102D01*
X28033D01*
G01X25867D02*
X24567Y-96969D01*
G01X14607Y-88969D02*
Y-94702D01*
X14260Y-95902D01*
X13567Y-96702D01*
X12700Y-96969D01*
X11833Y-96702D01*
X11140Y-95902D01*
X10793Y-94702D01*
Y-88969D01*
G01X7720Y-95902D02*
X7027Y-96569D01*
X6247Y-96969D01*
X5553D01*
X4860Y-96569D01*
X4340Y-95902D01*
X4080Y-94969D01*
X4253Y-94036D01*
X4687Y-93236D01*
X5467Y-92702D01*
X6507Y-92436D01*
X7113Y-91902D01*
X7373Y-90969D01*
X7200Y-90036D01*
X6767Y-89369D01*
X6160Y-88969D01*
X5553D01*
X4947Y-89236D01*
X4427Y-89902D01*
G01X1267Y-96969D02*
X-900Y-88969D01*
X-3067Y-96969D01*
G01X-2287Y-94169D02*
X487D01*
G01X0Y0D02*
X275590D01*
Y275590D01*
X0D01*
Y0D01*
G01X106993Y-144469D02*
Y-136469D01*
X103007Y-144469D01*
Y-136469D01*
G01X100107D02*
Y-142202D01*
X99760Y-143402D01*
X99067Y-144202D01*
X98200Y-144469D01*
X97333Y-144202D01*
X96640Y-143402D01*
X96293Y-142202D01*
Y-136469D01*
G01X93653Y-144469D02*
Y-136469D01*
X91400Y-143136D01*
X89147Y-136469D01*
Y-144469D01*
G01X83907Y-140202D02*
X83560Y-139802D01*
X83300Y-139136D01*
X83127Y-138202D01*
X83300Y-137402D01*
X83647Y-136869D01*
X84253Y-136469D01*
X86593D01*
Y-144469D01*
X83733D01*
X83127Y-143936D01*
X82780Y-143136D01*
X82607Y-142202D01*
X82780Y-141269D01*
X83300Y-140469D01*
X83907Y-140202D01*
X86593D01*
G01X76067Y-144469D02*
X79533D01*
Y-136469D01*
X76067D01*
G01X77453Y-140336D02*
X79533D01*
G01X72733Y-144469D02*
Y-136469D01*
X70567D01*
X69873Y-136869D01*
X69440Y-137402D01*
X69267Y-138469D01*
X69440Y-139536D01*
X69960Y-140202D01*
X70567Y-140602D01*
X72733D01*
G01X70567D02*
X69267Y-144469D01*
G01X167333Y-131969D02*
Y-125969D01*
X165733D01*
X165200Y-126269D01*
X164800Y-126969D01*
X164667Y-127769D01*
X164800Y-128569D01*
X165133Y-129169D01*
X165733Y-129469D01*
X167333D01*
G01X162133Y-131969D02*
Y-125969D01*
X160467D01*
X159933Y-126269D01*
X159600Y-126669D01*
X159467Y-127469D01*
X159600Y-128269D01*
X160000Y-128769D01*
X160467Y-129069D01*
X162133D01*
G01X160467D02*
X159467Y-131969D01*
G01X155600D02*
X156133Y-131869D01*
X156600Y-131469D01*
X157000Y-130869D01*
X157267Y-130169D01*
X157400Y-129369D01*
Y-128569D01*
X157267Y-127769D01*
X157000Y-127069D01*
X156600Y-126469D01*
X156133Y-126069D01*
X155600Y-125969D01*
X155067Y-126069D01*
X154600Y-126469D01*
X154200Y-127069D01*
X153933Y-127769D01*
X153800Y-128569D01*
Y-129369D01*
X153933Y-130169D01*
X154200Y-130869D01*
X154600Y-131469D01*
X155067Y-131869D01*
X155600Y-131969D01*
G01X151733Y-130769D02*
X151400Y-131369D01*
X151000Y-131769D01*
X150533Y-131969D01*
X150000Y-131769D01*
X149600Y-131369D01*
X149200Y-130769D01*
X149067Y-129969D01*
Y-125969D01*
G01X143867Y-131969D02*
X146533D01*
Y-125969D01*
X143867D01*
G01X144933Y-128869D02*
X146533D01*
G01X138533Y-126469D02*
X138933Y-126169D01*
X139400Y-125969D01*
X139933D01*
X140533Y-126269D01*
X141000Y-126769D01*
X141333Y-127369D01*
X141600Y-128369D01*
X141667Y-129269D01*
X141533Y-130169D01*
X141333Y-130769D01*
X140933Y-131369D01*
X140467Y-131769D01*
X140000Y-131969D01*
X139533D01*
X139067Y-131769D01*
X138667Y-131469D01*
X138333Y-131069D01*
G01X134800Y-125969D02*
Y-131969D01*
G01X136333Y-125969D02*
X133267D01*
G01X125933Y-131969D02*
Y-125969D01*
X122867Y-131969D01*
Y-125969D01*
G01X120667D02*
Y-130269D01*
X120400Y-131169D01*
X119867Y-131769D01*
X119200Y-131969D01*
X118533Y-131769D01*
X118000Y-131169D01*
X117733Y-130269D01*
Y-125969D01*
G01X115733Y-131969D02*
Y-125969D01*
X114000Y-130969D01*
X112267Y-125969D01*
Y-131969D01*
G01X108267Y-128769D02*
X108000Y-128469D01*
X107800Y-127969D01*
X107667Y-127269D01*
X107800Y-126669D01*
X108067Y-126269D01*
X108533Y-125969D01*
X110333D01*
Y-131969D01*
X108133D01*
X107667Y-131569D01*
X107400Y-130969D01*
X107267Y-130269D01*
X107400Y-129569D01*
X107800Y-128969D01*
X108267Y-128769D01*
X110333D01*
G01X102267Y-131969D02*
X104933D01*
Y-125969D01*
X102267D01*
G01X103333Y-128869D02*
X104933D01*
G01X99733Y-131969D02*
Y-125969D01*
X98067D01*
X97533Y-126269D01*
X97200Y-126669D01*
X97067Y-127469D01*
X97200Y-128269D01*
X97600Y-128769D01*
X98067Y-129069D01*
X99733D01*
G01X98067D02*
X97067Y-131969D01*
G01X93200Y-132169D02*
X93333Y-132069D01*
Y-131869D01*
X93200Y-131769D01*
X93067Y-131869D01*
Y-132069D01*
X93200Y-132169D01*
G01Y-129469D02*
X93333Y-129369D01*
Y-129169D01*
X93200Y-129069D01*
X93067Y-129169D01*
Y-129369D01*
X93200Y-129469D01*
G01X167333Y-109469D02*
Y-103469D01*
X165733D01*
X165200Y-103769D01*
X164800Y-104469D01*
X164667Y-105269D01*
X164800Y-106069D01*
X165133Y-106669D01*
X165733Y-106969D01*
X167333D01*
G01X162133Y-109469D02*
Y-103469D01*
X160467D01*
X159933Y-103769D01*
X159600Y-104169D01*
X159467Y-104969D01*
X159600Y-105769D01*
X160000Y-106269D01*
X160467Y-106569D01*
X162133D01*
G01X160467D02*
X159467Y-109469D01*
G01X155600D02*
X156133Y-109369D01*
X156600Y-108969D01*
X157000Y-108369D01*
X157267Y-107669D01*
X157400Y-106869D01*
Y-106069D01*
X157267Y-105269D01*
X157000Y-104569D01*
X156600Y-103969D01*
X156133Y-103569D01*
X155600Y-103469D01*
X155067Y-103569D01*
X154600Y-103969D01*
X154200Y-104569D01*
X153933Y-105269D01*
X153800Y-106069D01*
Y-106869D01*
X153933Y-107669D01*
X154200Y-108369D01*
X154600Y-108969D01*
X155067Y-109369D01*
X155600Y-109469D01*
G01X151733Y-108269D02*
X151400Y-108869D01*
X151000Y-109269D01*
X150533Y-109469D01*
X150000Y-109269D01*
X149600Y-108869D01*
X149200Y-108269D01*
X149067Y-107469D01*
Y-103469D01*
G01X143867Y-109469D02*
X146533D01*
Y-103469D01*
X143867D01*
G01X144933Y-106369D02*
X146533D01*
G01X138533Y-103969D02*
X138933Y-103669D01*
X139400Y-103469D01*
X139933D01*
X140533Y-103769D01*
X141000Y-104269D01*
X141333Y-104869D01*
X141600Y-105869D01*
X141667Y-106769D01*
X141533Y-107669D01*
X141333Y-108269D01*
X140933Y-108869D01*
X140467Y-109269D01*
X140000Y-109469D01*
X139533D01*
X139067Y-109269D01*
X138667Y-108969D01*
X138333Y-108569D01*
G01X134800Y-103469D02*
Y-109469D01*
G01X136333Y-103469D02*
X133267D01*
G01X125933Y-109469D02*
Y-103469D01*
X122867Y-109469D01*
Y-103469D01*
G01X120867Y-109469D02*
X119200Y-103469D01*
X117533Y-109469D01*
G01X118133Y-107369D02*
X120267D01*
G01X115733Y-109469D02*
Y-103469D01*
X114000Y-108469D01*
X112267Y-103469D01*
Y-109469D01*
G01X107467D02*
X110133D01*
Y-103469D01*
X107467D01*
G01X108533Y-106369D02*
X110133D01*
G01X103600Y-109669D02*
X103733Y-109569D01*
Y-109369D01*
X103600Y-109269D01*
X103467Y-109369D01*
Y-109569D01*
X103600Y-109669D01*
G01Y-106969D02*
X103733Y-106869D01*
Y-106669D01*
X103600Y-106569D01*
X103467Y-106669D01*
Y-106869D01*
X103600Y-106969D01*
G01X164533Y-73969D02*
X164933Y-73669D01*
X165400Y-73469D01*
X165933D01*
X166533Y-73769D01*
X167000Y-74269D01*
X167333Y-74869D01*
X167600Y-75869D01*
X167667Y-76769D01*
X167533Y-77669D01*
X167333Y-78269D01*
X166933Y-78869D01*
X166467Y-79269D01*
X166000Y-79469D01*
X165533D01*
X165067Y-79269D01*
X164667Y-78969D01*
X164333Y-78569D01*
G01X160800Y-79469D02*
X161333Y-79369D01*
X161800Y-78969D01*
X162200Y-78369D01*
X162467Y-77669D01*
X162600Y-76869D01*
Y-76069D01*
X162467Y-75269D01*
X162200Y-74569D01*
X161800Y-73969D01*
X161333Y-73569D01*
X160800Y-73469D01*
X160267Y-73569D01*
X159800Y-73969D01*
X159400Y-74569D01*
X159133Y-75269D01*
X159000Y-76069D01*
Y-76869D01*
X159133Y-77669D01*
X159400Y-78369D01*
X159800Y-78969D01*
X160267Y-79369D01*
X160800Y-79469D01*
G01X157333D02*
Y-73469D01*
X155600Y-78469D01*
X153867Y-73469D01*
Y-79469D01*
G01X151733D02*
Y-73469D01*
X150133D01*
X149600Y-73769D01*
X149200Y-74469D01*
X149067Y-75269D01*
X149200Y-76069D01*
X149533Y-76669D01*
X150133Y-76969D01*
X151733D01*
G01X146867Y-79469D02*
X145200Y-73469D01*
X143533Y-79469D01*
G01X144133Y-77369D02*
X146267D01*
G01X141533Y-79469D02*
Y-73469D01*
X138467Y-79469D01*
Y-73469D01*
G01X134800Y-79469D02*
Y-76769D01*
X136133Y-73469D01*
G01X133467D02*
X134800Y-76769D01*
G01X125933Y-79469D02*
Y-73469D01*
X122867Y-79469D01*
Y-73469D01*
G01X120867Y-79469D02*
X119200Y-73469D01*
X117533Y-79469D01*
G01X118133Y-77369D02*
X120267D01*
G01X115733Y-79469D02*
Y-73469D01*
X114000Y-78469D01*
X112267Y-73469D01*
Y-79469D01*
G01X107467D02*
X110133D01*
Y-73469D01*
X107467D01*
G01X108533Y-76369D02*
X110133D01*
G01X103600Y-79669D02*
X103733Y-79569D01*
Y-79369D01*
X103600Y-79269D01*
X103467Y-79369D01*
Y-79569D01*
X103600Y-79669D01*
G01Y-76969D02*
X103733Y-76869D01*
Y-76669D01*
X103600Y-76569D01*
X103467Y-76669D01*
Y-76869D01*
X103600Y-76969D01*
G01X170500Y-71969D02*
Y-146969D01*
G01Y-134969D02*
X288000D01*
G01X170500Y-123969D02*
X288000D01*
G01X170500Y-112969D02*
X288000D01*
G01X170500Y-101969D02*
X288000D01*
G01X248967Y-121969D02*
Y-116969D01*
X247633D01*
X247207Y-117219D01*
X246940Y-117552D01*
X246833Y-118219D01*
X246940Y-118886D01*
X247260Y-119302D01*
X247633Y-119552D01*
X248967D01*
G01X247633D02*
X246833Y-121969D01*
G01X243700D02*
X244127Y-121886D01*
X244500Y-121552D01*
X244820Y-121052D01*
X245033Y-120469D01*
X245140Y-119802D01*
Y-119136D01*
X245033Y-118469D01*
X244820Y-117886D01*
X244500Y-117386D01*
X244127Y-117052D01*
X243700Y-116969D01*
X243273Y-117052D01*
X242900Y-117386D01*
X242580Y-117886D01*
X242367Y-118469D01*
X242260Y-119136D01*
Y-119802D01*
X242367Y-120469D01*
X242580Y-121052D01*
X242900Y-121552D01*
X243273Y-121886D01*
X243700Y-121969D01*
G01X240620D02*
Y-116969D01*
G01X238380D02*
Y-121969D01*
G01Y-119469D02*
X240620D01*
G01X236687Y-121969D02*
Y-116969D01*
X235300Y-121136D01*
X233913Y-116969D01*
Y-121969D01*
G01X228020Y-121302D02*
X227593Y-121719D01*
X227113Y-121969D01*
X226687D01*
X226260Y-121719D01*
X225940Y-121302D01*
X225780Y-120719D01*
X225887Y-120136D01*
X226153Y-119636D01*
X226633Y-119302D01*
X227273Y-119136D01*
X227647Y-118802D01*
X227807Y-118219D01*
X227700Y-117636D01*
X227433Y-117219D01*
X227060Y-116969D01*
X226687D01*
X226313Y-117136D01*
X225993Y-117552D01*
G01X221633Y-121969D02*
X223767D01*
Y-116969D01*
X221633D01*
G01X222487Y-119386D02*
X223767D01*
G01X219887Y-121969D02*
Y-116969D01*
X218500Y-121136D01*
X217113Y-116969D01*
Y-121969D01*
G01X214940Y-116969D02*
X213660D01*
G01X214300D02*
Y-121969D01*
G01X214940D02*
X213660D01*
G01X208927Y-117386D02*
X209247Y-117136D01*
X209620Y-116969D01*
X210047D01*
X210527Y-117219D01*
X210900Y-117636D01*
X211167Y-118136D01*
X211380Y-118969D01*
X211433Y-119719D01*
X211327Y-120469D01*
X211167Y-120969D01*
X210847Y-121469D01*
X210473Y-121802D01*
X210100Y-121969D01*
X209727D01*
X209353Y-121802D01*
X209033Y-121552D01*
X208767Y-121219D01*
G01X205900Y-121969D02*
X206327Y-121886D01*
X206700Y-121552D01*
X207020Y-121052D01*
X207233Y-120469D01*
X207340Y-119802D01*
Y-119136D01*
X207233Y-118469D01*
X207020Y-117886D01*
X206700Y-117386D01*
X206327Y-117052D01*
X205900Y-116969D01*
X205473Y-117052D01*
X205100Y-117386D01*
X204780Y-117886D01*
X204567Y-118469D01*
X204460Y-119136D01*
Y-119802D01*
X204567Y-120469D01*
X204780Y-121052D01*
X205100Y-121552D01*
X205473Y-121886D01*
X205900Y-121969D01*
G01X202927D02*
Y-116969D01*
X200473Y-121969D01*
Y-116969D01*
G01X198673Y-121969D02*
Y-116969D01*
X197607D01*
X197180Y-117219D01*
X196860Y-117552D01*
X196593Y-118052D01*
X196380Y-118636D01*
X196327Y-119469D01*
X196380Y-120302D01*
X196593Y-120886D01*
X196860Y-121386D01*
X197180Y-121719D01*
X197607Y-121969D01*
X198673D01*
G01X194473Y-116969D02*
Y-120552D01*
X194260Y-121302D01*
X193833Y-121802D01*
X193300Y-121969D01*
X192767Y-121802D01*
X192340Y-121302D01*
X192127Y-120552D01*
Y-116969D01*
G01X187927Y-117386D02*
X188247Y-117136D01*
X188620Y-116969D01*
X189047D01*
X189527Y-117219D01*
X189900Y-117636D01*
X190167Y-118136D01*
X190380Y-118969D01*
X190433Y-119719D01*
X190327Y-120469D01*
X190167Y-120969D01*
X189847Y-121469D01*
X189473Y-121802D01*
X189100Y-121969D01*
X188727D01*
X188353Y-121802D01*
X188033Y-121552D01*
X187767Y-121219D01*
G01X184900Y-116969D02*
Y-121969D01*
G01X186127Y-116969D02*
X183673D01*
G01X180700Y-121969D02*
X181127Y-121886D01*
X181500Y-121552D01*
X181820Y-121052D01*
X182033Y-120469D01*
X182140Y-119802D01*
Y-119136D01*
X182033Y-118469D01*
X181820Y-117886D01*
X181500Y-117386D01*
X181127Y-117052D01*
X180700Y-116969D01*
X180273Y-117052D01*
X179900Y-117386D01*
X179580Y-117886D01*
X179367Y-118469D01*
X179260Y-119136D01*
Y-119802D01*
X179367Y-120469D01*
X179580Y-121052D01*
X179900Y-121552D01*
X180273Y-121886D01*
X180700Y-121969D01*
G01X177567D02*
Y-116969D01*
X176233D01*
X175807Y-117219D01*
X175540Y-117552D01*
X175433Y-118219D01*
X175540Y-118886D01*
X175860Y-119302D01*
X176233Y-119552D01*
X177567D01*
G01X176233D02*
X175433Y-121969D01*
G01X273250Y-95969D02*
X272583Y-96594D01*
X271833Y-96969D01*
X271167D01*
X270500Y-96594D01*
X270000Y-95969D01*
X269750Y-95094D01*
X269917Y-94219D01*
X270333Y-93469D01*
X271083Y-92969D01*
X272083Y-92719D01*
X272667Y-92219D01*
X272917Y-91344D01*
X272750Y-90469D01*
X272333Y-89844D01*
X271750Y-89469D01*
X271167D01*
X270583Y-89719D01*
X270083Y-90344D01*
G01X263333Y-96969D02*
X266667D01*
Y-89469D01*
X263333D01*
G01X264667Y-93094D02*
X266667D01*
G01X256667Y-90094D02*
X257167Y-89719D01*
X257750Y-89469D01*
X258417D01*
X259167Y-89844D01*
X259750Y-90469D01*
X260167Y-91219D01*
X260500Y-92469D01*
X260583Y-93594D01*
X260417Y-94719D01*
X260167Y-95469D01*
X259667Y-96219D01*
X259083Y-96719D01*
X258500Y-96969D01*
X257917D01*
X257333Y-96719D01*
X256833Y-96344D01*
X256417Y-95844D01*
G01X252000Y-96969D02*
X252667Y-96844D01*
X253250Y-96344D01*
X253750Y-95594D01*
X254083Y-94719D01*
X254250Y-93719D01*
Y-92719D01*
X254083Y-91719D01*
X253750Y-90844D01*
X253250Y-90094D01*
X252667Y-89594D01*
X252000Y-89469D01*
X251333Y-89594D01*
X250750Y-90094D01*
X250250Y-90844D01*
X249917Y-91719D01*
X249750Y-92719D01*
Y-93719D01*
X249917Y-94719D01*
X250250Y-95594D01*
X250750Y-96344D01*
X251333Y-96844D01*
X252000Y-96969D01*
G01X247417D02*
Y-89469D01*
X243583Y-96969D01*
Y-89469D01*
G01X240833Y-96969D02*
Y-89469D01*
X239167D01*
X238500Y-89844D01*
X238000Y-90344D01*
X237583Y-91094D01*
X237250Y-91969D01*
X237167Y-93219D01*
X237250Y-94469D01*
X237583Y-95344D01*
X238000Y-96094D01*
X238500Y-96594D01*
X239167Y-96969D01*
X240833D01*
G01X234583D02*
X232500Y-89469D01*
X230417Y-96969D01*
G01X231167Y-94344D02*
X233833D01*
G01X227667Y-96969D02*
Y-89469D01*
X225583D01*
X224917Y-89844D01*
X224500Y-90344D01*
X224333Y-91344D01*
X224500Y-92344D01*
X225000Y-92969D01*
X225583Y-93344D01*
X227667D01*
G01X225583D02*
X224333Y-96969D01*
G01X219500D02*
Y-93594D01*
X221167Y-89469D01*
G01X217833D02*
X219500Y-93594D01*
G01X214083Y-94469D02*
X211917D01*
G01X208250Y-95969D02*
X207583Y-96594D01*
X206833Y-96969D01*
X206167D01*
X205500Y-96594D01*
X205000Y-95969D01*
X204750Y-95094D01*
X204917Y-94219D01*
X205333Y-93469D01*
X206083Y-92969D01*
X207083Y-92719D01*
X207667Y-92219D01*
X207917Y-91344D01*
X207750Y-90469D01*
X207333Y-89844D01*
X206750Y-89469D01*
X206167D01*
X205583Y-89719D01*
X205083Y-90344D01*
G01X201000Y-89469D02*
X199000D01*
G01X200000D02*
Y-96969D01*
G01X201000D02*
X199000D01*
G01X195333D02*
Y-89469D01*
X193667D01*
X193000Y-89844D01*
X192500Y-90344D01*
X192083Y-91094D01*
X191750Y-91969D01*
X191667Y-93219D01*
X191750Y-94469D01*
X192083Y-95344D01*
X192500Y-96094D01*
X193000Y-96594D01*
X193667Y-96969D01*
X195333D01*
G01X185333D02*
X188667D01*
Y-89469D01*
X185333D01*
G01X186667Y-93094D02*
X188667D01*
G01X255413Y-128802D02*
X255093Y-128302D01*
X254720Y-128052D01*
X254293Y-127969D01*
X253760Y-128136D01*
X253387Y-128552D01*
X253280Y-129052D01*
X253333Y-129552D01*
X253547Y-129969D01*
X254613Y-130802D01*
X255093Y-131386D01*
X255413Y-132219D01*
X255520Y-132969D01*
X253280D01*
G01X250200Y-127969D02*
X250627Y-128136D01*
X250947Y-128552D01*
X251160Y-129052D01*
X251320Y-129719D01*
X251373Y-130469D01*
X251320Y-131219D01*
X251160Y-131886D01*
X250947Y-132386D01*
X250627Y-132802D01*
X250200Y-132969D01*
X249773Y-132802D01*
X249453Y-132386D01*
X249240Y-131886D01*
X249080Y-131219D01*
X249027Y-130469D01*
X249080Y-129719D01*
X249240Y-129052D01*
X249453Y-128552D01*
X249773Y-128136D01*
X250200Y-127969D01*
G01X246000Y-132969D02*
Y-127969D01*
X246640Y-128969D01*
G01Y-132969D02*
X245360D01*
G01X241160D02*
Y-127969D01*
X243133Y-131552D01*
X240467D01*
G01X237600Y-132969D02*
Y-127969D01*
X238240Y-128969D01*
G01Y-132969D02*
X236960D01*
G01X233400D02*
Y-127969D01*
X234040Y-128969D01*
G01Y-132969D02*
X232760D01*
G01X229200Y-127969D02*
X229627Y-128136D01*
X229947Y-128552D01*
X230160Y-129052D01*
X230320Y-129719D01*
X230373Y-130469D01*
X230320Y-131219D01*
X230160Y-131886D01*
X229947Y-132386D01*
X229627Y-132802D01*
X229200Y-132969D01*
X228773Y-132802D01*
X228453Y-132386D01*
X228240Y-131886D01*
X228080Y-131219D01*
X228027Y-130469D01*
X228080Y-129719D01*
X228240Y-129052D01*
X228453Y-128552D01*
X228773Y-128136D01*
X229200Y-127969D01*
G01X226173Y-132219D02*
X225853Y-132636D01*
X225480Y-132886D01*
X225000Y-132969D01*
X224520Y-132802D01*
X224147Y-132469D01*
X223880Y-131886D01*
X223827Y-131219D01*
X223933Y-130552D01*
X224200Y-130136D01*
X224573Y-129802D01*
X224947Y-129719D01*
X225320Y-129802D01*
X225800Y-130136D01*
X225640Y-127969D01*
X224200D01*
G01X242467Y-110969D02*
Y-105969D01*
X241187D01*
X240760Y-106219D01*
X240440Y-106802D01*
X240333Y-107469D01*
X240440Y-108136D01*
X240707Y-108636D01*
X241187Y-108886D01*
X242467D01*
G01X237200Y-105969D02*
Y-110969D01*
G01X238427Y-105969D02*
X235973D01*
G01X234120Y-110969D02*
Y-105969D01*
G01X231880D02*
Y-110969D01*
G01Y-108469D02*
X234120D01*
G01X230133Y-105969D02*
X228800Y-110969D01*
X227467Y-105969D01*
G01X225773Y-110969D02*
Y-105969D01*
X224707D01*
X224280Y-106219D01*
X223960Y-106552D01*
X223693Y-107052D01*
X223480Y-107636D01*
X223427Y-108469D01*
X223480Y-109302D01*
X223693Y-109886D01*
X223960Y-110386D01*
X224280Y-110719D01*
X224707Y-110969D01*
X225773D01*
G01X219227Y-106386D02*
X219547Y-106136D01*
X219920Y-105969D01*
X220347D01*
X220827Y-106219D01*
X221200Y-106636D01*
X221467Y-107136D01*
X221680Y-107969D01*
X221733Y-108719D01*
X221627Y-109469D01*
X221467Y-109969D01*
X221147Y-110469D01*
X220773Y-110802D01*
X220400Y-110969D01*
X220027D01*
X219653Y-110802D01*
X219333Y-110552D01*
X219067Y-110219D01*
G01X235500Y-76469D02*
X236167Y-76719D01*
X236667Y-77344D01*
X237000Y-78094D01*
X237250Y-79094D01*
X237333Y-80219D01*
X237250Y-81344D01*
X237000Y-82344D01*
X236667Y-83094D01*
X236167Y-83719D01*
X235500Y-83969D01*
X234833Y-83719D01*
X234333Y-83094D01*
X234000Y-82344D01*
X233750Y-81344D01*
X233667Y-80219D01*
X233750Y-79094D01*
X234000Y-78094D01*
X234333Y-77344D01*
X234833Y-76719D01*
X235500Y-76469D01*
G01X228000Y-83969D02*
Y-76469D01*
X231083Y-81844D01*
X226917D01*
G01X282573Y-110969D02*
Y-105969D01*
X281507D01*
X281080Y-106219D01*
X280760Y-106552D01*
X280493Y-107052D01*
X280280Y-107636D01*
X280227Y-108469D01*
X280280Y-109302D01*
X280493Y-109886D01*
X280760Y-110386D01*
X281080Y-110719D01*
X281507Y-110969D01*
X282573D01*
G01X276133D02*
X278267D01*
Y-105969D01*
X276133D01*
G01X276987Y-108386D02*
X278267D01*
G01X274120Y-110302D02*
X273693Y-110719D01*
X273213Y-110969D01*
X272787D01*
X272360Y-110719D01*
X272040Y-110302D01*
X271880Y-109719D01*
X271987Y-109136D01*
X272253Y-108636D01*
X272733Y-108302D01*
X273373Y-108136D01*
X273747Y-107802D01*
X273907Y-107219D01*
X273800Y-106636D01*
X273533Y-106219D01*
X273160Y-105969D01*
X272787D01*
X272413Y-106136D01*
X272093Y-106552D01*
G01X269440Y-105969D02*
X268160D01*
G01X268800D02*
Y-110969D01*
G01X269440D02*
X268160D01*
G01X264280Y-108469D02*
X263213D01*
Y-109969D01*
X263533Y-110469D01*
X263907Y-110802D01*
X264440Y-110969D01*
X264973Y-110802D01*
X265347Y-110469D01*
X265667Y-109969D01*
X265880Y-109386D01*
X265987Y-108719D01*
Y-108136D01*
X265880Y-107636D01*
X265667Y-107052D01*
X265347Y-106552D01*
X265027Y-106219D01*
X264600Y-105969D01*
X264227D01*
X263800Y-106136D01*
X263480Y-106469D01*
G01X261627Y-110969D02*
Y-105969D01*
X259173Y-110969D01*
Y-105969D01*
G01X255133Y-110969D02*
X257267D01*
Y-105969D01*
X255133D01*
G01X255987Y-108386D02*
X257267D01*
G01X253067Y-110969D02*
Y-105969D01*
X251733D01*
X251307Y-106219D01*
X251040Y-106552D01*
X250933Y-107219D01*
X251040Y-107886D01*
X251360Y-108302D01*
X251733Y-108552D01*
X253067D01*
G01X251733D02*
X250933Y-110969D01*
G01X247800Y-111136D02*
X247907Y-111052D01*
Y-110886D01*
X247800Y-110802D01*
X247693Y-110886D01*
Y-111052D01*
X247800Y-111136D01*
G01Y-108886D02*
X247907Y-108802D01*
Y-108636D01*
X247800Y-108552D01*
X247693Y-108636D01*
Y-108802D01*
X247800Y-108886D01*
G01X280227Y-117386D02*
X280547Y-117136D01*
X280920Y-116969D01*
X281347D01*
X281827Y-117219D01*
X282200Y-117636D01*
X282467Y-118136D01*
X282680Y-118969D01*
X282733Y-119719D01*
X282627Y-120469D01*
X282467Y-120969D01*
X282147Y-121469D01*
X281773Y-121802D01*
X281400Y-121969D01*
X281027D01*
X280653Y-121802D01*
X280333Y-121552D01*
X280067Y-121219D01*
G01X278320Y-121969D02*
Y-116969D01*
G01X276080D02*
Y-121969D01*
G01Y-119469D02*
X278320D01*
G01X271933Y-121969D02*
X274067D01*
Y-116969D01*
X271933D01*
G01X272787Y-119386D02*
X274067D01*
G01X267627Y-117386D02*
X267947Y-117136D01*
X268320Y-116969D01*
X268747D01*
X269227Y-117219D01*
X269600Y-117636D01*
X269867Y-118136D01*
X270080Y-118969D01*
X270133Y-119719D01*
X270027Y-120469D01*
X269867Y-120969D01*
X269547Y-121469D01*
X269173Y-121802D01*
X268800Y-121969D01*
X268427D01*
X268053Y-121802D01*
X267733Y-121552D01*
X267467Y-121219D01*
G01X265773Y-121969D02*
Y-116969D01*
G01X263747D02*
X265773Y-120052D01*
G01X263427Y-121969D02*
X264867Y-118636D01*
G01X259333Y-121969D02*
X261467D01*
Y-116969D01*
X259333D01*
G01X260187Y-119386D02*
X261467D01*
G01X257267Y-121969D02*
Y-116969D01*
X255933D01*
X255507Y-117219D01*
X255240Y-117552D01*
X255133Y-118219D01*
X255240Y-118886D01*
X255560Y-119302D01*
X255933Y-119552D01*
X257267D01*
G01X255933D02*
X255133Y-121969D01*
G01X252000Y-122136D02*
X252107Y-122052D01*
Y-121886D01*
X252000Y-121802D01*
X251893Y-121886D01*
Y-122052D01*
X252000Y-122136D01*
G01Y-119886D02*
X252107Y-119802D01*
Y-119636D01*
X252000Y-119552D01*
X251893Y-119636D01*
Y-119802D01*
X252000Y-119886D01*
G01X276167Y-76469D02*
Y-83969D01*
X272833D01*
G01X270083D02*
X268000Y-76469D01*
X265917Y-83969D01*
G01X266667Y-81344D02*
X269333D01*
G01X261500Y-83969D02*
Y-80594D01*
X263167Y-76469D01*
G01X259833D02*
X261500Y-80594D01*
G01X253333Y-83969D02*
X256667D01*
Y-76469D01*
X253333D01*
G01X254667Y-80094D02*
X256667D01*
G01X250167Y-83969D02*
Y-76469D01*
X248083D01*
X247417Y-76844D01*
X247000Y-77344D01*
X246833Y-78344D01*
X247000Y-79344D01*
X247500Y-79969D01*
X248083Y-80344D01*
X250167D01*
G01X248083D02*
X246833Y-83969D01*
G01X242000Y-84219D02*
X242167Y-84094D01*
Y-83844D01*
X242000Y-83719D01*
X241833Y-83844D01*
Y-84094D01*
X242000Y-84219D01*
G01Y-80844D02*
X242167Y-80719D01*
Y-80469D01*
X242000Y-80344D01*
X241833Y-80469D01*
Y-80719D01*
X242000Y-80844D01*
G01X282467Y-142969D02*
X282200Y-143469D01*
X281880Y-143802D01*
X281507Y-143969D01*
X281080Y-143802D01*
X280760Y-143469D01*
X280440Y-142969D01*
X280333Y-142302D01*
Y-138969D01*
G01X277200Y-143969D02*
X277627Y-143886D01*
X278000Y-143552D01*
X278320Y-143052D01*
X278533Y-142469D01*
X278640Y-141802D01*
Y-141136D01*
X278533Y-140469D01*
X278320Y-139886D01*
X278000Y-139386D01*
X277627Y-139052D01*
X277200Y-138969D01*
X276773Y-139052D01*
X276400Y-139386D01*
X276080Y-139886D01*
X275867Y-140469D01*
X275760Y-141136D01*
Y-141802D01*
X275867Y-142469D01*
X276080Y-143052D01*
X276400Y-143552D01*
X276773Y-143886D01*
X277200Y-143969D01*
G01X272573Y-141302D02*
X272360Y-141052D01*
X272200Y-140636D01*
X272093Y-140052D01*
X272200Y-139552D01*
X272413Y-139219D01*
X272787Y-138969D01*
X274227D01*
Y-143969D01*
X272467D01*
X272093Y-143636D01*
X271880Y-143136D01*
X271773Y-142552D01*
X271880Y-141969D01*
X272200Y-141469D01*
X272573Y-141302D01*
X274227D01*
G01X269867Y-145636D02*
X268800Y-138969D01*
G01X267733D02*
X268800Y-145636D01*
G01X270400Y-143136D02*
X267200D01*
G01Y-141469D02*
X270400D01*
G01X264600Y-144136D02*
X264707Y-144052D01*
Y-143886D01*
X264600Y-143802D01*
X264493Y-143886D01*
Y-144052D01*
X264600Y-144136D01*
G01Y-141886D02*
X264707Y-141802D01*
Y-141636D01*
X264600Y-141552D01*
X264493Y-141636D01*
Y-141802D01*
X264600Y-141886D01*
G01X281573Y-132969D02*
Y-127969D01*
X280507D01*
X280080Y-128219D01*
X279760Y-128552D01*
X279493Y-129052D01*
X279280Y-129636D01*
X279227Y-130469D01*
X279280Y-131302D01*
X279493Y-131886D01*
X279760Y-132386D01*
X280080Y-132719D01*
X280507Y-132969D01*
X281573D01*
G01X277533D02*
X276200Y-127969D01*
X274867Y-132969D01*
G01X275347Y-131219D02*
X277053D01*
G01X272000Y-127969D02*
Y-132969D01*
G01X273227Y-127969D02*
X270773D01*
G01X266733Y-132969D02*
X268867D01*
Y-127969D01*
X266733D01*
G01X267587Y-130386D02*
X268867D01*
G01X263600Y-133136D02*
X263707Y-133052D01*
Y-132886D01*
X263600Y-132802D01*
X263493Y-132886D01*
Y-133052D01*
X263600Y-133136D01*
G01Y-130886D02*
X263707Y-130802D01*
Y-130636D01*
X263600Y-130552D01*
X263493Y-130636D01*
Y-130802D01*
X263600Y-130886D01*
G01X288000Y-71969D02*
Y-146969D01*
G01X334895Y-119869D02*
G03I-355J0D01*
G01Y-118219D02*
G03I-355J0D01*
G01D02*
G03I-355J0D01*
G01Y-116559D02*
G03I-355J0D01*
G01D02*
G03I-355J0D01*
G01X332965Y-118219D02*
G03I-355J0D01*
G01D02*
G03I-355J0D01*
G01X332065Y-119869D02*
G03I-355J0D01*
G01X332685Y-118219D02*
G03I-355J0D01*
G01X332515Y-118199D02*
G03I-355J0D01*
G01X332355Y-118149D02*
G03I-355J0D01*
G01X332205Y-118079D02*
G03I-355J0D01*
G01X332075Y-117969D02*
G03I-355J0D01*
G01X332055Y-116789D02*
G03I-355J0D01*
G01X332185Y-116689D02*
G03I-355J0D01*
G01X332315Y-116619D02*
G03I-355J0D01*
G01X332465Y-116579D02*
G03I-355J0D01*
G01X332625Y-116559D02*
G03I-355J0D01*
G01X331965Y-117839D02*
G03I-355J0D01*
G01X331895Y-117689D02*
G03I-355J0D01*
G01X331845Y-117529D02*
G03I-355J0D01*
G01X331825Y-117359D02*
G03I-355J0D01*
G01X331845Y-117199D02*
G03I-355J0D01*
G01X331885Y-117049D02*
G03I-355J0D01*
G01X331955Y-116919D02*
G03I-355J0D01*
G01X334895Y-112069D02*
G03I-355J0D01*
G01X331825D02*
G03I-355J0D01*
G01X334895Y-111619D02*
G03I-355J0D01*
G01Y-110919D02*
G03I-355J0D01*
G01Y-110229D02*
G03I-355J0D01*
G01X331825Y-111619D02*
G03I-355J0D01*
G01Y-110919D02*
G03I-355J0D01*
G01Y-110229D02*
G03I-355J0D01*
G01X336315Y-100509D02*
G03I-355J0D01*
G01X336395Y-100499D02*
G03I-355J0D01*
G01X335405Y-100739D02*
G03I-355J0D01*
G01X335885Y-100569D02*
G03I-355J0D01*
G01X336015Y-98909D02*
G03I-355J0D01*
G01X334895Y-103979D02*
G03I-355J0D01*
G01Y-103289D02*
G03I-355J0D01*
G01Y-102589D02*
G03I-355J0D01*
G01Y-101899D02*
G03I-355J0D01*
G01X335015Y-101199D02*
G03I-355J0D01*
G01X334895Y-101759D02*
G03I-355J0D01*
G01X334925Y-101459D02*
G03I-355J0D01*
G01X335025Y-101179D02*
G03I-355J0D01*
G01X335185Y-100939D02*
G03I-355J0D01*
G01X334715Y-99119D02*
G03I-355J0D01*
G01X334855Y-99079D02*
G03I-355J0D01*
G01X334075Y-99299D02*
G03I-355J0D01*
G01X333345Y-99659D02*
G03I-355J0D01*
G01D02*
G03I-355J0D01*
G01X333135Y-99819D02*
G03I-355J0D01*
G01X331985Y-101199D02*
G03I-355J0D01*
G01X332355Y-100509D02*
G03I-355J0D01*
G01X332695Y-100139D02*
G03I-355J0D01*
G01X332315Y-100549D02*
G03I-355J0D01*
G01X332035Y-101029D02*
G03I-355J0D01*
G01X331825Y-103979D02*
G03I-355J0D01*
G01Y-103289D02*
G03I-355J0D01*
G01Y-102589D02*
G03I-355J0D01*
G01X331845Y-101899D02*
G03I-355J0D01*
G01X331825Y-102109D02*
G03I-355J0D01*
G01X331875Y-101559D02*
G03I-355J0D01*
G01X334895Y-109529D02*
G03I-355J0D01*
G01Y-108839D02*
G03I-355J0D01*
G01Y-108139D02*
G03I-355J0D01*
G01Y-107449D02*
G03I-355J0D01*
G01Y-106759D02*
G03I-355J0D01*
G01Y-106059D02*
G03I-355J0D01*
G01Y-105369D02*
G03I-355J0D01*
G01Y-104669D02*
G03I-355J0D01*
G01X331825Y-109529D02*
G03I-355J0D01*
G01Y-108839D02*
G03I-355J0D01*
G01Y-108139D02*
G03I-355J0D01*
G01Y-107449D02*
G03I-355J0D01*
G01Y-106759D02*
G03I-355J0D01*
G01Y-106059D02*
G03I-355J0D01*
G01Y-105369D02*
G03I-355J0D01*
G01Y-104669D02*
G03I-355J0D01*
G01X355145Y-119049D02*
G03I-355J0D01*
G01X355045Y-119249D02*
G03I-355J0D01*
G01X355205Y-118629D02*
G03I-355J0D01*
G01X355215D02*
G03I-355J0D01*
G01X355195Y-118849D02*
G03I-355J0D01*
G01X355205Y-116559D02*
G03I-355J0D01*
G01X354925Y-119429D02*
G03I-355J0D01*
G01X354775Y-119579D02*
G03I-355J0D01*
G01X354595Y-119699D02*
G03I-355J0D01*
G01X354395Y-119799D02*
G03I-355J0D01*
G01X354195Y-119849D02*
G03I-355J0D01*
G01X353975Y-119869D02*
G03I-355J0D01*
G01X353455D02*
G03I-355J0D01*
G01X353225Y-119849D02*
G03I-355J0D01*
G01X353005Y-119789D02*
G03I-355J0D01*
G01X352795Y-119689D02*
G03I-355J0D01*
G01X352615Y-119559D02*
G03I-355J0D01*
G01X352455Y-119399D02*
G03I-355J0D01*
G01X352325Y-119209D02*
G03I-355J0D01*
G01X352225Y-119009D02*
G03I-355J0D01*
G01X352165Y-118789D02*
G03I-355J0D01*
G01X352145Y-118559D02*
G03I-355J0D01*
G01X352135D02*
G03I-355J0D01*
G01Y-116559D02*
G03I-355J0D01*
G01X349995Y-118989D02*
G03I-355J0D01*
G01X349955Y-119169D02*
G03I-355J0D01*
G01X350015Y-118799D02*
G03I-355J0D01*
G01X349995Y-117419D02*
G03I-355J0D01*
G01X350015Y-117599D02*
G03I-355J0D01*
G01X349955Y-117239D02*
G03I-355J0D01*
G01X349875Y-119329D02*
G03I-355J0D01*
G01X349765Y-119489D02*
G03I-355J0D01*
G01X349635Y-119619D02*
G03I-355J0D01*
G01X349485Y-119729D02*
G03I-355J0D01*
G01X349315Y-119809D02*
G03I-355J0D01*
G01X349135Y-119849D02*
G03I-355J0D01*
G01X349155Y-116579D02*
G03I-355J0D01*
G01X349335Y-116619D02*
G03I-355J0D01*
G01X349495Y-116699D02*
G03I-355J0D01*
G01X349645Y-116799D02*
G03I-355J0D01*
G01X349775Y-116929D02*
G03I-355J0D01*
G01X349875Y-117079D02*
G03I-355J0D01*
G01X348945Y-119869D02*
G03I-355J0D01*
G01X348975Y-116559D02*
G03I-355J0D01*
G01X347175Y-119869D02*
G03I-355J0D01*
G01Y-116559D02*
G03I-355J0D01*
G01X354265Y-112069D02*
G03I-355J0D01*
G01X350955D02*
G03I-355J0D01*
G01X347415D02*
G03I-355J0D01*
G01X354265Y-111619D02*
G03I-355J0D01*
G01Y-110919D02*
G03I-355J0D01*
G01Y-110229D02*
G03I-355J0D01*
G01X350955Y-111619D02*
G03I-355J0D01*
G01Y-110919D02*
G03I-355J0D01*
G01Y-110229D02*
G03I-355J0D01*
G01X347415Y-111619D02*
G03I-355J0D01*
G01Y-110919D02*
G03I-355J0D01*
G01Y-110229D02*
G03I-355J0D01*
G01X339785Y-119619D02*
G03I-355J0D01*
G01X339945Y-119489D02*
G03I-355J0D01*
G01X340075Y-119329D02*
G03I-355J0D01*
G01X340185Y-119149D02*
G03I-355J0D01*
G01X340165Y-117199D02*
G03I-355J0D01*
G01X340035Y-117019D02*
G03I-355J0D01*
G01X339875Y-116859D02*
G03I-355J0D01*
G01X345285Y-116559D02*
G03I-355J0D01*
G01X343875Y-119869D02*
G03I-355J0D01*
G01Y-116559D02*
G03I-355J0D01*
G01D02*
G03I-355J0D01*
G01X342455D02*
G03I-355J0D01*
G01X340265Y-118959D02*
G03I-355J0D01*
G01X340305Y-118759D02*
G03I-355J0D01*
G01X340325Y-118559D02*
G03I-355J0D01*
G01Y-117849D02*
G03I-355J0D01*
G01X340335D02*
G03I-355J0D01*
G01X340315Y-117629D02*
G03I-355J0D01*
G01X340255Y-117409D02*
G03I-355J0D01*
G01X339685Y-116729D02*
G03I-355J0D01*
G01X339015Y-119869D02*
G03I-355J0D01*
G01X339215Y-119849D02*
G03I-355J0D01*
G01X339415Y-119809D02*
G03I-355J0D01*
G01X339605Y-119729D02*
G03I-355J0D01*
G01X339485Y-116639D02*
G03I-355J0D01*
G01X339265Y-116579D02*
G03I-355J0D01*
G01X339045Y-116559D02*
G03I-355J0D01*
G01X338095Y-119849D02*
G03I-355J0D01*
G01X338325Y-119869D02*
G03I-355J0D01*
G01X338305Y-116559D02*
G03I-355J0D01*
G01X338085Y-116579D02*
G03I-355J0D01*
G01X337195Y-119219D02*
G03I-355J0D01*
G01X337325Y-119409D02*
G03I-355J0D01*
G01X337485Y-119569D02*
G03I-355J0D01*
G01X337675Y-119699D02*
G03I-355J0D01*
G01X337885Y-119789D02*
G03I-355J0D01*
G01X337105Y-119009D02*
G03I-355J0D01*
G01X337865Y-116639D02*
G03I-355J0D01*
G01X337665Y-116729D02*
G03I-355J0D01*
G01X337485Y-116859D02*
G03I-355J0D01*
G01X337325Y-117019D02*
G03I-355J0D01*
G01X337195Y-117199D02*
G03I-355J0D01*
G01X337105Y-117399D02*
G03I-355J0D01*
G01X337025Y-118569D02*
G03I-355J0D01*
G01X337045Y-118799D02*
G03I-355J0D01*
G01X337025Y-118569D02*
G03I-355J0D01*
G01X337045Y-117619D02*
G03I-355J0D01*
G01X337025Y-117839D02*
G03I-355J0D01*
G01X344345Y-112069D02*
G03I-355J0D01*
G01X341275D02*
G03I-355J0D01*
G01X344345Y-111619D02*
G03I-355J0D01*
G01Y-110919D02*
G03I-355J0D01*
G01Y-110229D02*
G03I-355J0D01*
G01X341275Y-111619D02*
G03I-355J0D01*
G01Y-110919D02*
G03I-355J0D01*
G01Y-110229D02*
G03I-355J0D01*
G01X337965Y-112069D02*
G03I-355J0D01*
G01Y-111619D02*
G03I-355J0D01*
G01Y-110919D02*
G03I-355J0D01*
G01Y-110229D02*
G03I-355J0D01*
G01X354315Y-103979D02*
G03I-355J0D01*
G01X354375Y-104119D02*
G03I-355J0D01*
G01X354295Y-103929D02*
G03I-355J0D01*
G01X354265Y-103729D02*
G03I-355J0D01*
G01Y-103289D02*
G03I-355J0D01*
G01Y-101899D02*
G03I-355J0D01*
G01Y-102589D02*
G03I-355J0D01*
G01Y-101199D02*
G03I-355J0D01*
G01Y-100509D02*
G03I-355J0D01*
G01Y-99819D02*
G03I-355J0D01*
G01Y-99319D02*
G03I-355J0D01*
G01X350955Y-103979D02*
G03I-355J0D01*
G01Y-103289D02*
G03I-355J0D01*
G01Y-101899D02*
G03I-355J0D01*
G01Y-102589D02*
G03I-355J0D01*
G01Y-101199D02*
G03I-355J0D01*
G01Y-100509D02*
G03I-355J0D01*
G01Y-99819D02*
G03I-355J0D01*
G01Y-99319D02*
G03I-355J0D01*
G01X347415Y-103979D02*
G03I-355J0D01*
G01Y-103289D02*
G03I-355J0D01*
G01Y-102589D02*
G03I-355J0D01*
G01Y-101199D02*
G03I-355J0D01*
G01Y-101899D02*
G03I-355J0D01*
G01Y-100509D02*
G03I-355J0D01*
G01Y-99819D02*
G03I-355J0D01*
G01Y-99319D02*
G03I-355J0D01*
G01X355095Y-106169D02*
G03I-355J0D01*
G01X355045Y-104509D02*
G03I-355J0D01*
G01X354265Y-108839D02*
G03I-355J0D01*
G01Y-109529D02*
G03I-355J0D01*
G01Y-108139D02*
G03I-355J0D01*
G01Y-107449D02*
G03I-355J0D01*
G01X354305Y-106759D02*
G03I-355J0D01*
G01X354265Y-106999D02*
G03I-355J0D01*
G01X354295Y-106779D02*
G03I-355J0D01*
G01X354375Y-106579D02*
G03I-355J0D01*
G01X354505Y-106409D02*
G03I-355J0D01*
G01X354675Y-106279D02*
G03I-355J0D01*
G01X354885Y-106199D02*
G03I-355J0D01*
G01X354845Y-104489D02*
G03I-355J0D01*
G01X354655Y-104409D02*
G03I-355J0D01*
G01X354495Y-104289D02*
G03I-355J0D01*
G01X350955Y-109529D02*
G03I-355J0D01*
G01Y-108839D02*
G03I-355J0D01*
G01Y-108139D02*
G03I-355J0D01*
G01Y-107449D02*
G03I-355J0D01*
G01Y-106759D02*
G03I-355J0D01*
G01Y-105369D02*
G03I-355J0D01*
G01Y-106059D02*
G03I-355J0D01*
G01Y-104669D02*
G03I-355J0D01*
G01X347415Y-108839D02*
G03I-355J0D01*
G01Y-109529D02*
G03I-355J0D01*
G01Y-108139D02*
G03I-355J0D01*
G01Y-107449D02*
G03I-355J0D01*
G01Y-106759D02*
G03I-355J0D01*
G01Y-105369D02*
G03I-355J0D01*
G01Y-106059D02*
G03I-355J0D01*
G01Y-104669D02*
G03I-355J0D01*
G01X345865Y-99119D02*
G03I-355J0D01*
G01X344345Y-103979D02*
G03I-355J0D01*
G01Y-103289D02*
G03I-355J0D01*
G01Y-101899D02*
G03I-355J0D01*
G01Y-102589D02*
G03I-355J0D01*
G01X344325Y-101199D02*
G03I-355J0D01*
G01X344315Y-101109D02*
G03I-355J0D01*
G01X344345Y-101329D02*
G03I-355J0D01*
G01X343925Y-100609D02*
G03I-355J0D01*
G01X344105Y-100739D02*
G03I-355J0D01*
G01X344235Y-100909D02*
G03I-355J0D01*
G01X344475Y-98939D02*
G03I-355J0D01*
G01X343595Y-100509D02*
G03I-355J0D01*
G01X343515Y-100499D02*
G03I-355J0D01*
G01X343735Y-100529D02*
G03I-355J0D01*
G01X341995Y-100509D02*
G03I-355J0D01*
G01X341385Y-100899D02*
G03I-355J0D01*
G01X341505Y-100729D02*
G03I-355J0D01*
G01X341675Y-100609D02*
G03I-355J0D01*
G01X341865Y-100529D02*
G03I-355J0D01*
G01X342075Y-100499D02*
G03I-355J0D01*
G01X341505Y-98849D02*
G03I-355J0D01*
G01X341275Y-103979D02*
G03I-355J0D01*
G01Y-103289D02*
G03I-355J0D01*
G01Y-102589D02*
G03I-355J0D01*
G01Y-101899D02*
G03I-355J0D01*
G01X341285Y-101199D02*
G03I-355J0D01*
G01X341275Y-101299D02*
G03I-355J0D01*
G01X341295Y-101089D02*
G03I-355J0D01*
G01X337965Y-103979D02*
G03I-355J0D01*
G01Y-103289D02*
G03I-355J0D01*
G01Y-102589D02*
G03I-355J0D01*
G01Y-101899D02*
G03I-355J0D01*
G01Y-101309D02*
G03I-355J0D01*
G01X337955Y-101199D02*
G03I-355J0D01*
G01X337935Y-101099D02*
G03I-355J0D01*
G01X337235Y-100509D02*
G03I-355J0D01*
G01X337155Y-100499D02*
G03I-355J0D01*
G01X337365Y-100529D02*
G03I-355J0D01*
G01X337555Y-100609D02*
G03I-355J0D01*
G01X337725Y-100739D02*
G03I-355J0D01*
G01X337855Y-100899D02*
G03I-355J0D01*
G01X337175Y-98849D02*
G03I-355J0D01*
G01X344345Y-109529D02*
G03I-355J0D01*
G01Y-108839D02*
G03I-355J0D01*
G01Y-108139D02*
G03I-355J0D01*
G01Y-107449D02*
G03I-355J0D01*
G01Y-106059D02*
G03I-355J0D01*
G01Y-106759D02*
G03I-355J0D01*
G01Y-105369D02*
G03I-355J0D01*
G01Y-104669D02*
G03I-355J0D01*
G01X341275Y-109529D02*
G03I-355J0D01*
G01Y-108839D02*
G03I-355J0D01*
G01Y-108139D02*
G03I-355J0D01*
G01Y-107449D02*
G03I-355J0D01*
G01Y-106759D02*
G03I-355J0D01*
G01Y-106059D02*
G03I-355J0D01*
G01Y-105369D02*
G03I-355J0D01*
G01Y-104669D02*
G03I-355J0D01*
G01X337965Y-109529D02*
G03I-355J0D01*
G01Y-108839D02*
G03I-355J0D01*
G01Y-108139D02*
G03I-355J0D01*
G01Y-107449D02*
G03I-355J0D01*
G01Y-106759D02*
G03I-355J0D01*
G01Y-106059D02*
G03I-355J0D01*
G01Y-105369D02*
G03I-355J0D01*
G01Y-104669D02*
G03I-355J0D01*
G01X376925Y-118969D02*
G03I-355J0D01*
G01X376875Y-119149D02*
G03I-355J0D01*
G01X376795Y-119319D02*
G03I-355J0D01*
G01X376685Y-119479D02*
G03I-355J0D01*
G01X376555Y-119609D02*
G03I-355J0D01*
G01X376405Y-119719D02*
G03I-355J0D01*
G01X376945Y-118779D02*
G03I-355J0D01*
G01X376865Y-117229D02*
G03I-355J0D01*
G01X376925Y-117439D02*
G03I-355J0D01*
G01X376945Y-117649D02*
G03I-355J0D01*
G01X376465Y-116739D02*
G03I-355J0D01*
G01X376625Y-116879D02*
G03I-355J0D01*
G01X376765Y-117039D02*
G03I-355J0D01*
G01X376225Y-119799D02*
G03I-355J0D01*
G01X376045Y-119849D02*
G03I-355J0D01*
G01X375855Y-119869D02*
G03I-355J0D01*
G01Y-116559D02*
G03I-355J0D01*
G01X376065Y-116579D02*
G03I-355J0D01*
G01X376275Y-116639D02*
G03I-355J0D01*
G01X374105Y-119869D02*
G03I-355J0D01*
G01Y-116559D02*
G03I-355J0D01*
G01X376905Y-112009D02*
G03I-355J0D01*
G01X375875Y-112069D02*
G03I-355J0D01*
G01X373125D02*
G03I-355J0D01*
G01X372215Y-112039D02*
G03I-355J0D01*
G01X376725Y-110229D02*
G03I-355J0D01*
G01X376735D02*
G03I-355J0D01*
G01X376315Y-110459D02*
G03I-355J0D01*
G01X375845Y-110609D02*
G03I-355J0D01*
G01X375365Y-110659D02*
G03I-355J0D01*
G01X373755D02*
G03I-355J0D01*
G01X373155Y-110619D02*
G03I-355J0D01*
G01X372585Y-110459D02*
G03I-355J0D01*
G01X371345Y-119699D02*
G03I-355J0D01*
G01X371525Y-119569D02*
G03I-355J0D01*
G01X371685Y-119409D02*
G03I-355J0D01*
G01X371815Y-119219D02*
G03I-355J0D01*
G01X371905Y-119019D02*
G03I-355J0D01*
G01X371965Y-118799D02*
G03I-355J0D01*
G01X371985Y-118579D02*
G03I-355J0D01*
G01Y-117829D02*
G03I-355J0D01*
G01X371965Y-117609D02*
G03I-355J0D01*
G01X371905Y-117399D02*
G03I-355J0D01*
G01X371815Y-117189D02*
G03I-355J0D01*
G01X371685Y-117009D02*
G03I-355J0D01*
G01X371535Y-116859D02*
G03I-355J0D01*
G01X371345Y-116729D02*
G03I-355J0D01*
G01X370695Y-119869D02*
G03I-355J0D01*
G01X370915Y-119849D02*
G03I-355J0D01*
G01X371135Y-119789D02*
G03I-355J0D01*
G01X371145Y-116639D02*
G03I-355J0D01*
G01X370935Y-116579D02*
G03I-355J0D01*
G01X370715Y-116559D02*
G03I-355J0D01*
G01X369585Y-119809D02*
G03I-355J0D01*
G01X369785Y-119849D02*
G03I-355J0D01*
G01X369995Y-119869D02*
G03I-355J0D01*
G01X369975Y-116559D02*
G03I-355J0D01*
G01X369745Y-116579D02*
G03I-355J0D01*
G01X369535Y-116639D02*
G03I-355J0D01*
G01X368815Y-119149D02*
G03I-355J0D01*
G01X368925Y-119329D02*
G03I-355J0D01*
G01X369065Y-119479D02*
G03I-355J0D01*
G01X369215Y-119619D02*
G03I-355J0D01*
G01X369395Y-119729D02*
G03I-355J0D01*
G01X368675Y-118549D02*
G03I-355J0D01*
G01X368695Y-118759D02*
G03I-355J0D01*
G01X368735Y-118959D02*
G03I-355J0D01*
G01X368675Y-118549D02*
G03I-355J0D01*
G01X368845Y-117209D02*
G03I-355J0D01*
G01X368755Y-117419D02*
G03I-355J0D01*
G01X368695Y-117629D02*
G03I-355J0D01*
G01X368675Y-117859D02*
G03I-355J0D01*
G01X369325Y-116729D02*
G03I-355J0D01*
G01X369135Y-116859D02*
G03I-355J0D01*
G01X368975Y-117019D02*
G03I-355J0D01*
G01X366315Y-119869D02*
G03I-355J0D01*
G01Y-116559D02*
G03I-355J0D01*
G01X365835D02*
G03I-355J0D01*
G01X363555Y-119869D02*
G03I-355J0D01*
G01X363005D02*
G03I-355J0D01*
G01Y-116559D02*
G03I-355J0D01*
G01X360645Y-119869D02*
G03I-355J0D01*
G01Y-116559D02*
G03I-355J0D01*
G01X358885Y-119869D02*
G03I-355J0D01*
G01X358685Y-119849D02*
G03I-355J0D01*
G01X358485Y-119809D02*
G03I-355J0D01*
G01X358425Y-116639D02*
G03I-355J0D01*
G01X358645Y-116579D02*
G03I-355J0D01*
G01X358865Y-116559D02*
G03I-355J0D01*
G01X358295Y-119729D02*
G03I-355J0D01*
G01X358115Y-119619D02*
G03I-355J0D01*
G01X357955Y-119489D02*
G03I-355J0D01*
G01X357825Y-119329D02*
G03I-355J0D01*
G01X357715Y-119149D02*
G03I-355J0D01*
G01X357635Y-118959D02*
G03I-355J0D01*
G01X357595Y-118759D02*
G03I-355J0D01*
G01X357575Y-118559D02*
G03I-355J0D01*
G01Y-117849D02*
G03I-355J0D01*
G01X357595Y-117629D02*
G03I-355J0D01*
G01X357655Y-117409D02*
G03I-355J0D01*
G01X357745Y-117199D02*
G03I-355J0D01*
G01X357575Y-117849D02*
G03I-355J0D01*
G01X357875Y-117019D02*
G03I-355J0D01*
G01X358035Y-116859D02*
G03I-355J0D01*
G01X358215Y-116729D02*
G03I-355J0D01*
G01X371315Y-111899D02*
G03I-355J0D01*
G01X372115Y-110229D02*
G03I-355J0D01*
G01X372055Y-110199D02*
G03I-355J0D01*
G01X370395Y-111619D02*
G03I-355J0D01*
G01X370445Y-111639D02*
G03I-355J0D01*
G01X369865Y-111369D02*
G03I-355J0D01*
G01X369235Y-110919D02*
G03I-355J0D01*
G01X368875Y-110579D02*
G03I-355J0D01*
G01X369335Y-111019D02*
G03I-355J0D01*
G01X368525Y-110229D02*
G03I-355J0D01*
G01X368485Y-110189D02*
G03I-355J0D01*
G01X364655Y-112069D02*
G03I-355J0D01*
G01X361355D02*
G03I-355J0D01*
G01X364655Y-111619D02*
G03I-355J0D01*
G01Y-110919D02*
G03I-355J0D01*
G01Y-110229D02*
G03I-355J0D01*
G01X361355Y-111619D02*
G03I-355J0D01*
G01Y-110919D02*
G03I-355J0D01*
G01Y-110229D02*
G03I-355J0D01*
G01X376425Y-100509D02*
G03I-355J0D01*
G01X376825Y-100719D02*
G03I-355J0D01*
G01X376995Y-98879D02*
G03I-355J0D01*
G01X375775Y-100299D02*
G03I-355J0D01*
G01X376325Y-100449D02*
G03I-355J0D01*
G01X376195Y-98849D02*
G03I-355J0D01*
G01X375205Y-100259D02*
G03I-355J0D01*
G01X373215Y-100289D02*
G03I-355J0D01*
G01X373755Y-100259D02*
G03I-355J0D01*
G01X373085Y-98849D02*
G03I-355J0D01*
G01X372505Y-100509D02*
G03I-355J0D01*
G01X372215Y-100649D02*
G03I-355J0D01*
G01X372695Y-100419D02*
G03I-355J0D01*
G01X372225Y-98879D02*
G03I-355J0D01*
G01X377095Y-109909D02*
G03I-355J0D01*
G01X371535Y-101199D02*
G03I-355J0D01*
G01X371455Y-101269D02*
G03I-355J0D01*
G01X371785Y-100969D02*
G03I-355J0D01*
G01X371375Y-99039D02*
G03I-355J0D01*
G01X371035Y-103979D02*
G03I-355J0D01*
G01Y-103289D02*
G03I-355J0D01*
G01X371125Y-101899D02*
G03I-355J0D01*
G01X371035Y-102589D02*
G03I-355J0D01*
G01Y-102509D02*
G03I-355J0D01*
G01X371075Y-102059D02*
G03I-355J0D01*
G01X371215Y-101639D02*
G03I-355J0D01*
G01X370565Y-99319D02*
G03I-355J0D01*
G01X371135Y-99119D02*
G03I-355J0D01*
G01X369565Y-99819D02*
G03I-355J0D01*
G01X369935Y-99589D02*
G03I-355J0D01*
G01X368725Y-100509D02*
G03I-355J0D01*
G01X368835Y-100379D02*
G03I-355J0D01*
G01X369355Y-99939D02*
G03I-355J0D01*
G01X367965Y-103979D02*
G03I-355J0D01*
G01Y-103289D02*
G03I-355J0D01*
G01X368015Y-101899D02*
G03I-355J0D01*
G01X367965Y-102589D02*
G03I-355J0D01*
G01X368015Y-101919D02*
G03I-355J0D01*
G01X367965Y-102509D02*
G03I-355J0D01*
G01X368255Y-101199D02*
G03I-355J0D01*
G01X368175Y-101349D02*
G03I-355J0D01*
G01X368455Y-100829D02*
G03I-355J0D01*
G01X364655Y-103979D02*
G03I-355J0D01*
G01Y-103289D02*
G03I-355J0D01*
G01Y-102589D02*
G03I-355J0D01*
G01Y-101899D02*
G03I-355J0D01*
G01Y-101199D02*
G03I-355J0D01*
G01Y-100509D02*
G03I-355J0D01*
G01Y-99319D02*
G03I-355J0D01*
G01Y-99819D02*
G03I-355J0D01*
G01X361295Y-103979D02*
G03I-355J0D01*
G01X361355Y-103709D02*
G03I-355J0D01*
G01X361325Y-103919D02*
G03I-355J0D01*
G01X361245Y-104109D02*
G03I-355J0D01*
G01X361355Y-103289D02*
G03I-355J0D01*
G01Y-102589D02*
G03I-355J0D01*
G01Y-101899D02*
G03I-355J0D01*
G01Y-101199D02*
G03I-355J0D01*
G01Y-100509D02*
G03I-355J0D01*
G01Y-99319D02*
G03I-355J0D01*
G01D02*
G03I-355J0D01*
G01Y-99819D02*
G03I-355J0D01*
G01X371415Y-109529D02*
G03I-355J0D01*
G01X371585Y-109829D02*
G03I-355J0D01*
G01X371285Y-109319D02*
G03I-355J0D01*
G01X371125Y-108839D02*
G03I-355J0D01*
G01X371095Y-108759D02*
G03I-355J0D01*
G01X371035Y-108139D02*
G03I-355J0D01*
G01Y-108179D02*
G03I-355J0D01*
G01Y-107449D02*
G03I-355J0D01*
G01Y-106059D02*
G03I-355J0D01*
G01Y-106759D02*
G03I-355J0D01*
G01Y-105369D02*
G03I-355J0D01*
G01Y-104669D02*
G03I-355J0D01*
G01X368135Y-109529D02*
G03I-355J0D01*
G01X368195Y-109719D02*
G03I-355J0D01*
G01X367985Y-108839D02*
G03I-355J0D01*
G01X368015Y-109199D02*
G03I-355J0D01*
G01X367965Y-108139D02*
G03I-355J0D01*
G01Y-108649D02*
G03I-355J0D01*
G01Y-107449D02*
G03I-355J0D01*
G01Y-106759D02*
G03I-355J0D01*
G01Y-105369D02*
G03I-355J0D01*
G01Y-106059D02*
G03I-355J0D01*
G01Y-104669D02*
G03I-355J0D01*
G01X364655Y-109529D02*
G03I-355J0D01*
G01Y-108839D02*
G03I-355J0D01*
G01Y-108139D02*
G03I-355J0D01*
G01Y-107449D02*
G03I-355J0D01*
G01Y-106759D02*
G03I-355J0D01*
G01Y-105369D02*
G03I-355J0D01*
G01Y-106059D02*
G03I-355J0D01*
G01Y-104669D02*
G03I-355J0D01*
G01X361355Y-109529D02*
G03I-355J0D01*
G01Y-108839D02*
G03I-355J0D01*
G01Y-108139D02*
G03I-355J0D01*
G01Y-107449D02*
G03I-355J0D01*
G01Y-106949D02*
G03I-355J0D01*
G01X361325Y-106759D02*
G03I-355J0D01*
G01X361125Y-106399D02*
G03I-355J0D01*
G01X361245Y-106559D02*
G03I-355J0D01*
G01X361325Y-106749D02*
G03I-355J0D01*
G01X361115Y-104279D02*
G03I-355J0D01*
G01X360575Y-106169D02*
G03I-355J0D01*
G01X360775Y-106189D02*
G03I-355J0D01*
G01X360965Y-106269D02*
G03I-355J0D01*
G01X360945Y-104409D02*
G03I-355J0D01*
G01X360755Y-104489D02*
G03I-355J0D01*
G01X360545Y-104509D02*
G03I-355J0D01*
G01X390645Y-119809D02*
G03I-355J0D01*
G01X390465Y-119849D02*
G03I-355J0D01*
G01X390285Y-119869D02*
G03I-355J0D01*
G01X390525Y-116579D02*
G03I-355J0D01*
G01X390325Y-116559D02*
G03I-355J0D01*
G01X396785Y-119869D02*
G03I-355J0D01*
G01X396065Y-118189D02*
G03I-355J0D01*
G01X396235Y-118139D02*
G03I-355J0D01*
G01X396385Y-118059D02*
G03I-355J0D01*
G01X396525Y-117949D02*
G03I-355J0D01*
G01X396635Y-117809D02*
G03I-355J0D01*
G01X396715Y-117659D02*
G03I-355J0D01*
G01X396765Y-117489D02*
G03I-355J0D01*
G01X396785Y-117319D02*
G03I-355J0D01*
G01X396765Y-117149D02*
G03I-355J0D01*
G01X396705Y-116989D02*
G03I-355J0D01*
G01X396615Y-116849D02*
G03I-355J0D01*
G01X396495Y-116729D02*
G03I-355J0D01*
G01X396355Y-116639D02*
G03I-355J0D01*
G01X396195Y-116579D02*
G03I-355J0D01*
G01X396025Y-116559D02*
G03I-355J0D01*
G01X395895Y-118219D02*
G03I-355J0D01*
G01Y-118209D02*
G03I-355J0D01*
G01X394335Y-119869D02*
G03I-355J0D01*
G01X394275Y-118209D02*
G03I-355J0D01*
G01Y-118219D02*
G03I-355J0D01*
G01X394165Y-119849D02*
G03I-355J0D01*
G01X394005Y-119799D02*
G03I-355J0D01*
G01X393855Y-119729D02*
G03I-355J0D01*
G01X393725Y-119619D02*
G03I-355J0D01*
G01X393615Y-119489D02*
G03I-355J0D01*
G01X393545Y-119339D02*
G03I-355J0D01*
G01X393495Y-119179D02*
G03I-355J0D01*
G01X393475Y-119009D02*
G03I-355J0D01*
G01X393495Y-118849D02*
G03I-355J0D01*
G01X393535Y-118699D02*
G03I-355J0D01*
G01X393605Y-118569D02*
G03I-355J0D01*
G01X393705Y-118439D02*
G03I-355J0D01*
G01X393835Y-118339D02*
G03I-355J0D01*
G01X393965Y-118269D02*
G03I-355J0D01*
G01X394115Y-118229D02*
G03I-355J0D01*
G01X393475Y-116559D02*
G03I-355J0D01*
G01X391325Y-118989D02*
G03I-355J0D01*
G01X391285Y-119169D02*
G03I-355J0D01*
G01X391205Y-119339D02*
G03I-355J0D01*
G01X391095Y-119489D02*
G03I-355J0D01*
G01X390965Y-119619D02*
G03I-355J0D01*
G01X391355Y-118219D02*
G03I-355J0D01*
G01D02*
G03I-355J0D01*
G01Y-118809D02*
G03I-355J0D01*
G01X391345D02*
G03I-355J0D01*
G01X391355Y-117579D02*
G03I-355J0D01*
G01X391345D02*
G03I-355J0D01*
G01X391325Y-117379D02*
G03I-355J0D01*
G01X391265Y-117189D02*
G03I-355J0D01*
G01X391175Y-117009D02*
G03I-355J0D01*
G01X391045Y-116859D02*
G03I-355J0D01*
G01X390895Y-116729D02*
G03I-355J0D01*
G01X390815Y-119729D02*
G03I-355J0D01*
G01X390715Y-116639D02*
G03I-355J0D01*
G01X388515Y-119869D02*
G03I-355J0D01*
G01Y-118219D02*
G03I-355J0D01*
G01Y-116559D02*
G03I-355J0D01*
G01X386155Y-119869D02*
G03I-355J0D01*
G01Y-116559D02*
G03I-355J0D01*
G01X385605D02*
G03I-355J0D01*
G01X384065Y-119869D02*
G03I-355J0D01*
G01X382655Y-116559D02*
G03I-355J0D01*
G01X382135Y-119869D02*
G03I-355J0D01*
G01Y-116559D02*
G03I-355J0D01*
G01X379545Y-119869D02*
G03I-355J0D01*
G01Y-116559D02*
G03I-355J0D01*
G01X396785Y-112069D02*
G03I-355J0D01*
G01X393475D02*
G03I-355J0D01*
G01X396785Y-111619D02*
G03I-355J0D01*
G01Y-110919D02*
G03I-355J0D01*
G01Y-110229D02*
G03I-355J0D01*
G01X393475Y-111619D02*
G03I-355J0D01*
G01Y-110919D02*
G03I-355J0D01*
G01Y-110229D02*
G03I-355J0D01*
G01X386905Y-112069D02*
G03I-355J0D01*
G01X383245D02*
G03I-355J0D01*
G01X377925Y-111839D02*
G03I-355J0D01*
G01X388485Y-110229D02*
G03I-355J0D01*
G01X387885Y-110919D02*
G03I-355J0D01*
G01X387295Y-111619D02*
G03I-355J0D01*
G01X384925Y-110229D02*
G03I-355J0D01*
G01X384295Y-110919D02*
G03I-355J0D01*
G01X383655Y-111619D02*
G03I-355J0D01*
G01X379925Y-110919D02*
G03I-355J0D01*
G01X379855Y-110969D02*
G03I-355J0D01*
G01X380245Y-110679D02*
G03I-355J0D01*
G01X380605Y-110229D02*
G03I-355J0D01*
G01X380555Y-110309D02*
G03I-355J0D01*
G01X379255Y-111349D02*
G03I-355J0D01*
G01X378665Y-111619D02*
G03I-355J0D01*
G01X378605Y-111639D02*
G03I-355J0D01*
G01X396785Y-103979D02*
G03I-355J0D01*
G01Y-103289D02*
G03I-355J0D01*
G01Y-101899D02*
G03I-355J0D01*
G01Y-102589D02*
G03I-355J0D01*
G01Y-101199D02*
G03I-355J0D01*
G01Y-100509D02*
G03I-355J0D01*
G01Y-99819D02*
G03I-355J0D01*
G01Y-99319D02*
G03I-355J0D01*
G01D02*
G03I-355J0D01*
G01X395445Y-99119D02*
G03I-355J0D01*
G01X394545Y-98989D02*
G03I-355J0D01*
G01X393475Y-103979D02*
G03I-355J0D01*
G01Y-103289D02*
G03I-355J0D01*
G01Y-102589D02*
G03I-355J0D01*
G01Y-101199D02*
G03I-355J0D01*
G01Y-101899D02*
G03I-355J0D01*
G01Y-101039D02*
G03I-355J0D01*
G01X393455Y-100839D02*
G03I-355J0D01*
G01X393265Y-100509D02*
G03I-355J0D01*
G01X393375Y-100649D02*
G03I-355J0D01*
G01X393255Y-100489D02*
G03I-355J0D01*
G01X393085Y-100369D02*
G03I-355J0D01*
G01X392905Y-100289D02*
G03I-355J0D01*
G01X392705Y-100259D02*
G03I-355J0D01*
G01X392295Y-98849D02*
G03I-355J0D01*
G01X389855Y-100259D02*
G03I-355J0D01*
G01X389165Y-100289D02*
G03I-355J0D01*
G01X389265Y-98849D02*
G03I-355J0D01*
G01X388355Y-100509D02*
G03I-355J0D01*
G01X388485Y-100449D02*
G03I-355J0D01*
G01X387535Y-101049D02*
G03I-355J0D01*
G01X387435Y-101199D02*
G03I-355J0D01*
G01X387845Y-100739D02*
G03I-355J0D01*
G01X387595Y-98969D02*
G03I-355J0D01*
G01X387195Y-103979D02*
G03I-355J0D01*
G01X387145Y-103809D02*
G03I-355J0D01*
G01X387095Y-103289D02*
G03I-355J0D01*
G01Y-103369D02*
G03I-355J0D01*
G01Y-102589D02*
G03I-355J0D01*
G01X387145Y-101899D02*
G03I-355J0D01*
G01X387155Y-101829D02*
G03I-355J0D01*
G01X387095Y-102269D02*
G03I-355J0D01*
G01X387305Y-101419D02*
G03I-355J0D01*
G01X386875Y-99119D02*
G03I-355J0D01*
G01X385955Y-99319D02*
G03I-355J0D01*
G01X385165Y-99819D02*
G03I-355J0D01*
G01X384915Y-100019D02*
G03I-355J0D01*
G01X385405Y-99619D02*
G03I-355J0D01*
G01X384035Y-103979D02*
G03I-355J0D01*
G01X384025Y-103919D02*
G03I-355J0D01*
G01Y-103289D02*
G03I-355J0D01*
G01Y-102589D02*
G03I-355J0D01*
G01Y-101899D02*
G03I-355J0D01*
G01X384125Y-101199D02*
G03I-355J0D01*
G01X384025Y-101919D02*
G03I-355J0D01*
G01X384045Y-101539D02*
G03I-355J0D01*
G01X384135Y-101159D02*
G03I-355J0D01*
G01X384495Y-100509D02*
G03I-355J0D01*
G01X384285Y-100809D02*
G03I-355J0D01*
G01X384505Y-100499D02*
G03I-355J0D01*
G01X380955Y-103979D02*
G03I-355J0D01*
G01Y-103289D02*
G03I-355J0D01*
G01Y-102589D02*
G03I-355J0D01*
G01X380925Y-101899D02*
G03I-355J0D01*
G01X380955Y-102229D02*
G03I-355J0D01*
G01X380735Y-101199D02*
G03I-355J0D01*
G01X380785Y-101289D02*
G03I-355J0D01*
G01X380915Y-101749D02*
G03I-355J0D01*
G01X380785Y-101289D02*
G03I-355J0D01*
G01X380275Y-100509D02*
G03I-355J0D01*
G01X380555Y-100869D02*
G03I-355J0D01*
G01X380265Y-100489D02*
G03I-355J0D01*
G01X379895Y-100179D02*
G03I-355J0D01*
G01X379445Y-99819D02*
G03I-355J0D01*
G01X379265Y-99669D02*
G03I-355J0D01*
G01X378555Y-99279D02*
G03I-355J0D01*
G01X378085Y-99119D02*
G03I-355J0D01*
G01X377885Y-103979D02*
G03I-355J0D01*
G01Y-103289D02*
G03I-355J0D01*
G01Y-102589D02*
G03I-355J0D01*
G01X377775Y-101899D02*
G03I-355J0D01*
G01X377845Y-102139D02*
G03I-355J0D01*
G01X377885Y-102549D02*
G03I-355J0D01*
G01X377525Y-101399D02*
G03I-355J0D01*
G01X377725Y-101749D02*
G03I-355J0D01*
G01X377355Y-101199D02*
G03I-355J0D01*
G01X377255Y-101089D02*
G03I-355J0D01*
G01D02*
G03I-355J0D01*
G01X377795Y-99019D02*
G03I-355J0D01*
G01X390265Y-108139D02*
G03I-355J0D01*
G01X396785Y-109529D02*
G03I-355J0D01*
G01Y-108839D02*
G03I-355J0D01*
G01Y-108139D02*
G03I-355J0D01*
G01Y-107449D02*
G03I-355J0D01*
G01Y-106059D02*
G03I-355J0D01*
G01Y-106759D02*
G03I-355J0D01*
G01Y-105369D02*
G03I-355J0D01*
G01Y-104669D02*
G03I-355J0D01*
G01X393475Y-108839D02*
G03I-355J0D01*
G01Y-109529D02*
G03I-355J0D01*
G01Y-108139D02*
G03I-355J0D01*
G01Y-107449D02*
G03I-355J0D01*
G01Y-106759D02*
G03I-355J0D01*
G01Y-105369D02*
G03I-355J0D01*
G01Y-106059D02*
G03I-355J0D01*
G01Y-104669D02*
G03I-355J0D01*
G01X390865Y-107449D02*
G03I-355J0D01*
G01X391355Y-106759D02*
G03I-355J0D01*
G01Y-106059D02*
G03I-355J0D01*
G01Y-106879D02*
G03I-355J0D01*
G01Y-105459D02*
G03I-355J0D01*
G01X389675Y-108839D02*
G03I-355J0D01*
G01X389575Y-105459D02*
G03I-355J0D01*
G01X389075Y-109529D02*
G03I-355J0D01*
G01X388805Y-105369D02*
G03I-355J0D01*
G01X388435Y-105269D02*
G03I-355J0D01*
G01X388995Y-105419D02*
G03I-355J0D01*
G01X387455Y-107449D02*
G03I-355J0D01*
G01X387695Y-107189D02*
G03I-355J0D01*
G01Y-106759D02*
G03I-355J0D01*
G01Y-106679D02*
G03I-355J0D01*
G01X387505Y-104669D02*
G03I-355J0D01*
G01X387455Y-104629D02*
G03I-355J0D01*
G01X387915Y-104999D02*
G03I-355J0D01*
G01X386825Y-108139D02*
G03I-355J0D01*
G01X386995Y-106669D02*
G03I-355J0D01*
G01X387265Y-104229D02*
G03I-355J0D01*
G01X386185Y-108839D02*
G03I-355J0D01*
G01X386315Y-106549D02*
G03I-355J0D01*
G01X385555Y-109529D02*
G03I-355J0D01*
G01X385215Y-106059D02*
G03I-355J0D01*
G01X385655Y-106309D02*
G03I-355J0D01*
G01X385055Y-105969D02*
G03I-355J0D01*
G01X384465Y-105369D02*
G03I-355J0D01*
G01X384695Y-105659D02*
G03I-355J0D01*
G01X384405Y-105279D02*
G03I-355J0D01*
G01X384135Y-104669D02*
G03I-355J0D01*
G01X384185Y-104859D02*
G03I-355J0D01*
G01X384065Y-104399D02*
G03I-355J0D01*
G01X380885Y-109529D02*
G03I-355J0D01*
G01X380785Y-109879D02*
G03I-355J0D01*
G01X380955Y-108839D02*
G03I-355J0D01*
G01X380925Y-109409D02*
G03I-355J0D01*
G01X380955Y-108919D02*
G03I-355J0D01*
G01Y-108139D02*
G03I-355J0D01*
G01Y-107449D02*
G03I-355J0D01*
G01Y-106759D02*
G03I-355J0D01*
G01Y-106059D02*
G03I-355J0D01*
G01Y-105369D02*
G03I-355J0D01*
G01Y-104669D02*
G03I-355J0D01*
G01Y-104989D02*
G03I-355J0D01*
G01D02*
G03I-355J0D01*
G01D02*
G03I-355J0D01*
G01X377465Y-109529D02*
G03I-355J0D01*
G01X377445Y-109559D02*
G03I-355J0D01*
G01X377795Y-108839D02*
G03I-355J0D01*
G01X377855Y-108669D02*
G03I-355J0D01*
G01X377705Y-109139D02*
G03I-355J0D01*
G01X377885Y-108139D02*
G03I-355J0D01*
G01Y-108179D02*
G03I-355J0D01*
G01Y-107449D02*
G03I-355J0D01*
G01Y-106759D02*
G03I-355J0D01*
G01Y-106059D02*
G03I-355J0D01*
G01Y-105369D02*
G03I-355J0D01*
G01Y-104669D02*
G03I-355J0D01*
G01Y-104989D02*
G03I-355J0D01*
G01D02*
G03I-355J0D01*
G01D02*
G03I-355J0D01*
M02*
